<svg xmlns="http://www.w3.org/2000/svg" xmlns:xlink="http://www.w3.org/1999/xlink" viewBox="0 0 350 350"><defs><style>.cls-1{fill:#fff;stroke-miterlimit:10;stroke-width:14px;stroke:url(#linear-gradient);}.cls-2{fill:url(#Áåçûìÿííûé_ãðàäèåíò_84);}.cls-3{fill:url(#Áåçûìÿííûé_ãðàäèåíò_23);}.cls-4{fill:url(#Áåçûìÿííûé_ãðàäèåíò_16);}.cls-5{fill:url(#Áåçûìÿííûé_ãðàäèåíò_29);}.cls-6{fill:url(#Áåçûìÿííûé_ãðàäèåíò_4);}.cls-7{fill:url(#Áåçûìÿííûé_ãðàäèåíò_13);}.cls-8{fill:url(#Áåçûìÿííûé_ãðàäèåíò_38);}.cls-9{fill:url(#Áåçûìÿííûé_ãðàäèåíò_8);}.cls-10{fill:#ffeff7;}.cls-11{fill:url(#Áåçûìÿííûé_ãðàäèåíò_62);}.cls-12{fill:url(#Áåçûìÿííûé_ãðàäèåíò_62-2);}.cls-13{fill:#c5abbc;}.cls-14{fill:#c467e6;}.cls-15{fill:#b873f3;}.cls-16{fill:#d185f9;}.cls-17{fill:#feeff7;}</style><linearGradient id="linear-gradient" x1="175" x2="175" y2="350" gradientUnits="userSpaceOnUse"><stop offset="0.1" stop-color="#8a04ed"/><stop offset="0.13" stop-color="#900ded"/><stop offset="0.17" stop-color="#a127ee"/><stop offset="0.22" stop-color="#bd50f0"/><stop offset="0.28" stop-color="#e489f1"/><stop offset="0.3" stop-color="#ef9af2"/><stop offset="0.32" stop-color="#df8fe8"/><stop offset="0.37" stop-color="#b672cf"/><stop offset="0.43" stop-color="#7343a6"/><stop offset="0.5" stop-color="#240c76"/><stop offset="0.7" stop-color="#570296"/><stop offset="0.9" stop-color="#831187"/></linearGradient><linearGradient id="Áåçûìÿííûé_ãðàäèåíò_84" x1="45.38" y1="175.05" x2="303.05" y2="175.05" gradientUnits="userSpaceOnUse"><stop offset="0" stop-color="#faf2fc"/><stop offset="1" stop-color="#ffeff6"/></linearGradient><linearGradient id="Áåçûìÿííûé_ãðàäèåíò_23" x1="113.13" y1="174.25" x2="262.01" y2="174.25" gradientUnits="userSpaceOnUse"><stop offset="0" stop-color="#b28ea5"/><stop offset="0.4" stop-color="#b491a7"/><stop offset="0.63" stop-color="#b999ae"/><stop offset="0.83" stop-color="#c3a7b9"/><stop offset="1" stop-color="#d0bbc9"/></linearGradient><linearGradient id="Áåçûìÿííûé_ãðàäèåíò_16" x1="121.72" y1="185.7" x2="236.24" y2="185.7" gradientUnits="userSpaceOnUse"><stop offset="0" stop-color="#b28ea5"/><stop offset="0.2" stop-color="#ba9aae"/><stop offset="0.7" stop-color="#cab2c2"/><stop offset="1" stop-color="#d0bbc9"/></linearGradient><linearGradient id="Áåçûìÿííûé_ãðàäèåíò_29" x1="84.47" y1="232.81" x2="267.71" y2="232.81" gradientUnits="userSpaceOnUse"><stop offset="0" stop-color="#431863"/><stop offset="1" stop-color="#824c71"/></linearGradient><linearGradient id="Áåçûìÿííûé_ãðàäèåíò_4" x1="168.92" y1="241.43" x2="183.23" y2="241.43" gradientUnits="userSpaceOnUse"><stop offset="0" stop-color="#774679"/><stop offset="1" stop-color="#9e6381"/></linearGradient><linearGradient id="Áåçûìÿííûé_ãðàäèåíò_13" x1="140.07" y1="193.6" x2="212.11" y2="193.6" gradientUnits="userSpaceOnUse"><stop offset="0" stop-color="#e96987"/><stop offset="0.32" stop-color="#ea718e"/><stop offset="0.83" stop-color="#ee88a1"/><stop offset="1" stop-color="#f091a9"/></linearGradient><linearGradient id="Áåçûìÿííûé_ãðàäèåíò_38" x1="133.15" y1="134.34" x2="219.04" y2="134.34" gradientUnits="userSpaceOnUse"><stop offset="0" stop-color="#fa849e"/><stop offset="1" stop-color="#fc99a3"/></linearGradient><linearGradient id="Áåçûìÿííûé_ãðàäèåíò_8" x1="135.02" y1="102.75" x2="217.63" y2="102.75" gradientUnits="userSpaceOnUse"><stop offset="0" stop-color="#5c3273"/><stop offset="1" stop-color="#a36777"/></linearGradient><linearGradient id="Áåçûìÿííûé_ãðàäèåíò_62" x1="140.07" y1="211.48" x2="176.11" y2="211.48" gradientUnits="userSpaceOnUse"><stop offset="0" stop-color="#704078"/><stop offset="1" stop-color="#9e6381"/></linearGradient><linearGradient id="Áåçûìÿííûé_ãðàäèåíò_62-2" x1="176.08" y1="211.5" x2="212.11" y2="211.5" xlink:href="#Áåçûìÿííûé_ãðàäèåíò_62"/></defs><g id="Layer_2" data-name="Layer 2"><g id="Layer_1-2" data-name="Layer 1"><g id="WhiteB-SolidF"><circle class="cls-1" cx="175" cy="175" r="168"/><path class="cls-2" d="M253.73,65.41c-19-4.21-68.64-7.09-87-13.36-45.41-15.47-90.5-.5-100.13,48.5C63.12,118,58.78,157.16,52.6,173.8c-17.09,45.95-4.33,95.56,43.3,108.88,16.72,4.67,61.55,10.84,78.31,15.34,47.86,12.87,96.36,5.94,104.54-34.64,3.52-17.45,9.69-75.67,15.88-92.31C311.71,125.11,305.06,76.8,253.73,65.41Z"/><circle class="cls-3" cx="187.57" cy="174.25" r="74.44"/><circle class="cls-4" cx="178.98" cy="185.7" r="57.26"/><path class="cls-5" d="M241.58,202.62,217,198.36a20,20,0,0,1-4.84-1.47h-72a19.74,19.74,0,0,1-4.83,1.47l-24.63,4.26a31.5,31.5,0,0,0-26.14,31v35.08H267.71V233.65A31.49,31.49,0,0,0,241.58,202.62Z"/><polygon class="cls-6" points="168.92 217.46 168.92 268.73 183.23 268.73 183.23 217.44 176.12 214.13 168.92 217.46"/><path class="cls-7" d="M154.13,173.06l-2.57,10.18a20.39,20.39,0,0,1-11.49,13.65l36,17.24,36-17.24a20.38,20.38,0,0,1-11.48-13.65l-2.57-10.18Z"/><path class="cls-8" d="M219,130.2c0,29.26-19.23,53-42.95,53s-42.94-23.72-42.94-53,19.23-44.7,42.94-44.7S219,100.94,219,130.2Z"/><path class="cls-9" d="M176.09,85.5c-19.35,0-35.7,10.29-41.07,30,11.17-4,26.26-5.38,45.65.93,15.48,5,27.67,4.21,37,1.1C212.85,96.52,196.09,85.5,176.09,85.5Z"/><path class="cls-10" d="M231.92,237.36a1.43,1.43,0,0,0-1.43,1.43v29.94h2.86V238.79A1.42,1.42,0,0,0,231.92,237.36Z"/><path class="cls-10" d="M120.27,237.36a1.43,1.43,0,0,0-1.44,1.43v29.94h2.87V238.79A1.43,1.43,0,0,0,120.27,237.36Z"/><path class="cls-11" d="M176.11,214.13l-25.51,11.8a1.44,1.44,0,0,1-2-.88l-8.56-28.16Z"/><path class="cls-12" d="M176.08,214.13,201.68,226a1.44,1.44,0,0,0,2-.89l8.46-28.19Z"/><path class="cls-13" d="M176.13,262.29a2.14,2.14,0,0,1-1.52-.63,2.19,2.19,0,0,1-.63-1.52,2.13,2.13,0,0,1,.63-1.51,2.18,2.18,0,0,1,3,0,2,2,0,0,1,.66,1.51,2.19,2.19,0,0,1-.63,1.52A2.24,2.24,0,0,1,176.13,262.29Z"/><circle class="cls-13" cx="176.13" cy="236.72" r="2.15"/><circle class="cls-13" cx="176.13" cy="248.43" r="2.15"/><path class="cls-13" d="M176.13,227.16a2.21,2.21,0,0,1-1.55-.63A2.25,2.25,0,0,1,174,225a2.13,2.13,0,0,1,.63-1.51,2.19,2.19,0,0,1,3,0,2.22,2.22,0,0,1,.63,1.51,2.13,2.13,0,0,1-.66,1.52A2,2,0,0,1,176.13,227.16Z"/><path class="cls-14" d="M107.38,187.12h-4.29v-4.29a1.44,1.44,0,0,0-2.87,0v4.29H95.93a1.44,1.44,0,0,0,0,2.87h4.29v4.29a1.44,1.44,0,0,0,2.87,0V190h4.29a1.44,1.44,0,0,0,0-2.87Z"/><path class="cls-15" d="M98.79,141.31H94.5V137a1.44,1.44,0,0,0-2.87,0v4.29H87.34a1.43,1.43,0,1,0,0,2.86h4.29v4.3a1.44,1.44,0,0,0,2.87,0v-4.3h4.29a1.43,1.43,0,0,0,0-2.86Z"/><path class="cls-16" d="M130.29,104.09H126v-4.3a1.43,1.43,0,1,0-2.86,0v4.3h-4.29a1.43,1.43,0,1,0,0,2.86h4.29v4.3a1.43,1.43,0,0,0,2.86,0V107h4.3a1.43,1.43,0,1,0,0-2.86Z"/><path class="cls-17" d="M242,147a1.43,1.43,0,0,0-1.43,1.43v4.3h-4.3a1.43,1.43,0,1,0,0,2.86h4.3v4.29a1.43,1.43,0,1,0,2.86,0v-4.29h4.3a1.43,1.43,0,1,0,0-2.86h-4.3"/></g></g></g></svg>