<svg xmlns="http://www.w3.org/2000/svg" xmlns:xlink="http://www.w3.org/1999/xlink" viewBox="0 0 160 61"><defs><style>.cls-1{fill:#fff;stroke-miterlimit:10;stroke-width:7px;stroke:url(#linear-gradient);}</style><linearGradient id="linear-gradient" x1="80" x2="80" y2="61" gradientUnits="userSpaceOnUse"><stop offset="0.1" stop-color="#8a04ed"/><stop offset="0.13" stop-color="#900ded"/><stop offset="0.17" stop-color="#a127ee"/><stop offset="0.22" stop-color="#bd50f0"/><stop offset="0.28" stop-color="#e489f1"/><stop offset="0.3" stop-color="#ef9af2"/><stop offset="0.32" stop-color="#df8fe8"/><stop offset="0.37" stop-color="#b672cf"/><stop offset="0.43" stop-color="#7343a6"/><stop offset="0.5" stop-color="#240c76"/><stop offset="0.7" stop-color="#570296"/><stop offset="0.9" stop-color="#831187"/></linearGradient></defs><g id="Layer_2" data-name="Layer 2"><g id="Layer_1-2" data-name="Layer 1"><rect class="cls-1" x="3.5" y="3.5" width="153" height="54" rx="27"/><path d="M40.37,34.38H34l-1.1,3.12H30.25l5.48-15.31h2.9L44.11,37.5H41.47Zm-.71-2.05-2.48-7.11-2.51,7.11Z"/><path d="M50.74,25.74a5.48,5.48,0,0,1,2.48-.56,5.61,5.61,0,0,1,2.9.77,5.36,5.36,0,0,1,2.05,2.19,6.94,6.94,0,0,1,.74,3.24,7.09,7.09,0,0,1-.74,3.27,5.68,5.68,0,0,1-2.06,2.25,5.47,5.47,0,0,1-2.89.8,5.54,5.54,0,0,1-2.5-.55A4.88,4.88,0,0,1,49,35.74V37.5H46.48V21.22H49v6A4.93,4.93,0,0,1,50.74,25.74Zm5.11,3.48a3.59,3.59,0,0,0-1.37-1.39,3.7,3.7,0,0,0-1.81-.47,3.62,3.62,0,0,0-1.8.48,3.56,3.56,0,0,0-1.36,1.41A4.34,4.34,0,0,0,49,31.43a4.43,4.43,0,0,0,.52,2.19,3.55,3.55,0,0,0,3.16,1.9,3.53,3.53,0,0,0,1.81-.5,3.66,3.66,0,0,0,1.37-1.44,4.55,4.55,0,0,0,.51-2.2A4.37,4.37,0,0,0,55.85,29.22Z"/><path d="M63.56,36.92a5.62,5.62,0,0,1-2.18-2.2,6.65,6.65,0,0,1-.79-3.29,6.54,6.54,0,0,1,.81-3.28A5.59,5.59,0,0,1,63.62,26a6.81,6.81,0,0,1,6.29,0,5.68,5.68,0,0,1,2.23,2.2A6.54,6.54,0,0,1,73,31.43a6.38,6.38,0,0,1-.84,3.28,5.74,5.74,0,0,1-2.27,2.21,6.57,6.57,0,0,1-3.18.78A6.18,6.18,0,0,1,63.56,36.92Zm4.91-1.86a3.48,3.48,0,0,0,1.38-1.39,4.45,4.45,0,0,0,.53-2.24,4.55,4.55,0,0,0-.51-2.24,3.53,3.53,0,0,0-1.34-1.37,3.66,3.66,0,0,0-1.81-.46,3.59,3.59,0,0,0-1.79.46,3.33,3.33,0,0,0-1.31,1.37,4.78,4.78,0,0,0-.48,2.24,4.23,4.23,0,0,0,1,3,3.32,3.32,0,0,0,2.52,1.07A3.69,3.69,0,0,0,68.47,35.06Z"/><path d="M86.41,25.38V37.5h-2.5V36.07a4.14,4.14,0,0,1-1.56,1.18,5,5,0,0,1-2,.43,5.37,5.37,0,0,1-2.56-.6A4.27,4.27,0,0,1,76,35.32a5.72,5.72,0,0,1-.64-2.81V25.38h2.48v6.75a3.49,3.49,0,0,0,.82,2.5,2.88,2.88,0,0,0,2.22.87,2.92,2.92,0,0,0,2.23-.87,3.49,3.49,0,0,0,.83-2.5V25.38Z"/><path d="M92.64,27.42v6.71a1.28,1.28,0,0,0,.32,1,1.56,1.56,0,0,0,1.09.3h1.54V37.5h-2a3.81,3.81,0,0,1-2.6-.79,3.28,3.28,0,0,1-.9-2.58V27.42H88.68v-2h1.43v-3h2.53v3h3v2Z"/><path d="M119.72,22.21V37.5h-2.51V27L112.55,37.5h-1.74L106.13,27V37.5h-2.51V22.21h2.7l5.37,12,5.35-12Z"/><path d="M134,32.37h-9.26a3.35,3.35,0,0,0,1.08,2.34,3.42,3.42,0,0,0,2.37.88,2.93,2.93,0,0,0,2.86-1.7h2.71a5.46,5.46,0,0,1-2,2.74,5.85,5.85,0,0,1-3.58,1.07,6.22,6.22,0,0,1-3.11-.78,5.55,5.55,0,0,1-2.15-2.2,6.65,6.65,0,0,1-.79-3.29,6.92,6.92,0,0,1,.76-3.29A5.31,5.31,0,0,1,125.08,26a6.36,6.36,0,0,1,3.15-.77,6.14,6.14,0,0,1,3.06.75,5.28,5.28,0,0,1,2.09,2.1,6.31,6.31,0,0,1,.75,3.11A7.54,7.54,0,0,1,134,32.37Zm-2.53-2a2.83,2.83,0,0,0-1-2.22,3.51,3.51,0,0,0-2.4-.84,3.24,3.24,0,0,0-2.22.83,3.48,3.48,0,0,0-1.1,2.23Z"/></g></g></svg>