<svg xmlns="http://www.w3.org/2000/svg" xmlns:xlink="http://www.w3.org/1999/xlink" viewBox="0 0 350 350"><defs><style>.cls-1{fill:#fff;stroke-miterlimit:10;stroke-width:14px;stroke:url(#linear-gradient);}.cls-2{fill:url(#Áåçûìÿííûé_ãðàäèåíò_84);}.cls-3{fill:url(#Áåçûìÿííûé_ãðàäèåíò_29);}.cls-4{fill:url(#Áåçûìÿííûé_ãðàäèåíò_62);}.cls-5{fill:#c5aabc;}.cls-6{fill:#b76dee;}.cls-7{fill:url(#Áåçûìÿííûé_ãðàäèåíò_109);}.cls-8{fill:#ffeff6;}.cls-9{fill:#e3d7df;}.cls-10{fill:#fb8aa0;}.cls-11{fill:url(#Áåçûìÿííûé_ãðàäèåíò_68);}.cls-12{fill:url(#Áåçûìÿííûé_ãðàäèåíò_56);}.cls-13{fill:url(#Áåçûìÿííûé_ãðàäèåíò_98);}.cls-14{fill:url(#Áåçûìÿííûé_ãðàäèåíò_109-2);}.cls-15{fill:url(#Áåçûìÿííûé_ãðàäèåíò_29-2);}.cls-16{fill:url(#Áåçûìÿííûé_ãðàäèåíò_109-3);}</style><linearGradient id="linear-gradient" x1="175" x2="175" y2="350" gradientUnits="userSpaceOnUse"><stop offset="0.1" stop-color="#8a04ed"/><stop offset="0.13" stop-color="#900ded"/><stop offset="0.17" stop-color="#a127ee"/><stop offset="0.22" stop-color="#bd50f0"/><stop offset="0.28" stop-color="#e489f1"/><stop offset="0.3" stop-color="#ef9af2"/><stop offset="0.32" stop-color="#df8fe8"/><stop offset="0.37" stop-color="#b672cf"/><stop offset="0.43" stop-color="#7343a6"/><stop offset="0.5" stop-color="#240c76"/><stop offset="0.7" stop-color="#570296"/><stop offset="0.9" stop-color="#831187"/></linearGradient><linearGradient id="Áåçûìÿííûé_ãðàäèåíò_84" x1="39.39" y1="169.71" x2="300.18" y2="169.71" gradientUnits="userSpaceOnUse"><stop offset="0" stop-color="#faf2fc"/><stop offset="1" stop-color="#ffeff6"/></linearGradient><linearGradient id="Áåçûìÿííûé_ãðàäèåíò_29" x1="78.82" y1="167.68" x2="206.32" y2="167.68" gradientUnits="userSpaceOnUse"><stop offset="0" stop-color="#431863"/><stop offset="1" stop-color="#824c71"/></linearGradient><linearGradient id="Áåçûìÿííûé_ãðàäèåíò_62" x1="90.41" y1="167.68" x2="229.5" y2="167.68" gradientUnits="userSpaceOnUse"><stop offset="0" stop-color="#704078"/><stop offset="1" stop-color="#9e6381"/></linearGradient><linearGradient id="Áåçûìÿííûé_ãðàäèåíò_109" x1="164.3" y1="87.99" x2="170.1" y2="87.99" gradientUnits="userSpaceOnUse"><stop offset="0" stop-color="#b28ea5"/><stop offset="1" stop-color="#d0bbc9"/></linearGradient><linearGradient id="Áåçûìÿííûé_ãðàäèåíò_68" x1="230.95" y1="253.16" x2="262.83" y2="253.16" gradientUnits="userSpaceOnUse"><stop offset="0" stop-color="#e96987"/><stop offset="1" stop-color="#f091a9"/></linearGradient><linearGradient id="Áåçûìÿííûé_ãðàäèåíò_56" x1="229.5" y1="171.3" x2="246.89" y2="171.3" gradientUnits="userSpaceOnUse"><stop offset="0" stop-color="#bf7df7"/><stop offset="1" stop-color="#df8bfb"/></linearGradient><linearGradient id="Áåçûìÿííûé_ãðàäèåíò_98" x1="246.89" y1="171.3" x2="264.28" y2="171.3" gradientUnits="userSpaceOnUse"><stop offset="0" stop-color="#c571ee"/><stop offset="1" stop-color="#c352d5"/></linearGradient><linearGradient id="Áåçûìÿííûé_ãðàäèåíò_109-2" x1="229.5" y1="98.72" x2="264.28" y2="98.72" xlink:href="#Áåçûìÿííûé_ãðàäèåíò_109"/><linearGradient id="Áåçûìÿííûé_ãðàäèåíò_29-2" x1="234.87" y1="84.75" x2="258.91" y2="84.75" xlink:href="#Áåçûìÿííûé_ãðàäèåíò_29"/><linearGradient id="Áåçûìÿííûé_ãðàäèåíò_109-3" x1="229.5" y1="243.74" x2="264.28" y2="243.74" xlink:href="#Áåçûìÿííûé_ãðàäèåíò_109"/></defs><g id="Layer_2" data-name="Layer 2"><g id="Layer_1-2" data-name="Layer 1"><g id="WhiteB-SolidF"><circle class="cls-1" cx="175" cy="175" r="168"/></g><path class="cls-2" d="M250.26,58.75c-19.19-4.26-69.47-7.18-88.1-13.53-46-15.65-91.6-.5-101.34,49.09C57.35,112,53,151.6,46.69,168.44,29.4,215,42.31,265.17,90.52,278.65c16.92,4.73,62.3,11,79.26,15.53,48.44,13,97.52,6,105.8-35.07,3.56-17.66,9.81-76.58,16.07-93.42C308.94,119.17,302.21,70.27,250.26,58.75Z"/><rect class="cls-3" x="78.82" y="74.95" width="127.5" height="185.45" rx="3"/><path class="cls-4" d="M93.31,234.32H229.5V101H93.31a2.9,2.9,0,0,0-2.9,2.9V231.42A2.9,2.9,0,0,0,93.31,234.32Z"/><path class="cls-5" d="M157.06,89.44h-29a1.45,1.45,0,0,1,0-2.9h29a1.45,1.45,0,1,1,0,2.9Z"/><path class="cls-6" d="M117.19,251a3.65,3.65,0,0,1-3.62-3.62,3.56,3.56,0,0,1,1.07-2.55,3.7,3.7,0,0,1,5.1,0,3.62,3.62,0,0,1-2.55,6.17Z"/><path class="cls-6" d="M139.65,247.36a3.63,3.63,0,0,1,3.62-3.62h0a3.63,3.63,0,0,1,3.62,3.62h0a3.62,3.62,0,0,1-3.62,3.62h0A3.62,3.62,0,0,1,139.65,247.36Z"/><path class="cls-6" d="M169.35,251a3.65,3.65,0,0,1-3.62-3.62,3.56,3.56,0,0,1,1.07-2.55,3.73,3.73,0,0,1,5.1,0,3.64,3.64,0,0,1,1.07,2.58,3.6,3.6,0,0,1-3.62,3.62Z"/><circle class="cls-7" cx="167.2" cy="87.99" r="2.9"/><path class="cls-8" d="M129.26,176.37H104.9a1.45,1.45,0,1,1,0-2.9h24.36a1.45,1.45,0,1,1,0,2.9Z"/><path class="cls-8" d="M165.74,176.37H141.52a1.45,1.45,0,1,1,0-2.9h24.22a1.45,1.45,0,0,1,0,2.9Z"/><path class="cls-8" d="M179.63,147.39H151a1.45,1.45,0,0,1,0-2.9h28.62a1.45,1.45,0,1,1,0,2.9Z"/><path class="cls-8" d="M185.77,118.41H161.54a1.45,1.45,0,0,1,0-2.9h24.23a1.45,1.45,0,1,1,0,2.9Z"/><path class="cls-8" d="M150.25,118.41H123.53a1.45,1.45,0,0,1,0-2.9h26.72a1.45,1.45,0,0,1,0,2.9Z"/><path class="cls-9" d="M162.65,132.9H123.53a1.45,1.45,0,0,1,0-2.9h39.12a1.45,1.45,0,1,1,0,2.9Z"/><path class="cls-8" d="M193.84,132.9h-19.9a1.45,1.45,0,0,1,0-2.9h19.9a1.45,1.45,0,1,1,0,2.9Z"/><path class="cls-8" d="M160.52,161.88h-37a1.45,1.45,0,0,1,0-2.9h37a1.45,1.45,0,0,1,0,2.9Z"/><path class="cls-9" d="M189,161.88H171.82a1.45,1.45,0,0,1,0-2.9H189a1.45,1.45,0,0,1,0,2.9Z"/><path class="cls-8" d="M215,161.88H200.28a1.45,1.45,0,0,1,0-2.9H215a1.45,1.45,0,0,1,0,2.9Z"/><path class="cls-8" d="M139.72,147.39H104.9a1.45,1.45,0,0,1,0-2.9h34.82a1.45,1.45,0,0,1,0,2.9Z"/><path class="cls-9" d="M206.33,147.39h-15.4a1.45,1.45,0,0,1,0-2.9h15.4a1.45,1.45,0,0,1,0,2.9Z"/><path class="cls-9" d="M145.62,190.85H123.53a1.45,1.45,0,0,1,0-2.89h22.09a1.45,1.45,0,1,1,0,2.89Z"/><path class="cls-8" d="M175.46,190.85H156.92a1.45,1.45,0,1,1,0-2.89h18.54a1.45,1.45,0,1,1,0,2.89Z"/><path class="cls-8" d="M215,190.85H187.78a1.45,1.45,0,1,1,0-2.89H215a1.45,1.45,0,1,1,0,2.89Z"/><path class="cls-8" d="M157.22,205.35H123.53a1.45,1.45,0,0,1,0-2.9h33.69a1.45,1.45,0,0,1,0,2.9Z"/><path class="cls-8" d="M215,205.35H199.62a1.45,1.45,0,0,1,0-2.9H215a1.45,1.45,0,1,1,0,2.9Z"/><path class="cls-9" d="M188,205.35H168.51a1.45,1.45,0,0,1,0-2.9H188a1.45,1.45,0,0,1,0,2.9Z"/><path class="cls-8" d="M139.83,219.83H104.9a1.45,1.45,0,1,1,0-2.89h34.93a1.45,1.45,0,1,1,0,2.89Z"/><path class="cls-8" d="M175.46,219.83H151.12a1.45,1.45,0,0,1,0-2.89h24.34a1.45,1.45,0,1,1,0,2.89Z"/><path class="cls-8" d="M215,118.41H197.06a1.45,1.45,0,1,1,0-2.9H215a1.45,1.45,0,1,1,0,2.9Z"/><path class="cls-10" d="M111.93,118.41h-7a1.45,1.45,0,1,1,0-2.9h7a1.45,1.45,0,0,1,0,2.9Z"/><path class="cls-10" d="M111.93,132.9h-7a1.45,1.45,0,1,1,0-2.9h7a1.45,1.45,0,1,1,0,2.9Z"/><path class="cls-10" d="M111.93,161.88h-7a1.45,1.45,0,0,1,0-2.9h7a1.45,1.45,0,0,1,0,2.9Z"/><path class="cls-10" d="M111.93,190.85h-7a1.45,1.45,0,1,1,0-2.89h7a1.45,1.45,0,1,1,0,2.89Z"/><path class="cls-10" d="M111.93,205.35h-7a1.45,1.45,0,0,1,0-2.9h7a1.45,1.45,0,0,1,0,2.9Z"/><path class="cls-11" d="M236.26,260.4h21.26a5.57,5.57,0,0,0,5.31-5.79v-8.7H231v8.7A5.57,5.57,0,0,0,236.26,260.4Z"/><polygon class="cls-12" points="246.89 106.83 229.5 101.03 229.5 241.57 246.89 241.57 246.89 106.83 246.89 106.83"/><polygon class="cls-13" points="264.28 101.03 246.89 106.83 246.89 241.57 264.28 241.57 264.28 101.03"/><polygon class="cls-14" points="257.33 90.61 246.89 94.09 236.45 90.61 229.5 101.03 246.89 106.83 264.28 101.03 257.33 90.61"/><path class="cls-15" d="M257.33,90.61l-10-14.94a.58.58,0,0,0-1,0l-10,14.94,10.44,3.48Z"/><path class="cls-16" d="M262.83,245.91H231a1.44,1.44,0,0,1-1.45-1.45v-2.89h34.78v2.89A1.44,1.44,0,0,1,262.83,245.91Z"/></g></g></svg>