<svg xmlns="http://www.w3.org/2000/svg" xmlns:xlink="http://www.w3.org/1999/xlink" viewBox="0 0 160 61"><defs><style>.cls-1{stroke-miterlimit:10;stroke-width:7px;stroke:url(#linear-gradient);}.cls-2{fill:#fff;}</style><linearGradient id="linear-gradient" x1="80" x2="80" y2="61" gradientUnits="userSpaceOnUse"><stop offset="0.1" stop-color="#8a04ed"/><stop offset="0.13" stop-color="#900ded"/><stop offset="0.17" stop-color="#a127ee"/><stop offset="0.22" stop-color="#bd50f0"/><stop offset="0.28" stop-color="#e489f1"/><stop offset="0.3" stop-color="#ef9af2"/><stop offset="0.32" stop-color="#df8fe8"/><stop offset="0.37" stop-color="#b672cf"/><stop offset="0.43" stop-color="#7343a6"/><stop offset="0.5" stop-color="#240c76"/><stop offset="0.7" stop-color="#570296"/><stop offset="0.9" stop-color="#831187"/></linearGradient></defs><g id="Layer_2" data-name="Layer 2"><g id="Layer_1-2" data-name="Layer 1"><path class="cls-1" d="M156.5,30.5a27,27,0,0,1-27,27h-99a27,27,0,0,1-27-27h0a27,27,0,0,1,27-27h99a27,27,0,0,1,27,27"/><path class="cls-2" d="M62.36,22.76V38.05H59.85V31.36H52.66v6.69H50.15V22.76h2.51v6.55h7.19V22.76Z"/><path class="cls-2" d="M67.82,37.46a5.56,5.56,0,0,1-2.18-2.2A6.59,6.59,0,0,1,64.85,32a6.5,6.5,0,0,1,.81-3.27,5.53,5.53,0,0,1,2.22-2.2,6.81,6.81,0,0,1,6.29,0,5.62,5.62,0,0,1,2.23,2.2A6.5,6.5,0,0,1,77.21,32a6.33,6.33,0,0,1-.84,3.28,5.68,5.68,0,0,1-2.27,2.21,6.57,6.57,0,0,1-3.18.78A6.18,6.18,0,0,1,67.82,37.46Zm4.91-1.86a3.46,3.46,0,0,0,1.38-1.38,5.09,5.09,0,0,0,0-4.48,3.34,3.34,0,0,0-1.34-1.37A3.67,3.67,0,0,0,71,27.9a3.6,3.6,0,0,0-1.79.47,3.22,3.22,0,0,0-1.31,1.37A4.74,4.74,0,0,0,67.4,32a4.24,4.24,0,0,0,1,3,3.32,3.32,0,0,0,2.52,1.07A3.7,3.7,0,0,0,72.73,35.6Z"/><path class="cls-2" d="M96.93,26.32a4.25,4.25,0,0,1,1.78,1.76,5.65,5.65,0,0,1,.65,2.82v7.15H96.88V31.27a3.49,3.49,0,0,0-.82-2.5,2.88,2.88,0,0,0-2.22-.87,2.92,2.92,0,0,0-2.23.87,3.49,3.49,0,0,0-.83,2.5v6.78H88.3V31.27a3.49,3.49,0,0,0-.82-2.5,2.88,2.88,0,0,0-2.22-.87,2.92,2.92,0,0,0-2.23.87,3.49,3.49,0,0,0-.83,2.5v6.78H79.7V25.92h2.5v1.39a4.13,4.13,0,0,1,1.57-1.17,5.07,5.07,0,0,1,2-.41,5.42,5.42,0,0,1,2.6.61,4.31,4.31,0,0,1,1.76,1.78,4,4,0,0,1,1.71-1.74,5,5,0,0,1,2.51-.65A5.37,5.37,0,0,1,96.93,26.32Z"/><path class="cls-2" d="M113.58,32.92h-9.27a3.35,3.35,0,0,0,3.46,3.21,2.93,2.93,0,0,0,2.86-1.69h2.7a5.44,5.44,0,0,1-2,2.74,5.84,5.84,0,0,1-3.57,1.06,6.23,6.23,0,0,1-3.12-.78,5.55,5.55,0,0,1-2.15-2.2,6.7,6.7,0,0,1-.78-3.29,6.79,6.79,0,0,1,.76-3.28,5.23,5.23,0,0,1,2.13-2.19,6.78,6.78,0,0,1,6.22,0,5.34,5.34,0,0,1,2.09,2.1,6.45,6.45,0,0,1,.74,3.12A9.18,9.18,0,0,1,113.58,32.92Zm-2.53-2a2.9,2.9,0,0,0-1-2.23,3.59,3.59,0,0,0-2.4-.83,3.19,3.19,0,0,0-2.22.82,3.41,3.41,0,0,0-1.1,2.24Z"/></g></g></svg>