<svg xmlns="http://www.w3.org/2000/svg" xmlns:xlink="http://www.w3.org/1999/xlink" viewBox="0 0 350 350"><defs><style>.cls-1{stroke-miterlimit:10;stroke-width:14px;stroke:url(#linear-gradient);}.cls-2{fill:#fff;}</style><linearGradient id="linear-gradient" x1="175" x2="175" y2="350" gradientUnits="userSpaceOnUse"><stop offset="0.1" stop-color="#8a04ed"/><stop offset="0.13" stop-color="#900ded"/><stop offset="0.17" stop-color="#a127ee"/><stop offset="0.22" stop-color="#bd50f0"/><stop offset="0.28" stop-color="#e489f1"/><stop offset="0.3" stop-color="#ef9af2"/><stop offset="0.32" stop-color="#df8fe8"/><stop offset="0.37" stop-color="#b672cf"/><stop offset="0.43" stop-color="#7343a6"/><stop offset="0.5" stop-color="#240c76"/><stop offset="0.7" stop-color="#570296"/><stop offset="0.9" stop-color="#831187"/></linearGradient></defs><g id="Layer_2" data-name="Layer 2"><g id="Layer_1-2" data-name="Layer 1"><g id="DarkB-WhiteF"><circle class="cls-1" cx="175" cy="175" r="168"/><path class="cls-2" d="M246.59,193.6q-3.26-9.39-12.38-16.57l34.41-18.61q8.11-4.36,11.19-11.19,2.55-5.73,2.47-15.72H193.39L180.49,153h64.14l-47.15,24.67q9.69,7.46,14.24,16H171.4v0H160.49l-15.38-33.22q48.26-18.71,48.25-43.72,0-29.55-46.37-29.55H61L47.68,108.79h87.1q21.53,0,21.52,15.2,0,13.24-17,22a138.83,138.83,0,0,1-13.92,5.64q-11.23,4.2-14.49,4.84L124,119.81H93L62.05,207.42H92.79l18.06-50.75,16.76,37.09q3.49,7.77,5.8,10.08,3.51,3.58,10.25,3.58H176q-2.52,1.7-4.92,3.6-19.9,15.63-21.44,38.52-.67,11.61,6.49,18.4t19.22,6.79q25.62,0,49.36-18.88,14.31-11.39,20.49-24.34h31.4q11.86,0,16-13.66H249.42a48.14,48.14,0,0,0,.5-6.91,29.47,29.47,0,0,0-.17-3.68h52.61q11.86,0,16-13.66Zm-40.22,52.05q-13.25,15.66-25.54,15.67-6.66,0-6.66-7.52,0-10.59,13.15-27.49a54.38,54.38,0,0,1,13.84-12.13q9.3-6.06,16.73-6.92a11.08,11.08,0,0,1,1.46,3,34.65,34.65,0,0,1,.25,4.27Q219.6,230,206.37,245.65Z"/></g></g></g></svg>