<svg xmlns="http://www.w3.org/2000/svg" xmlns:xlink="http://www.w3.org/1999/xlink" viewBox="0 0 350 350"><defs><style>.cls-1{fill:#fff;stroke-miterlimit:10;stroke-width:14px;stroke:url(#linear-gradient);}.cls-2{fill:url(#Áåçûìÿííûé_ãðàäèåíò_84);}.cls-3{fill:url(#Áåçûìÿííûé_ãðàäèåíò_8);}.cls-4{fill:url(#Áåçûìÿííûé_ãðàäèåíò_98);}.cls-5{fill:url(#Áåçûìÿííûé_ãðàäèåíò_8-2);}.cls-6{fill:url(#Áåçûìÿííûé_ãðàäèåíò_29);}.cls-7{fill:url(#Áåçûìÿííûé_ãðàäèåíò_29-2);}.cls-8{fill:url(#Áåçûìÿííûé_ãðàäèåíò_29-3);}.cls-9{fill:#fc95a2;}.cls-10{fill:#ee87a1;}.cls-11{fill:#c6acbd;}.cls-12{fill:#faf2fc;}</style><linearGradient id="linear-gradient" x1="175" x2="175" y2="350" gradientUnits="userSpaceOnUse"><stop offset="0.1" stop-color="#8a04ed"/><stop offset="0.13" stop-color="#900ded"/><stop offset="0.17" stop-color="#a127ee"/><stop offset="0.22" stop-color="#bd50f0"/><stop offset="0.28" stop-color="#e489f1"/><stop offset="0.3" stop-color="#ef9af2"/><stop offset="0.32" stop-color="#df8fe8"/><stop offset="0.37" stop-color="#b672cf"/><stop offset="0.43" stop-color="#7343a6"/><stop offset="0.5" stop-color="#240c76"/><stop offset="0.7" stop-color="#570296"/><stop offset="0.9" stop-color="#831187"/></linearGradient><linearGradient id="Áåçûìÿííûé_ãðàäèåíò_84" x1="41.62" y1="176.04" x2="300.66" y2="176.04" gradientUnits="userSpaceOnUse"><stop offset="0" stop-color="#faf2fc"/><stop offset="1" stop-color="#ffeff6"/></linearGradient><linearGradient id="Áåçûìÿííûé_ãðàäèåíò_8" x1="139.05" y1="255.92" x2="202.37" y2="255.92" gradientUnits="userSpaceOnUse"><stop offset="0" stop-color="#5c3273"/><stop offset="1" stop-color="#a36777"/></linearGradient><linearGradient id="Áåçûìÿííûé_ãðàäèåíò_98" x1="78.61" y1="156.63" x2="262.81" y2="156.63" gradientUnits="userSpaceOnUse"><stop offset="0" stop-color="#c571ee"/><stop offset="1" stop-color="#c352d5"/></linearGradient><linearGradient id="Áåçûìÿííûé_ãðàäèåíò_8-2" x1="90.12" y1="166.7" x2="251.3" y2="166.7" xlink:href="#Áåçûìÿííûé_ãðàäèåíò_8"/><linearGradient id="Áåçûìÿííûé_ãðàäèåíò_29" x1="90.12" y1="106.26" x2="251.3" y2="106.26" gradientUnits="userSpaceOnUse"><stop offset="0" stop-color="#431863"/><stop offset="1" stop-color="#824c71"/></linearGradient><linearGradient id="Áåçûìÿííûé_ãðàäèåíò_29-2" x1="78.61" y1="238.66" x2="262.81" y2="238.66" xlink:href="#Áåçûìÿííûé_ãðàäèåíò_29"/><linearGradient id="Áåçûìÿííûé_ãðàäèåíò_29-3" x1="113.14" y1="266" x2="228.27" y2="266" xlink:href="#Áåçûìÿííûé_ãðàäèåíò_29"/></defs><g id="Layer_2" data-name="Layer 2"><g id="Layer_1-2" data-name="Layer 1"><g id="WhiteB-SolidF"><circle class="cls-1" cx="175" cy="175" r="168"/><path class="cls-2" d="M251.08,65.82c-19.06-4.23-69-7.13-87.51-13.43-45.65-15.55-91-.5-100.66,48.76-3.44,17.55-7.81,56.9-14,73.63C31.71,221,44.53,270.85,92.42,284.24c16.8,4.7,61.87,10.89,78.72,15.42,48.11,12.94,96.87,6,105.09-34.82,3.54-17.54,9.74-76.07,16-92.8C309.37,125.84,302.68,77.27,251.08,65.82Z"/><rect class="cls-3" x="139.05" y="248.73" width="63.32" height="14.39"/><path class="cls-4" d="M80.61,84.67h180.2a2,2,0,0,1,2,2V228.58a0,0,0,0,1,0,0H78.61a0,0,0,0,1,0,0V86.67A2,2,0,0,1,80.61,84.67Z"/><path class="cls-5" d="M90.12,116.33H251.3a0,0,0,0,1,0,0v99.74a1,1,0,0,1-1,1H91.12a1,1,0,0,1-1-1V116.33A0,0,0,0,1,90.12,116.33Z"/><path class="cls-6" d="M91.12,96.19H250.3a1,1,0,0,1,1,1v19.15a0,0,0,0,1,0,0H90.12a0,0,0,0,1,0,0V97.19A1,1,0,0,1,91.12,96.19Z"/><path class="cls-7" d="M78.61,228.58h184.2a0,0,0,0,1,0,0v18.15a2,2,0,0,1-2,2H80.61a2,2,0,0,1-2-2V228.58A0,0,0,0,1,78.61,228.58Z"/><rect class="cls-8" x="113.14" y="263.12" width="115.13" height="5.76" rx="1.44"/><path class="cls-9" d="M238.35,109.14a3,3,0,0,1-2-.83,2.91,2.91,0,0,1-.84-2,2.8,2.8,0,0,1,.84-2,3,3,0,0,1,4.08,0,3,3,0,0,1,.84,2,2.9,2.9,0,0,1-2.88,2.88Z"/><path class="cls-9" d="M221.08,106.26a2.87,2.87,0,0,1,2.88-2.88h0a2.89,2.89,0,0,1,2.88,2.88h0a2.89,2.89,0,0,1-2.88,2.88h0A2.87,2.87,0,0,1,221.08,106.26Z"/><path class="cls-9" d="M209.57,109.14a2.86,2.86,0,0,1-2-.86,2.9,2.9,0,0,1,0-4.06,3,3,0,0,1,4.06,0,2.83,2.83,0,0,1,.87,2,2.94,2.94,0,0,1-.87,2A2.91,2.91,0,0,1,209.57,109.14Z"/><path class="cls-10" d="M108.87,127.85h-7.24a1.44,1.44,0,0,1,0-2.88h7.24a1.44,1.44,0,0,1,0,2.88Z"/><path class="cls-10" d="M108.87,139.36h-7.24a1.44,1.44,0,0,1,0-2.88h7.24a1.44,1.44,0,1,1,0,2.88Z"/><path class="cls-10" d="M108.87,162.38h-7.24a1.44,1.44,0,0,1,0-2.88h7.24a1.44,1.44,0,0,1,0,2.88Z"/><path class="cls-10" d="M108.87,185.41h-7.24a1.44,1.44,0,0,1,0-2.88h7.24a1.44,1.44,0,1,1,0,2.88Z"/><path class="cls-10" d="M108.87,208.44h-7.24a1.44,1.44,0,0,1,0-2.88h7.24a1.44,1.44,0,0,1,0,2.88Z"/><path class="cls-11" d="M222.3,139.36H199a1.44,1.44,0,1,1,0-2.88H222.3a1.44,1.44,0,0,1,0,2.88Z"/><path class="cls-11" d="M170.55,150.87H142a1.44,1.44,0,0,1,0-2.88h28.6a1.44,1.44,0,0,1,0,2.88Z"/><path class="cls-11" d="M173.79,127.85H152.48a1.44,1.44,0,0,1,0-2.88h21.31a1.44,1.44,0,0,1,0,2.88Z"/><path class="cls-11" d="M129.94,196.92H101.63a1.44,1.44,0,1,1,0-2.87h28.31a1.44,1.44,0,1,1,0,2.87Z"/><path class="cls-11" d="M239,162.38H224.9a1.44,1.44,0,0,1,0-2.88H239a1.44,1.44,0,0,1,0,2.88Z"/><path class="cls-11" d="M175.07,185.41H147.86a1.44,1.44,0,0,1,0-2.88h27.21a1.44,1.44,0,0,1,0,2.88Z"/><path class="cls-12" d="M120.19,173.89H101.63a1.44,1.44,0,1,1,0-2.87h18.56a1.44,1.44,0,1,1,0,2.87Z"/><path class="cls-12" d="M159.56,173.89H132.47a1.44,1.44,0,1,1,0-2.87h27.09a1.44,1.44,0,1,1,0,2.87Z"/><path class="cls-12" d="M141.17,127.85H117.38a1.44,1.44,0,0,1,0-2.88h23.79a1.44,1.44,0,1,1,0,2.88Z"/><path class="cls-12" d="M150.67,139.36H117.38a1.44,1.44,0,0,1,0-2.88h33.29a1.44,1.44,0,1,1,0,2.88Z"/><path class="cls-12" d="M187.65,139.36H162a1.44,1.44,0,1,1,0-2.88h25.66a1.44,1.44,0,1,1,0,2.88Z"/><path class="cls-12" d="M151.44,162.38H117.38a1.44,1.44,0,0,1,0-2.88h34.06a1.44,1.44,0,0,1,0,2.88Z"/><path class="cls-12" d="M185.7,162.38H162.76a1.44,1.44,0,0,1,0-2.88H185.7a1.44,1.44,0,0,1,0,2.88Z"/><path class="cls-12" d="M213.59,162.38H197a1.44,1.44,0,0,1,0-2.88h16.58a1.44,1.44,0,0,1,0,2.88Z"/><path class="cls-12" d="M164.19,196.92H141.25a1.44,1.44,0,1,1,0-2.87h22.94a1.44,1.44,0,1,1,0,2.87Z"/><path class="cls-12" d="M182.32,208.44H159.38a1.44,1.44,0,0,1,0-2.88h22.94a1.44,1.44,0,0,1,0,2.88Z"/><path class="cls-12" d="M211,208.44H193.84a1.44,1.44,0,0,1,0-2.88H211a1.44,1.44,0,0,1,0,2.88Z"/><path class="cls-12" d="M197.84,196.92H175.5a1.44,1.44,0,1,1,0-2.87h22.34a1.44,1.44,0,1,1,0,2.87Z"/><path class="cls-12" d="M130.64,150.87h-29a1.44,1.44,0,0,1,0-2.88h29a1.44,1.44,0,1,1,0,2.88Z"/><path class="cls-12" d="M200.14,150.87H181.86a1.44,1.44,0,0,1,0-2.88h18.28a1.44,1.44,0,1,1,0,2.88Z"/><path class="cls-12" d="M136.55,185.41H117.38a1.44,1.44,0,0,1,0-2.88h19.17a1.44,1.44,0,0,1,0,2.88Z"/><path class="cls-12" d="M148.07,208.44H117.38a1.44,1.44,0,0,1,0-2.88h30.69a1.44,1.44,0,0,1,0,2.88Z"/><path class="cls-12" d="M206.14,185.41H187.41a1.44,1.44,0,0,1,0-2.88h18.73a1.44,1.44,0,1,1,0,2.88Z"/><path class="cls-12" d="M239,185.41H218.48a1.44,1.44,0,0,1,0-2.88H239a1.44,1.44,0,0,1,0,2.88Z"/><path class="cls-12" d="M201.52,127.85H185.1a1.44,1.44,0,0,1,0-2.88h16.42a1.44,1.44,0,0,1,0,2.88Z"/><path class="cls-12" d="M239.79,127.85h-27a1.44,1.44,0,0,1,0-2.88h27a1.44,1.44,0,0,1,0,2.88Z"/></g></g></g></svg>