<svg xmlns="http://www.w3.org/2000/svg" xmlns:xlink="http://www.w3.org/1999/xlink" viewBox="0 0 160 61"><defs><style>.cls-1{fill:#fff;stroke-miterlimit:10;stroke-width:7px;stroke:url(#linear-gradient);}</style><linearGradient id="linear-gradient" x1="80" x2="80" y2="61" gradientUnits="userSpaceOnUse"><stop offset="0.1" stop-color="#8a04ed"/><stop offset="0.13" stop-color="#900ded"/><stop offset="0.17" stop-color="#a127ee"/><stop offset="0.22" stop-color="#bd50f0"/><stop offset="0.28" stop-color="#e489f1"/><stop offset="0.3" stop-color="#ef9af2"/><stop offset="0.32" stop-color="#df8fe8"/><stop offset="0.37" stop-color="#b672cf"/><stop offset="0.43" stop-color="#7343a6"/><stop offset="0.5" stop-color="#240c76"/><stop offset="0.7" stop-color="#570296"/><stop offset="0.9" stop-color="#831187"/></linearGradient></defs><g id="Layer_2" data-name="Layer 2"><g id="Layer_1-2" data-name="Layer 1"><path class="cls-1" d="M156.5,30.5a27,27,0,0,1-27,27h-99a27,27,0,0,1-27-27h0a27,27,0,0,1,27-27h99a27,27,0,0,1,27,27"/><path d="M47.75,27.55A4.15,4.15,0,0,1,46,29.23a6.45,6.45,0,0,1-3.1.65H40.11v6.21h-2.5V20.8h5.28a6.74,6.74,0,0,1,3,.6A4.23,4.23,0,0,1,47.69,23a4.43,4.43,0,0,1,.61,2.31A4.69,4.69,0,0,1,47.75,27.55ZM45,27.19a2.37,2.37,0,0,0,.7-1.84c0-1.67-.94-2.51-2.83-2.51H40.11v5h2.78A3.07,3.07,0,0,0,45,27.19Z"/><path d="M54.67,24.28a4.37,4.37,0,0,1,2.16-.51v2.59H56.2a3.06,3.06,0,0,0-2.24.75,3.62,3.62,0,0,0-.76,2.6v6.38H50.7V24h2.5v1.76A4,4,0,0,1,54.67,24.28Z"/><path d="M61.3,35.5a5.62,5.62,0,0,1-2.18-2.2A6.58,6.58,0,0,1,58.33,30a6.51,6.51,0,0,1,.81-3.28,5.62,5.62,0,0,1,2.23-2.2,6.33,6.33,0,0,1,3.14-.77,6.39,6.39,0,0,1,3.15.77,5.53,5.53,0,0,1,2.22,2.2A6.51,6.51,0,0,1,70.69,30a6.31,6.31,0,0,1-.83,3.27,5.77,5.77,0,0,1-2.28,2.21,6.47,6.47,0,0,1-3.18.79A6.11,6.11,0,0,1,61.3,35.5Zm4.92-1.85a3.52,3.52,0,0,0,1.37-1.39A4.47,4.47,0,0,0,68.12,30a4.55,4.55,0,0,0-.51-2.24,3.34,3.34,0,0,0-1.34-1.37,3.65,3.65,0,0,0-1.8-.46,3.56,3.56,0,0,0-1.79.46,3.22,3.22,0,0,0-1.31,1.37A4.66,4.66,0,0,0,60.88,30a4.28,4.28,0,0,0,1,3,3.32,3.32,0,0,0,2.52,1.07A3.84,3.84,0,0,0,66.22,33.65Z"/><path d="M75.69,38.46a3.35,3.35,0,0,1-.89,2.59,3.79,3.79,0,0,1-2.59.8h-1.3V39.74h.86a1.56,1.56,0,0,0,1.09-.3,1.28,1.28,0,0,0,.32-1V24h2.51ZM73.31,21.9a1.61,1.61,0,0,1,1.15-2.75,1.52,1.52,0,0,1,1.12.46,1.66,1.66,0,0,1,0,2.29,1.52,1.52,0,0,1-1.12.46A1.55,1.55,0,0,1,73.31,21.9Z"/><path d="M90,31H80.75a3.31,3.31,0,0,0,1.08,2.33,3.36,3.36,0,0,0,2.37.88,2.93,2.93,0,0,0,2.86-1.69h2.71a5.5,5.5,0,0,1-2,2.74,5.87,5.87,0,0,1-3.58,1.07,6.07,6.07,0,0,1-3.11-.79,5.51,5.51,0,0,1-2.16-2.2A6.68,6.68,0,0,1,78.15,30a6.8,6.8,0,0,1,.76-3.29A5.35,5.35,0,0,1,81,24.54a6.3,6.3,0,0,1,3.16-.77,6.17,6.17,0,0,1,3.06.75,5.22,5.22,0,0,1,2.09,2.1,6.31,6.31,0,0,1,.75,3.11A7.63,7.63,0,0,1,90,31Zm-2.53-2a2.86,2.86,0,0,0-1-2.22,3.55,3.55,0,0,0-2.4-.84,3.19,3.19,0,0,0-2.22.83,3.41,3.41,0,0,0-1.1,2.23Z"/><path d="M92.48,26.73a5.41,5.41,0,0,1,2.1-2.19,6.75,6.75,0,0,1,6.73.27,5.11,5.11,0,0,1,1.94,3h-2.7a2.79,2.79,0,0,0-1.06-1.4,3.09,3.09,0,0,0-1.83-.51A3,3,0,0,0,95.21,27,4.59,4.59,0,0,0,94.3,30a4.63,4.63,0,0,0,.91,3.05,3,3,0,0,0,2.45,1.1,2.78,2.78,0,0,0,2.89-1.91h2.7a5.43,5.43,0,0,1-2,2.94,5.87,5.87,0,0,1-3.61,1.09,6,6,0,0,1-3.08-.79,5.5,5.5,0,0,1-2.1-2.2A6.9,6.9,0,0,1,91.73,30,6.91,6.91,0,0,1,92.48,26.73Z"/><path d="M108.69,26v6.71a1.26,1.26,0,0,0,.32,1,1.55,1.55,0,0,0,1.08.3h1.54v2.09h-2a3.85,3.85,0,0,1-2.59-.79,3.28,3.28,0,0,1-.9-2.58V26h-1.43V24h1.43V21h2.53v3h2.94v2Z"/><path d="M115.78,35.77A4.53,4.53,0,0,1,114,34.36a3.43,3.43,0,0,1-.7-2h2.59a1.77,1.77,0,0,0,.74,1.29,2.69,2.69,0,0,0,1.68.51,2.86,2.86,0,0,0,1.64-.4,1.22,1.22,0,0,0,.58-1.05,1.06,1.06,0,0,0-.65-1,12.38,12.38,0,0,0-2.05-.73,22,22,0,0,1-2.23-.72,4,4,0,0,1-1.48-1.08,2.8,2.8,0,0,1-.63-1.91,3,3,0,0,1,.57-1.77,3.86,3.86,0,0,1,1.64-1.27,6.13,6.13,0,0,1,2.46-.46,5.08,5.08,0,0,1,3.33,1,3.78,3.78,0,0,1,1.35,2.85h-2.51a1.78,1.78,0,0,0-.66-1.3,2.46,2.46,0,0,0-1.6-.48,2.61,2.61,0,0,0-1.52.37,1.17,1.17,0,0,0-.53,1,1.09,1.09,0,0,0,.35.82,2.55,2.55,0,0,0,.86.51q.51.2,1.5.48a16.28,16.28,0,0,1,2.17.71,4,4,0,0,1,1.46,1.07A2.85,2.85,0,0,1,123,32.7a3.08,3.08,0,0,1-.58,1.85,3.75,3.75,0,0,1-1.61,1.27,6,6,0,0,1-2.46.47A6.19,6.19,0,0,1,115.78,35.77Z"/></g></g></svg>