<svg xmlns="http://www.w3.org/2000/svg" viewBox="0 0 254 586.48"><defs><style>.cls-1{isolation:isolate;}.cls-2{mix-blend-mode:overlay;}.cls-3{fill:#8a04ed;}</style></defs><g class="cls-1"><g id="Layer_2" data-name="Layer 2"><g id="Layer_1-2" data-name="Layer 1"><g class="cls-2"><path class="cls-3" d="M248,248.61l-4.24-38.15a4.14,4.14,0,0,0-1.1-8.13c-.14,0-.27,0-.41,0l-22.19-59a7.31,7.31,0,0,0-5.55-12.87l-20.9-43.45a43.11,43.11,0,0,0-34.31-29.89L126.25,32.54a4.14,4.14,0,0,0-7-4.35L80.58,8.89a7.74,7.74,0,0,0,.09-1.08A7.33,7.33,0,0,0,66.44,5.32l-31-3.44A4.14,4.14,0,0,0,28.18,5.8L10.13,21A4.13,4.13,0,1,0,6.81,28.1V82.34A7.32,7.32,0,0,0,6.81,97V242.2l-.5,3a7.33,7.33,0,0,0,.5,14.57V315H6.67a4.15,4.15,0,1,0,0,8.29h.14v80.46a7.33,7.33,0,0,0,0,14.46v129A4.14,4.14,0,0,0,8,555.29a4.06,4.06,0,0,0,1.9-.48L29.17,574.3A7.33,7.33,0,1,0,42,579.15s0-.1,0-.14l32.29-2.82a42.56,42.56,0,0,0,6.22.46,43,43,0,0,0,35.78-19.18c4.6-1.94,16.73-9,24.36-13.48a7.33,7.33,0,1,0,10.28-10.14l19.87-32.28a4.14,4.14,0,0,0,3.9-7.28l19.9-43.22a4.07,4.07,0,0,0,1.26.22,4.13,4.13,0,0,0,1.81-7.86l20.66-60.23a4.15,4.15,0,0,0,2.44-7.89l13.42-48.94a42.81,42.81,0,0,0,4-18.06,44.88,44.88,0,0,0-.39-5.71l8.49-39.47.4,0A7.33,7.33,0,0,0,248,248.61ZM157.19,493.28a8,8,0,0,0,.14-1.47,7.33,7.33,0,0,0-7.33-7.33,7.25,7.25,0,0,0-2.14.32l-4-10.42,7.06-3.62,18.66,24.11a4.05,4.05,0,0,0-1.16,2.16Zm-38.25,21.14L130,506.58l13,26.87a7.31,7.31,0,0,0-3.56,5l-16.08-1.86c.07-1,.11-1.93.11-2.9A42.7,42.7,0,0,0,118.94,514.42ZM23.12,500.5l8.65-28.86c.21.05.42.08.63.11l-1.65,28a4.13,4.13,0,0,0-1.63,7.58l-3.7,7.31Zm1.53,15.63L9.4,546.24l13.06-43.55ZM10.79,318.91l14-10.15,5.44,16.09a43.34,43.34,0,0,0-8.44,9.08l-11.54-12.7a4.09,4.09,0,0,0,.58-2.08C10.81,319.06,10.79,319,10.79,318.91ZM188.93,122.45l19.61,12.61a7.22,7.22,0,0,0-.26,4.73L174.39,150.4l-3.19-12A43.26,43.26,0,0,0,188.93,122.45Zm28.86,73.08,21.1,9.26a4.17,4.17,0,0,0-.37,1.69,4,4,0,0,0,.51,1.94l-25.27,14-7.45-6.85A31.87,31.87,0,0,0,217.79,195.53Zm22.57,56.55-19.18-5.42a7.58,7.58,0,0,0,.15-1.51,7.27,7.27,0,0,0-1.66-4.65l4.93-6.82,17.69,16.26A7.46,7.46,0,0,0,240.36,252.08Zm-45.19,13.23a43,43,0,0,0-34.36,17.17l-6.9-7.55,4.5-8a4,4,0,0,0,1.59.32,4.13,4.13,0,0,0,4.07-4.94l43.31-14.06a7.36,7.36,0,0,0,4.6,3.9l-3.28,15.32A42.68,42.68,0,0,0,195.17,265.31Zm20.39,111.86-32.15-11.12,3.2-10.93,29.27,21.55A5.29,5.29,0,0,0,215.56,377.17Zm-33.1-11.45-14.56-5a4.24,4.24,0,0,0,.1-.88,4.12,4.12,0,0,0-2.05-3.55l6.66-11.36.65.4,12.5,9.19Zm-13.55,9.11c-.89,0-1.78,0-2.66.11l-2-11a4.15,4.15,0,0,0,3.36-2.29l14.61,5.05-2.89,9.89A31.62,31.62,0,0,0,168.91,374.83Zm1.54,63.78.24,10-29.45,2.31a7,7,0,0,0,.09-1.12A7.31,7.31,0,0,0,138.5,444l11-12a31.73,31.73,0,0,0,19.41,6.61C169.43,438.65,169.94,438.63,170.45,438.61Zm-27.78,53.2a7.3,7.3,0,0,0,1.08,3.82l-13.35,9.45-7.64-15.79a4.13,4.13,0,0,0,1.91-3.48,4.27,4.27,0,0,0-.27-1.43l18.6-9.54,3.93,10.32A7.33,7.33,0,0,0,142.67,491.81Zm-110.92,7.9,1.65-27.9a7.28,7.28,0,0,0,3.91-1.18l14.49,22.5-17,8.49A4.13,4.13,0,0,0,31.75,499.71Zm25.42-98.4a42.79,42.79,0,0,0,11.33-1.53l2.34,11.38-28.37,8.35A4.13,4.13,0,0,0,40,417.23l3.7-18.1A42.65,42.65,0,0,0,57.17,401.31ZM41,318.47,37,304.3a4.17,4.17,0,0,0,1.91-1.66l9.23,4.23,1.16,9.19A42.07,42.07,0,0,0,41,318.47Zm-14.58-233-12,2.31a7.56,7.56,0,0,0-1-2.22l21.71-26,3,3.75A31.85,31.85,0,0,0,26.45,85.46ZM9.73,82.72,21,41.85,34.49,58.78l-21.71,26A7.32,7.32,0,0,0,9.73,82.72ZM72.79,34.08,95.88,50.92l-35-14.34a7.5,7.5,0,0,0,.37-2.08ZM205.51,216.15l7.33,6.73-27.49,15.18a4.11,4.11,0,0,0-2.36-1.6l1.67-13.85c.52,0,1.05,0,1.58,0A31.73,31.73,0,0,0,205.51,216.15Zm1.5,31.21-43.26,14c0-.09-.1-.18-.15-.27l16-17.3a4.05,4.05,0,0,0,2.42.79,4.13,4.13,0,0,0,4-3.05l20.71,3c0,.18,0,.37,0,.56A7.35,7.35,0,0,0,207,247.36Zm-54.59,65.55-17,.33a4.12,4.12,0,0,0-1.63-2.75l9.83-17.38,10.16,3.58a42.85,42.85,0,0,0-1.61,11.62A41,41,0,0,0,152.42,312.91Zm14,27.35a43.57,43.57,0,0,0,5.35,4.1L165,355.86a3.84,3.84,0,0,0-1.18-.19,4,4,0,0,0-1.95.51l-14.42-20.39,8.12-3.5Zm-33.21,44.3L121.84,380l2.47-13.19,12.44,14.81Zm4.17-2.19,4.88,5.81-8-3.21Zm-14.75,99.89,11-25.13.34,0a7.59,7.59,0,0,0,2.14-.32l6.5,17.07L124,483.49A4.08,4.08,0,0,0,122.63,482.26ZM93.4,472.33a28.57,28.57,0,0,1-10.49,2A28.94,28.94,0,1,1,98.11,470ZM34.72,457.28,38,430.35l13.63,8.53a31.91,31.91,0,0,0,13.15,32.79l-24.27-5.94a7.25,7.25,0,0,0-5.83-8.45Zm4-32a4.14,4.14,0,0,0,4.14-4.14,3.73,3.73,0,0,0-.07-.68L71,412.15l.69,3.37a32,32,0,0,0-19.82,22.33l-13.74-8.59.49-4ZM37,296.66l5.49-19a7.22,7.22,0,0,0,1.55.17l.42,0,3.52,27.91-8.67-4a4.31,4.31,0,0,0,.21-1.25A4.17,4.17,0,0,0,37,296.66ZM14.65,252.23l35.36-5-4.51,16a7.41,7.41,0,0,0-1.5-.15,7.32,7.32,0,0,0-6.34,3.66L14.12,255.26a7.37,7.37,0,0,0,.55-2.78A2.11,2.11,0,0,0,14.65,252.23ZM70.5,236a42.68,42.68,0,0,0,13-2l1.91,7.29-34,4.78,3.64-13A42.78,42.78,0,0,0,70.5,236Zm-5.35-85.66-.89-8.47a4.15,4.15,0,0,0,3.21-3.9l26.63-2.33a7.34,7.34,0,0,0,2.5,4.46l-7.8,14a42.75,42.75,0,0,0-23.65-3.76Zm-31.88-20.9,29.26,1.78.12,2.54a4.13,4.13,0,0,0-3.18,2.59l-26.26-6.56Zm48.32-19.63,15.29,18.87a7.36,7.36,0,0,0-2.49,3.48l-30.9-1.88L63,119.62A31.85,31.85,0,0,0,81.59,109.79Zm12.54,23.34a7.53,7.53,0,0,0-.13,1.35c0,.05,0,.09,0,.14L67.39,137a4.14,4.14,0,0,0-3.74-3.25l-.11-2.43Zm3.28,7.54a7.34,7.34,0,0,0,6.86.53l14,26.8-10.6,3.33A43.31,43.31,0,0,0,89.7,154.52ZM118.7,168.9l5.63,10.82a4.15,4.15,0,0,0-1.81,3.43c0,.11,0,.22,0,.33l-9.72,2a42.65,42.65,0,0,0-4.69-13.27Zm60.15,74.25L163,260.31a4.22,4.22,0,0,0-1.53-1l6.86-20.57,9.53,1.59c0,.06,0,.12,0,.18A4.13,4.13,0,0,0,178.85,243.15Zm-18.35,15.9a4,4,0,0,0-.5-.05,4.18,4.18,0,0,0-2.34.72l-11.95-19.59a7.36,7.36,0,0,0,3.42-4.62l18.21,3Zm-.15,98.56-26.48-12.47a7,7,0,0,0-.18-3.41l12.85-5.54,14.54,20.56A4.27,4.27,0,0,0,160.35,357.61ZM126.67,187.29a4.17,4.17,0,0,0,.71-.07l12,39.74a7.44,7.44,0,0,0-2.94,2.06l-18.13-12.77,7.76-29A3.68,3.68,0,0,0,126.67,187.29ZM97.41,249.66H97l12.57-4.4-1.6,6,1,.26,1.78-6.64,10.89-3.81,6.1,6.67-10.56,8.76A31.77,31.77,0,0,0,97.41,249.66Zm25.19-9,12.52-4.38a7.29,7.29,0,0,0,2.36,3.26l-9,7.51Zm12.23-5.34-13,4.54-2.22-2.44,15.18-2.13Zm1-5.54a7.28,7.28,0,0,0-1.19,4c0,.18,0,.35,0,.53l-15.87,2.23-4.58-5,3.82-14.28Zm-18.24,6.92-5,.69,1.26-4.72Zm.81.89,2.41,2.63L111,243.7l1.4-5.22Zm-8.58,6.47L93.14,250a32.83,32.83,0,0,0-4.24.87l-2.29-8.71,24.7-3.48Zm-43.21,29L51.31,271c0-.17,0-.35,0-.52a7.32,7.32,0,0,0-1.42-4.34l28-9.79A32,32,0,0,0,66.64,273.15ZM51.18,272l15.21,2.13a31.83,31.83,0,0,0,12.86,33.67l-1.12,2.52-29-34.56A7.39,7.39,0,0,0,51.18,272Zm17.32,9.58a28.91,28.91,0,1,1,28.91,28.91A28.94,28.94,0,0,1,68.5,281.57Zm61.88,36.27-1.16,10.33-6.82,1.23-7.61-21.09a32.45,32.45,0,0,0,6.11-5.16l7.3,8a4.09,4.09,0,0,0-1,2.68A4.15,4.15,0,0,0,130.38,317.84ZM121,339.16l-13.33-6.1,14.07-2.53,2.32,6.43A7.34,7.34,0,0,0,121,339.16Zm5.67-2.68a7.45,7.45,0,0,0-1.65.19l-2.28-6.32,6.36-1.14-.83,7.45A7.07,7.07,0,0,0,126.67,336.48Zm-12.75-27.61,7.48,20.71-14.18,2.55-3-19.39A31.8,31.8,0,0,0,113.92,308.87ZM120.41,340a7.26,7.26,0,0,0-1.08,3.81,7.47,7.47,0,0,0,.12,1.26l-9.84,2.42-2.08-13.4Zm-.73,6.05a7.32,7.32,0,0,0,6.55,5.07l-2.51,13.44L110.13,348.4Zm13.66-5.26a7.36,7.36,0,0,0-4.1-3.84l.89-7.92,10.07-1.81,5.75,8.14ZM130.25,328l1.12-10a4,4,0,0,0,1.92-.5l6.27,8.87Zm1.08-18.32a4.14,4.14,0,0,0-2.4.77l-7.37-8.05a31.83,31.83,0,0,0,7.13-14.53l5.35,1.88-2.66,19.93Zm-2.46-22.8a31.8,31.8,0,0,0-11-29.74l10.44-8.66,9.78,10.68-4,29.58Zm.24-39,9.23-7.67a7.32,7.32,0,0,0,2.2.84l-2.25,16.86ZM142,226.48a7.43,7.43,0,0,0-1.64.19l-12-39.73a4.18,4.18,0,0,0,2.19-2.28l14.82,3.86-3.21,38ZM126.67,179a3.86,3.86,0,0,0-1.45.28l-5.56-10.68,12.81-4-5,14.5A4,4,0,0,0,126.67,179ZM113.5,193a43.66,43.66,0,0,0-.49-6.51l9.74-2a4.15,4.15,0,0,0,2.37,2.53l-7.66,28.65-7.61-5.36A42.73,42.73,0,0,0,113.5,193Zm-4.07,18.23,7.76,5.46-3.75,14-9.64-10.54A42.65,42.65,0,0,0,109.43,211.21Zm-6.28,9.71,10,10.91-1.54,5.75-25.23,3.55-2-7.47A43.19,43.19,0,0,0,103.15,220.92ZM85.62,242.25l2.32,8.84a31.86,31.86,0,0,0-6.88,3.09L49.21,265.33a7.15,7.15,0,0,0-2.75-1.75l4.63-16.47ZM45.41,277.67a7.33,7.33,0,0,0,2.91-1.27l29.35,34.93-3,6.64L49,306.19Zm33,34.51,10.2,12.14-13-5.93Zm.45-1,1.25-2.81a31.76,31.76,0,0,0,23.14,4.59l3,19.36-.16,0-15.36-7Zm25.52,21.48-6.49,1.17-5.65-6.73Zm1.59.73.49.22,2,12.77-9.81-11.67Zm17.53,32.46-2.59,13.81L114.18,377,110,349.74Zm-2.77,14.81-1.86,9.89a7.92,7.92,0,0,0-.85,0,7.24,7.24,0,0,0-1.69.2l-2-12.58ZM112.85,403l-11.18,16.58a31.81,31.81,0,0,0-29-4.43L72,411.86l39.13-11.51A7.22,7.22,0,0,0,112.85,403Zm2,43,12.26,1.39a7.33,7.33,0,0,0,1.3,7l-.45.58L108.06,465A31.67,31.67,0,0,0,114.8,446.07Zm12.66.43-12.65-1.43A31.65,31.65,0,0,0,112,432.23l14.11-6.48,5.3,17.22A7.39,7.39,0,0,0,127.46,446.5Zm-15.92-15.18a32.15,32.15,0,0,0-9.07-11.1l11.15-16.54a7.24,7.24,0,0,0,4.38,1.47,7.63,7.63,0,0,0,1.67-.2l6.11,19.83Zm8.3-40.6,1.81-9.7,10.68,4.27-9,7.47A7.41,7.41,0,0,0,119.84,390.72Zm4.71-25.17,2.7-14.43a7.45,7.45,0,0,0,3.18-1L144.78,375l-7.26,6Zm6.7-16a7.34,7.34,0,0,0,2.37-3.41l26.32,12.4a4,4,0,0,0-.23,1.29,4.17,4.17,0,0,0,.66,2.24l-14.81,12.27ZM146.89,335,141.28,327l5.75-1,7.63,5.61Zm-6.24-8.83-6.54-9.25a2.39,2.39,0,0,0,.23-.22l11.58,8.52ZM132.92,310a3.22,3.22,0,0,0-.55-.18L135,290.08l7.66,2.7Zm2.22-20.92,3.86-29,13.68,15-9.52,16.82Zm4-30.25,2.36-17.7c.16,0,.31,0,.47,0a7.27,7.27,0,0,0,2.81-.57l12.1,19.83a4.09,4.09,0,0,0,.63,6.06l-4.34,7.68ZM182,236.33a4.16,4.16,0,0,0-4,3l-9.38-1.56,5.79-17.37a31.76,31.76,0,0,0,9.21,2.15Zm-14.34,1.25-18.36-3.06c0-.23,0-.47,0-.71a7.28,7.28,0,0,0-2-5l15.35-16.56A32.18,32.18,0,0,0,173.52,220Zm-21.06-9.47a7.3,7.3,0,0,0-3.47-1.54l3.19-37.79,8,2.08A31.75,31.75,0,0,0,162,211.47Zm7.76-38.28-8-2.06,2-23.69,12.27,7.57A31.72,31.72,0,0,0,154.36,189.83Zm6.95-19L148.51,163l.3-3.5,24.88-7.8,2.35,8.84A31.92,31.92,0,0,0,161.31,170.86Zm-13.75-8.48-2.71-1.67,2.93-.92Zm-.1,1.12-2,24-14.67-3.82a4.93,4.93,0,0,0,.05-.54,4.14,4.14,0,0,0-2.35-3.73l5.19-15.2,9.93-3.11Zm-13.41-.45,2.2-6.46,6.21,3.82Zm-1.18.37-13.68,4.28-14-27a7.26,7.26,0,0,0,2.14-2l28.09,17.31ZM97.72,128.1,82.26,109a31.78,31.78,0,0,0,7.66-17.17l10.24,1.46.55,33.85A7.26,7.26,0,0,0,97.72,128.1ZM90,90.87c.08-.92.13-1.86.13-2.8A31.69,31.69,0,0,0,84.49,70l8.34-9.12,6.87,4.38.44,27.11ZM54.89,56.34l-.34-14.77a7.29,7.29,0,0,0,4.62-2.23L92,60.28,83.9,69.12a31.87,31.87,0,0,0-25.66-13A30.92,30.92,0,0,0,54.89,56.34Zm41.61-1-3.84,4.19-32.85-21a6.63,6.63,0,0,0,.64-1.06L96,52.06a3.94,3.94,0,0,0-.17,1.09A4.13,4.13,0,0,0,96.5,55.34Zm-3,4.74,3.61-3.95a4.16,4.16,0,0,0,2.44,1.12L99.68,64Zm3.38-9.66L74.4,34l13.11-.48,9.56,16.67C97,50.28,97,50.36,96.9,50.42ZM53.54,41.59l.35,14.87a31.89,31.89,0,0,0-15,6.24l-3.12-3.91,15-17.9A7.36,7.36,0,0,0,53.54,41.59Zm4.7,17.57A28.91,28.91,0,1,1,29.33,88.07,28.94,28.94,0,0,1,58.24,59.16Zm0,60.82a31.15,31.15,0,0,0,3.77-.23l.48,10.45-29.16-1.78a7.34,7.34,0,0,0-2.93-5.8l6.85-10.55A31.77,31.77,0,0,0,58.24,120ZM33,130.74l26.27,6.56a4.4,4.4,0,0,0-.05.51A4.14,4.14,0,0,0,63.27,142l.89,8.5a42.69,42.69,0,0,0-19.88,8.49L29.14,135.1A7.32,7.32,0,0,0,33,130.74ZM70.5,153a40,40,0,1,1-40,40A40,40,0,0,1,70.5,153ZM54.1,232.72l-3.79,13.49-35.76,5A7.28,7.28,0,0,0,12,246.79L39.1,222.31A43.12,43.12,0,0,0,54.1,232.72ZM13.67,256.16l23.54,11.55a7.33,7.33,0,0,0,4.28,9.65l-5.5,19a3.51,3.51,0,0,0-.66-.07,4,4,0,0,0-1.7.38L10.74,259A7.34,7.34,0,0,0,13.67,256.16Zm36.56,59.72-1.07-8.52,25.16,11.52h0a42.74,42.74,0,0,0-24.08-3Zm25,3.42,14.87,6.81,6.64,7.9-3.68.66A43.28,43.28,0,0,0,75.23,319.3Zm22.25,15.59,10.85,12.92-9,2.21a42.82,42.82,0,0,0-5.72-14.44Zm2,16.11,9.26-2.27,4.31,27.79-14.74-5.9A42.5,42.5,0,0,0,99.53,351Zm-1.47,20.58,15.22,6.08L115.34,391a7.32,7.32,0,0,0-2.62,1.75L93.07,381.94A42.72,42.72,0,0,0,98.06,371.58ZM92.5,382.77l19.57,10.75a7.24,7.24,0,0,0-1.4,4.29,7.52,7.52,0,0,0,.17,1.59l-39,11.48-2.33-11.37A43.2,43.2,0,0,0,92.5,382.77ZM37.67,425.16l-.43,3.51-20.4-12.76,17.74,4.68a3.31,3.31,0,0,0-.06.56A4.14,4.14,0,0,0,37.67,425.16Zm-23.74-9.89,23.17,14.5-3.37,27.4-.4,0a7.19,7.19,0,0,0-2.79.55L10.8,417.75A7.34,7.34,0,0,0,13.93,415.27ZM38.12,470a7.36,7.36,0,0,0,2.2-3.33l27.24,6.67a31.74,31.74,0,0,0,14.85,3.93v.53L52.7,492.68Zm45.29,7.27h.06l-.06,0Zm23-10.37,20.07-10L107.18,482l-20.32-5A31.88,31.88,0,0,0,106.44,466.93Zm22.12-11.05.79-.4a7.22,7.22,0,0,0,3.27,1.53l-10.91,24.85a4.23,4.23,0,0,0-1.19-.19,4.16,4.16,0,0,0-3.87,2.68l-8.41-2.06Zm8.51.59a7.55,7.55,0,0,0,1.86-1.24L150.33,470l-6.8,3.49Zm.6-13a7.25,7.25,0,0,0-3.67-1,7.07,7.07,0,0,0-1.67.2L127,425.33l12.69-5.82a32.07,32.07,0,0,0,9,11.91Zm-11-19.11-6.06-19.71a7.32,7.32,0,0,0,4.57-5.45l12.38,1.52a31.68,31.68,0,0,0,1.71,17.86Zm11.09-24.62-12.47-1.53c0-.13,0-.26,0-.4a7.33,7.33,0,0,0-1.4-4.31l9.43-7.8,8.88,3.55A31.5,31.5,0,0,0,137.78,399.74Zm.37-18,7.13-5.9,3.54,6.13a32.1,32.1,0,0,0-5.58,5.83Zm11.46-.39-3.55-6.16L161,362.82a4.13,4.13,0,0,0,2.18,1.07L165.26,375A31.76,31.76,0,0,0,149.61,381.35Zm29-33.35a43.06,43.06,0,0,0,8.3,2.51l-.86,3Zm-22-16.17,2-.85a43.34,43.34,0,0,0,3.62,5Zm-.93-.68-7.34-5.4,7-1.25a42.41,42.41,0,0,0,2.78,5.61Zm-8.45-6.22-12.35-9.09a4.22,4.22,0,0,0,.51-1.61l17.1-.32a43,43,0,0,0,2.42,9.64Zm6.77-29.21-9.93-3.49,9.27-16.38,6.83,7.46A42.77,42.77,0,0,0,154.05,295.72Zm64.92-56a7.33,7.33,0,0,0-12.14,3.84l-20.69-3s0-.07,0-.1a4.2,4.2,0,0,0-.31-1.55l27.78-15.34L223.86,233Zm-4.43-16.68,25.06-13.83a4.43,4.43,0,0,0,.91.76l-16.06,22.18Zm-28.3-3.43a28.91,28.91,0,1,1,28.91-28.91A28.94,28.94,0,0,1,186.24,219.65Zm0-60.82A31.8,31.8,0,0,0,177,160.2l-2.34-8.83,34-10.64a7.33,7.33,0,0,0,2.11,2.78L196,160.36A31.93,31.93,0,0,0,186.24,158.83Zm-16-20.05,3.17,11.92-24.54,7.69,1.34-15.8c.75,0,1.5.06,2.26.06A42.58,42.58,0,0,0,170.27,138.78Zm-22.4,19.94-4.15,1.3-7.14-4.4,4.92-14.41a42.85,42.85,0,0,0,7.74,1.3Zm-12.16-3.64-27.89-17.19a7.24,7.24,0,0,0,.15-6.51l11.89-3.79a43.17,43.17,0,0,0,20.67,13.35Zm-28.23-24.59a7.34,7.34,0,0,0-5.77-3.33l-.55-33.69,8.63,1.23a44.91,44.91,0,0,0-.29,5,42.79,42.79,0,0,0,9.66,27.11Zm2.44-36.78-8.78-1.25-.43-26.6L116.61,76A42.83,42.83,0,0,0,109.92,93.71Zm7.25-18.53L100.69,64.66l-.12-7.43a4.1,4.1,0,0,0,3-2l19.67,12.94A43.32,43.32,0,0,0,117.17,75.18ZM124,67.5,104,54.32a4.09,4.09,0,0,0,.19-1.17,4,4,0,0,0-.22-1.26l6-6.74,18.71,18.71A44.79,44.79,0,0,0,124,67.5Zm5.57-4.19-18.91-18.9,9.54-10.63a4.15,4.15,0,0,0,2.49.84,4.07,4.07,0,0,0,2.42-.79l10.33,26.36A43.32,43.32,0,0,0,129.55,63.31ZM119.46,33.08,109.94,43.7,99.34,33.11,119,32.39A4.1,4.1,0,0,0,119.46,33.08ZM109.27,44.44l-5.79,6.46a4.12,4.12,0,0,0-5.61-1.3L88.64,33.5,98,33.16ZM88.08,32.52,77.41,13.91a8.2,8.2,0,0,0,.74-.58L97,32.19ZM73.33,15.15a7.36,7.36,0,0,0,3.21-.75L87,32.56l-13.85.51L62.2,25.12l7.45-11A7.2,7.2,0,0,0,73.33,15.15Zm-1.85,18-10.31.37a7.33,7.33,0,0,0-1.85-4.13L61.64,26ZM58.6,28.66A7.33,7.33,0,0,0,50,28.07L34.74,7.21a4,4,0,0,0,.49-.52l25.6,18.67ZM32,8.29a4.08,4.08,0,0,0,1.94-.5L49.16,28.66a7.29,7.29,0,0,0-2.54,4.62L24.8,27.84,30.27,7.91A4.08,4.08,0,0,0,32,8.29Zm14.56,26a7.32,7.32,0,0,0,3.31,6.13L35.15,58,21.28,40.66,24.54,28.8Zm-26,5.42L10.27,26.9a4.14,4.14,0,0,0,.9-1.42l12.39,3.08Zm-11-12.17,10.7,13.37L8.77,82.45a7.62,7.62,0,0,0-1-.11V28.1A4.26,4.26,0,0,0,9.48,27.52Zm5.19,62.13a8.87,8.87,0,0,0-.06-.9l11.76-2.26c0,.52,0,1.05,0,1.58A31.83,31.83,0,0,0,36.5,111.4l-6.93,10.67a7.32,7.32,0,0,0-3.57-.92,7.19,7.19,0,0,0-2.79.55L10.61,96.2A7.33,7.33,0,0,0,14.67,89.65ZM26,135.81a7.6,7.6,0,0,0,2.2-.33l15.29,24.08a42.92,42.92,0,0,0-5.07,62l-27.3,24.63a7.33,7.33,0,0,0-3.31-1v-2.89l17.5-106.5Q25.66,135.81,26,135.81ZM9.81,259.37l23,37.87a4.08,4.08,0,0,0-1.06,5.24l-6.43,4.67L9.2,259.56A6.17,6.17,0,0,0,9.81,259.37Zm22.5,43.92a4.07,4.07,0,0,0,3,1.33,4.76,4.76,0,0,0,.66-.06l4.11,14.29A43.34,43.34,0,0,0,31,324.19l-5.42-16.05Zm24.86,15a40,40,0,1,1-40,40A40.05,40.05,0,0,1,57.17,318.31Zm-14.45,80.5L39,417l-.33,0a4.13,4.13,0,0,0-3.85,2.62l-20.28-5.35a7.31,7.31,0,0,0-.52-7.48l17.46-14A43.15,43.15,0,0,0,42.72,398.81ZM9.84,418.06l19.81,40.09a7.32,7.32,0,0,0,1.16,13.21l-8.06,26.88L9.67,418.11ZM30,507.73a5.1,5.1,0,0,0,.88.19l3.77,63.43-9-55.05Zm5.68,64.17-3.8-64a4.13,4.13,0,0,0,2.89-1.83l9.42,4.55a42.86,42.86,0,0,0,6.22,53.73L38.62,573A7.35,7.35,0,0,0,35.71,571.9Zm9-62.13-9.53-4.6a4.1,4.1,0,0,0,.25-1.36,3.87,3.87,0,0,0-.23-1.28L52.35,494l3.07,4.77A43.46,43.46,0,0,0,44.76,509.77Zm11.47-11.6-3-4.64L82.41,479v11.74c-.64,0-1.28,0-1.92,0A42.79,42.79,0,0,0,56.23,498.17Zm27.19-7.41V478.45l1.61-.81,21.49,5.26-8.75,11.37A42.71,42.71,0,0,0,83.42,490.76Zm24.15-7.6,8.85,2.17a3.91,3.91,0,0,0,0,.48,4.14,4.14,0,0,0,1.13,2.82l-9.85,11.7a42.79,42.79,0,0,0-9-5.63Zm10.69,6.12a4.07,4.07,0,0,0,2.26.68,4.24,4.24,0,0,0,1.34-.24l7.72,15.94-11.1,7.86A43.27,43.27,0,0,0,108.42,501Zm28.41,43.2a7.35,7.35,0,0,0-2.74.53l-13.08-27,13.47-9.54a7.33,7.33,0,0,0,4.67,2.62l-2.32,33.41Zm23.74-38.22-18.56-24L171,460.47l.81,33.27A4.11,4.11,0,0,0,170.41,494.26Zm-19.18-24.77-11.59-15A7.51,7.51,0,0,0,141,452l29.7-2.33.24,9.74Zm20.49-19.95L191.79,448a3,3,0,0,0,.19.6l-20,10.29Zm20-2.57-20,1.57-.24-10a31.88,31.88,0,0,0,16.42-6.15l5.69,11.31A4.11,4.11,0,0,0,191.73,447Zm-22.82-11.32a28.9,28.9,0,0,1-23.83-45.26l.51.2-.35-.42a28.9,28.9,0,1,1,23.67,45.48Zm11.32-58.74,2.9-9.9,32.06,11.09a4,4,0,0,0-.15,1,4.16,4.16,0,0,0,.66,2.22L196.94,391.5A32.08,32.08,0,0,0,180.23,376.91Zm36.36-1L186.91,354.1l1-3.41a43.37,43.37,0,0,0,7.26.62,42.73,42.73,0,0,0,16.18-3.17l6.86,27A4.06,4.06,0,0,0,216.59,375.94Zm-21.42-27.63a40,40,0,1,1,40-40A40,40,0,0,1,195.17,348.31Zm14.49-80.48L213,252.4a7.17,7.17,0,0,0,1,.08,7.34,7.34,0,0,0,6.9-4.86l19,5.37a7.26,7.26,0,0,0,.07,5.8l-18.25,15.74A42.86,42.86,0,0,0,209.66,267.83ZM247,248.5l-.33,0a7.29,7.29,0,0,0-3.51.89l-18-16.5,16.26-22.45a4.1,4.1,0,0,0,1.22.2h.12Zm-5.73-45.91a4.09,4.09,0,0,0-1.85,1.34l-21.5-9.43a31.24,31.24,0,0,0,.23-3.76,32,32,0,0,0-21.11-30l14.51-16.63a7.24,7.24,0,0,0,7.69-.07Zm-27.76-71.87a7.36,7.36,0,0,0-4.53,3.43L189.46,121.6a42.81,42.81,0,0,0,5.3-29.85Zm-21-31.07a40,40,0,1,1-40-40A40,40,0,0,1,192.5,99.65Zm-40-43a42.81,42.81,0,0,0-16.16,3.16L126.1,33.66l31.17,23.26A41.84,41.84,0,0,0,152.5,56.65ZM118.78,29.09a4,4,0,0,0-.26,1.39,3.93,3.93,0,0,0,.11.92l-20.25.74L78.86,12.63a7.33,7.33,0,0,0,1.5-2.74ZM66.16,6.3A7.51,7.51,0,0,0,66,7.81a7.31,7.31,0,0,0,2.82,5.77l-7.42,11L35.76,5.84a4.16,4.16,0,0,0,.36-1.69,4,4,0,0,0-.2-1.21ZM29.39,7.36,23.83,27.6,11.41,24.51a4.4,4.4,0,0,0,.05-.51,4.15,4.15,0,0,0-.68-2.26L28.71,6.67A4.43,4.43,0,0,0,29.39,7.36ZM7.81,97a7.21,7.21,0,0,0,1.87-.36l12.63,25.56a7.32,7.32,0,0,0,2,13.46L7.81,236.11Zm0,162.84.4,0,16.23,48L10.58,317.82a4.18,4.18,0,0,0-2.77-2.64Zm0,63.32a4.14,4.14,0,0,0,1.81-1.06L21.2,334.79a42.9,42.9,0,0,0,9.47,57.35L13.39,406A7.33,7.33,0,0,0,8,403.64H7.81Zm0,95.19H8c.23,0,.46,0,.68,0l13.41,82.16L8.13,547H8l-.19,0ZM9.9,547.48l15-29.67,8.82,54.07a7.28,7.28,0,0,0-3.87,1.72L10.74,554.24a4.11,4.11,0,0,0-.84-6.76ZM41.9,578a7.32,7.32,0,0,0-2.44-4.41l11.71-8.55A42.94,42.94,0,0,0,70.68,575.5Zm38.6-4.36a40,40,0,1,1,40-40A40,40,0,0,1,80.5,573.65ZM117.24,556a42.76,42.76,0,0,0,6.08-18.42l16,1.85c0,.14,0,.27,0,.41a7.26,7.26,0,0,0,.8,3.32C131.55,548.2,121.86,553.74,117.24,556Zm32.83-22.65a7,7,0,0,0-2.4-.76L150,499.15h0a7.32,7.32,0,0,0,6.91-4.91l11.49,3.83a4.12,4.12,0,0,0,1.55,3Zm23.71-39.44a4.45,4.45,0,0,0-1-.19L172,460l20.45-10.5a4.09,4.09,0,0,0,1.26,1.19Zm22.94-50.79a4.14,4.14,0,0,0-.87-.09,4,4,0,0,0-1.39.26l-5.79-11.5a31.84,31.84,0,0,0,8.73-39.38l18.95-10.23a3.86,3.86,0,0,0,1,.71Zm23.07-68a3.8,3.8,0,0,0-.59-.06l-6.92-27.25A43.32,43.32,0,0,0,232,330.43Zm17.54-75.16a43,43,0,0,0-14.81-24.74l17.93-15.47a7.31,7.31,0,0,0,4.82,3.32Z"/><rect class="cls-3" x="166.45" y="423.87" width="5.24" height="2.62" rx="1.05"/><rect class="cls-3" x="165.45" y="420.09" width="7.24" height="2.62" rx="1.05"/><rect class="cls-3" x="164.06" y="416.16" width="10.02" height="2.62" rx="1.05"/><path class="cls-3" d="M179.05,407.88a13.06,13.06,0,1,0-19.79,0h0l.18.14a13,13,0,0,0,2.52,2.22,6.84,6.84,0,0,1,2.24,4.58h10a6.82,6.82,0,0,1,2.23-4.58,13,13,0,0,0,2.52-2.22l.18-.14Z"/><path class="cls-3" d="M91,449.24l-.09-.32V430.31a.48.48,0,0,0-.62-.45l-14,4.79a.46.46,0,0,0-.32.44v15.62a4.87,4.87,0,0,0-2,0c-2.27.47-3.78,2.39-3.39,4.28s2.54,3,4.81,2.58,3.78-2.38,3.39-4.27c0-.14-.07-.26-.11-.39V438.22a.46.46,0,0,1,.32-.44l8.91-3a.47.47,0,0,1,.62.44v11.48a4.64,4.64,0,0,0-2.26-.07c-2.27.47-3.78,2.38-3.39,4.28s2.54,3.05,4.81,2.58S91.35,451.13,91,449.24Z"/><path class="cls-3" d="M103,522.87H93.22a.45.45,0,0,1-.42-.31L92.06,520a.44.44,0,0,0-.42-.31h-20a.44.44,0,0,0-.42.31l-.74,2.57a.45.45,0,0,1-.42.31H67.22V522H62.79v.89H60.34a.43.43,0,0,0-.43.43v22.56a.43.43,0,0,0,.43.43H103a.44.44,0,0,0,.44-.43V523.3A.44.44,0,0,0,103,522.87ZM81.66,543.72a9.56,9.56,0,1,1,9.55-9.56A9.56,9.56,0,0,1,81.66,543.72Z"/><rect class="cls-3" x="188.8" y="174.71" width="8.15" height="21.74" rx="2.02" transform="translate(187.71 -82.03) rotate(45)"/><path class="cls-3" d="M180.08,188.15h0a1.44,1.44,0,0,1,0-2l13.34-13.34a1.44,1.44,0,0,1,2,0h0a1.44,1.44,0,0,1,0,2L182.1,188.15A1.42,1.42,0,0,1,180.08,188.15Z"/><path class="cls-3" d="M190.3,198.37h0a1.44,1.44,0,0,1,0-2L203.64,183a1.44,1.44,0,0,1,2,0h0a1.44,1.44,0,0,1,0,2l-13.34,13.34A1.44,1.44,0,0,1,190.3,198.37Z"/><path class="cls-3" d="M174,201l-1,3.53a.71.71,0,0,0,.88.87l3.53-.94Z"/><path class="cls-3" d="M190,200l-5.78-5.78-5.78-5.78a.72.72,0,0,0-1.2.32l-2.11,7.89-.91,3.4,4.17,4.17,3.39-.91,7.89-2.11A.72.72,0,0,0,190,200Z"/><path class="cls-3" d="M51.08,375.56h14.6a1.6,1.6,0,0,1,1.6,1.6v4.24a0,0,0,0,1,0,0H49.48a0,0,0,0,1,0,0v-4.24A1.6,1.6,0,0,1,51.08,375.56Z"/><path class="cls-3" d="M61.63,334.24h-.24a.88.88,0,0,0-.88.89v20a6.47,6.47,0,1,1-4.46,0v-20a.88.88,0,0,0-.88-.89h-.24a.89.89,0,0,0-.88.82c-.77,9.22-6.58,18.8-8.34,21.52a2.06,2.06,0,0,0-.26,1.66l3.69,13.29a1.15,1.15,0,0,0,1.1.83H66.32a1.15,1.15,0,0,0,1.1-.83l3.69-13.29a2,2,0,0,0-.26-1.66c-1.76-2.72-7.57-12.3-8.34-21.52A.88.88,0,0,0,61.63,334.24Z"/><path class="cls-3" d="M218.22,310.66c-5.61,4-11.87-4.33-6.43-8.56a12.8,12.8,0,0,1,3.71-1.93c8.78-3.05,7.77-8.51,6.38-9.9,0,0,7.21,8-.28,17.11A17.57,17.57,0,0,1,218.22,310.66Z"/><path class="cls-3" d="M209.33,311.84h0a3.88,3.88,0,0,1,.39,5.44l-19.84,19.07a3.6,3.6,0,0,1-5,0h0a3.59,3.59,0,0,1,0-5.06l19.07-19.84A3.88,3.88,0,0,1,209.33,311.84Z"/><path class="cls-3" d="M179,323.56c8.7,2.74,14.68-5.2,19.2-9.93,1.3-1.35,1.32-3.4-.81-3.93-2.41-.59-6.23-.93-6.23-2.18,0-1.8,2.13-2.09,3.75-3.4a10.13,10.13,0,0,0,1.14-14.41,11.36,11.36,0,0,0-4.54-3.27c-8.94-2.82-18.93,3.77-21.89,14.62C167,310.69,171,321,179,323.56Zm9.44-32.27a2.52,2.52,0,1,1,.53,3.52A2.51,2.51,0,0,1,188.46,291.29Zm-9.37.33a2.52,2.52,0,1,1,.53,3.53A2.53,2.53,0,0,1,179.09,291.62Zm8.25,9.59A3.84,3.84,0,1,1,182,302,3.84,3.84,0,0,1,187.34,301.21ZM173.41,299a2.52,2.52,0,1,1,.53,3.52A2.52,2.52,0,0,1,173.41,299Zm-.86,9.31a2.52,2.52,0,1,1,.53,3.52A2.51,2.51,0,0,1,172.55,308.34Zm5.88,7.46a2.52,2.52,0,1,1,.53,3.52A2.52,2.52,0,0,1,178.43,315.8Z"/><path class="cls-3" d="M49.41,193.76a21.23,21.23,0,0,0,5.15,13,20.46,20.46,0,0,0,6-13Z"/><path class="cls-3" d="M80.22,191.94h12a21.3,21.3,0,0,0-6.08-14.05A20.41,20.41,0,0,0,80.22,191.94Z"/><path class="cls-3" d="M80.27,193.76a20.49,20.49,0,0,0,6.43,13.43,21.32,21.32,0,0,0,5.48-13.43Z"/><path class="cls-3" d="M71.71,191.94H78.4a22.27,22.27,0,0,1,6.37-15.3,21.32,21.32,0,0,0-13.06-5.18Z"/><path class="cls-3" d="M78.45,193.76H71.71v20.48a21.32,21.32,0,0,0,13.71-5.76A22.22,22.22,0,0,1,78.45,193.76Z"/><path class="cls-3" d="M69.88,193.76H62.44a22.25,22.25,0,0,1-6.63,14.38,21.32,21.32,0,0,0,14.07,6.1Z"/><path class="cls-3" d="M69.88,191.94V171.46A21.33,21.33,0,0,0,56.43,177a22.21,22.21,0,0,1,6,15Z"/><path class="cls-3" d="M55.14,178.25a21.31,21.31,0,0,0-5.73,13.69H60.66A20.42,20.42,0,0,0,55.14,178.25Z"/><path class="cls-3" d="M74.33,85.35v.78a.38.38,0,0,1-.28.36l-8.47,3.37c-.16,0-.28.11-.28.21v2.7c0,.1.12.19.28.21l8.47,3.37a.38.38,0,0,1,.28.36v.78a.38.38,0,0,0,.37.38h1.83a.38.38,0,0,0,.38-.38V85.35a.38.38,0,0,0-.38-.38H74.7A.38.38,0,0,0,74.33,85.35Z"/><path class="cls-3" d="M43.29,91.9l-4.82,1.46a.27.27,0,0,1-.34-.25V89.73a.26.26,0,0,1,.34-.25l4.82,1.46Z"/><path class="cls-3" d="M44.14,88.23V97a1.14,1.14,0,0,0,1.14,1.14H63.17A1.14,1.14,0,0,0,64.3,97V88.23a.4.4,0,0,0-.4-.4H44.54A.4.4,0,0,0,44.14,88.23Z"/><path class="cls-3" d="M67.58,79a7.3,7.3,0,0,0-13.36-2.62,7.3,7.3,0,1,0-10.37,9.87,1,1,0,0,0,.59.18H64a1,1,0,0,0,.59-.18A7.33,7.33,0,0,0,67.58,79Zm-19.52,4.3a3,3,0,1,1,3-3A3,3,0,0,1,48.06,83.28Zm12.32,0a3,3,0,1,1,3-3A3,3,0,0,1,60.38,83.28Z"/><path class="cls-3" d="M164.92,93c3.28-3.14,4.43-7.31,1.74-12.33l-.09-.17c-2.69-5-6.8-6.37-11.23-5.39Z"/><path class="cls-3" d="M143.05,121.56a9.38,9.38,0,0,0-8,4.18H173.4a9.4,9.4,0,0,0-8-4.18c-8.77,0-6.17-8.1-4.58-9.16,3.08-2.05,3.9-4.8,4.12-8.83.59-.18,2.07-.89,2.22-3.56a4.65,4.65,0,0,0-2.38-4.42,16.3,16.3,0,0,0-.39-1.77h-20.3a14.23,14.23,0,0,0-.38,1.77,4.66,4.66,0,0,0-2.39,4.42c.16,2.67,1.64,3.38,2.23,3.56.22,4,1,6.78,4.11,8.83C149.21,113.46,151.82,121.56,143.05,121.56Z"/><path class="cls-3" d="M150.41,80.36l1-.3c-.09-.88-.08-.7-.17-1.57l-1-.1-.46-1.4.75-.66L149.71,75l-1,.32-1-1.1.42-.91-1.28-.93-.73.68-1.35-.6v-1l-1.55-.33-.4.91h-1.47l-.4-.91-1.55.33v1l-1.35.6-.73-.68-1.28.93.41.91-1,1.1-1-.32-.79,1.37.75.66-.46,1.4-1,.1c-.09.87-.08.69-.17,1.57l.95.3c.08.7.09.77.16,1.47l-.87.49.49,1.5,1-.11L135.4,85l-.6.8L135.86,87l.86-.51,1.2.87-.22,1,1.44.64.58-.81,1.45.3.2,1h1.57l.2-1,1.45-.3.58.81,1.44-.64-.22-1,1.2-.87.86.51,1.05-1.17-.59-.8.74-1.28,1,.11.49-1.5-.87-.49C150.33,81.13,150.34,81.06,150.41,80.36Zm-8.26,5.9a6,6,0,1,1,6-6A6,6,0,0,1,142.15,86.26Z"/><path class="cls-3" d="M159.87,88.84V87.47l-.64-.19-.37-1.12.41-.53-.81-1.11-.63.22-1-.7v-.66l-1.3-.43-.38.55H154l-.38-.55-1.31.43,0,.66-1,.7-.63-.22L150,85.63l.41.53L150,87.28l-.64.19v1.37L150,89l.37,1.13-.41.53.81,1.11.63-.23,1,.7,0,.67,1.31.42.38-.55h1.18l.38.55,1.3-.42v-.67l1-.7.63.23.81-1.11-.41-.53.37-1.13Zm-5.25,2.5a3.19,3.19,0,1,1,3.18-3.18A3.18,3.18,0,0,1,154.62,91.34Z"/><path class="cls-3" d="M97.55,270.61c-9.15,0-16.58,9.63-16.58,9.63s7.43,9.62,16.58,9.62,16.59-9.62,16.59-9.62S106.71,270.61,97.55,270.61Zm0,16.48a6.85,6.85,0,1,1,6.86-6.85A6.85,6.85,0,0,1,97.55,287.09Z"/><path class="cls-3" d="M100.76,280.14A2.15,2.15,0,0,1,98.61,278a2.12,2.12,0,0,1,1.11-1.86,4.53,4.53,0,0,0-2.17-.54,4.65,4.65,0,1,0,4.66,4.65,4.46,4.46,0,0,0,0-.63A2.11,2.11,0,0,1,100.76,280.14Z"/></g><g class="cls-2"><path class="cls-3" d="M248,248.61l-4.24-38.15a4.14,4.14,0,0,0-1.1-8.13c-.14,0-.27,0-.41,0l-22.19-59a7.31,7.31,0,0,0-5.55-12.87l-20.9-43.45a43.11,43.11,0,0,0-34.31-29.89L126.25,32.54a4.14,4.14,0,0,0-7-4.35L80.58,8.89a7.74,7.74,0,0,0,.09-1.08A7.33,7.33,0,0,0,66.44,5.32l-31-3.44A4.14,4.14,0,0,0,28.18,5.8L10.13,21A4.13,4.13,0,1,0,6.81,28.1V82.34A7.32,7.32,0,0,0,6.81,97V242.2l-.5,3a7.33,7.33,0,0,0,.5,14.57V315H6.67a4.15,4.15,0,1,0,0,8.29h.14v80.46a7.33,7.33,0,0,0,0,14.46v129A4.14,4.14,0,0,0,8,555.29a4.06,4.06,0,0,0,1.9-.48L29.17,574.3A7.33,7.33,0,1,0,42,579.15s0-.1,0-.14l32.29-2.82a42.56,42.56,0,0,0,6.22.46,43,43,0,0,0,35.78-19.18c4.6-1.94,16.73-9,24.36-13.48a7.33,7.33,0,1,0,10.28-10.14l19.87-32.28a4.14,4.14,0,0,0,3.9-7.28l19.9-43.22a4.07,4.07,0,0,0,1.26.22,4.13,4.13,0,0,0,1.81-7.86l20.66-60.23a4.15,4.15,0,0,0,2.44-7.89l13.42-48.94a42.81,42.81,0,0,0,4-18.06,44.88,44.88,0,0,0-.39-5.71l8.49-39.47.4,0A7.33,7.33,0,0,0,248,248.61ZM157.19,493.28a8,8,0,0,0,.14-1.47,7.33,7.33,0,0,0-7.33-7.33,7.25,7.25,0,0,0-2.14.32l-4-10.42,7.06-3.62,18.66,24.11a4.05,4.05,0,0,0-1.16,2.16Zm-38.25,21.14L130,506.58l13,26.87a7.31,7.31,0,0,0-3.56,5l-16.08-1.86c.07-1,.11-1.93.11-2.9A42.7,42.7,0,0,0,118.94,514.42ZM23.12,500.5l8.65-28.86c.21.05.42.08.63.11l-1.65,28a4.13,4.13,0,0,0-1.63,7.58l-3.7,7.31Zm1.53,15.63L9.4,546.24l13.06-43.55ZM10.79,318.91l14-10.15,5.44,16.09a43.34,43.34,0,0,0-8.44,9.08l-11.54-12.7a4.09,4.09,0,0,0,.58-2.08C10.81,319.06,10.79,319,10.79,318.91ZM188.93,122.45l19.61,12.61a7.22,7.22,0,0,0-.26,4.73L174.39,150.4l-3.19-12A43.26,43.26,0,0,0,188.93,122.45Zm28.86,73.08,21.1,9.26a4.17,4.17,0,0,0-.37,1.69,4,4,0,0,0,.51,1.94l-25.27,14-7.45-6.85A31.87,31.87,0,0,0,217.79,195.53Zm22.57,56.55-19.18-5.42a7.58,7.58,0,0,0,.15-1.51,7.27,7.27,0,0,0-1.66-4.65l4.93-6.82,17.69,16.26A7.46,7.46,0,0,0,240.36,252.08Zm-45.19,13.23a43,43,0,0,0-34.36,17.17l-6.9-7.55,4.5-8a4,4,0,0,0,1.59.32,4.13,4.13,0,0,0,4.07-4.94l43.31-14.06a7.36,7.36,0,0,0,4.6,3.9l-3.28,15.32A42.68,42.68,0,0,0,195.17,265.31Zm20.39,111.86-32.15-11.12,3.2-10.93,29.27,21.55A5.29,5.29,0,0,0,215.56,377.17Zm-33.1-11.45-14.56-5a4.24,4.24,0,0,0,.1-.88,4.12,4.12,0,0,0-2.05-3.55l6.66-11.36.65.4,12.5,9.19Zm-13.55,9.11c-.89,0-1.78,0-2.66.11l-2-11a4.15,4.15,0,0,0,3.36-2.29l14.61,5.05-2.89,9.89A31.62,31.62,0,0,0,168.91,374.83Zm1.54,63.78.24,10-29.45,2.31a7,7,0,0,0,.09-1.12A7.31,7.31,0,0,0,138.5,444l11-12a31.73,31.73,0,0,0,19.41,6.61C169.43,438.65,169.94,438.63,170.45,438.61Zm-27.78,53.2a7.3,7.3,0,0,0,1.08,3.82l-13.35,9.45-7.64-15.79a4.13,4.13,0,0,0,1.91-3.48,4.27,4.27,0,0,0-.27-1.43l18.6-9.54,3.93,10.32A7.33,7.33,0,0,0,142.67,491.81Zm-110.92,7.9,1.65-27.9a7.28,7.28,0,0,0,3.91-1.18l14.49,22.5-17,8.49A4.13,4.13,0,0,0,31.75,499.71Zm25.42-98.4a42.79,42.79,0,0,0,11.33-1.53l2.34,11.38-28.37,8.35A4.13,4.13,0,0,0,40,417.23l3.7-18.1A42.65,42.65,0,0,0,57.17,401.31ZM41,318.47,37,304.3a4.17,4.17,0,0,0,1.91-1.66l9.23,4.23,1.16,9.19A42.07,42.07,0,0,0,41,318.47Zm-14.58-233-12,2.31a7.56,7.56,0,0,0-1-2.22l21.71-26,3,3.75A31.85,31.85,0,0,0,26.45,85.46ZM9.73,82.72,21,41.85,34.49,58.78l-21.71,26A7.32,7.32,0,0,0,9.73,82.72ZM72.79,34.08,95.88,50.92l-35-14.34a7.5,7.5,0,0,0,.37-2.08ZM205.51,216.15l7.33,6.73-27.49,15.18a4.11,4.11,0,0,0-2.36-1.6l1.67-13.85c.52,0,1.05,0,1.58,0A31.73,31.73,0,0,0,205.51,216.15Zm1.5,31.21-43.26,14c0-.09-.1-.18-.15-.27l16-17.3a4.05,4.05,0,0,0,2.42.79,4.13,4.13,0,0,0,4-3.05l20.71,3c0,.18,0,.37,0,.56A7.35,7.35,0,0,0,207,247.36Zm-54.59,65.55-17,.33a4.12,4.12,0,0,0-1.63-2.75l9.83-17.38,10.16,3.58a42.85,42.85,0,0,0-1.61,11.62A41,41,0,0,0,152.42,312.91Zm14,27.35a43.57,43.57,0,0,0,5.35,4.1L165,355.86a3.84,3.84,0,0,0-1.18-.19,4,4,0,0,0-1.95.51l-14.42-20.39,8.12-3.5Zm-33.21,44.3L121.84,380l2.47-13.19,12.44,14.81Zm4.17-2.19,4.88,5.81-8-3.21Zm-14.75,99.89,11-25.13.34,0a7.59,7.59,0,0,0,2.14-.32l6.5,17.07L124,483.49A4.08,4.08,0,0,0,122.63,482.26ZM93.4,472.33a28.57,28.57,0,0,1-10.49,2A28.94,28.94,0,1,1,98.11,470ZM34.72,457.28,38,430.35l13.63,8.53a31.91,31.91,0,0,0,13.15,32.79l-24.27-5.94a7.25,7.25,0,0,0-5.83-8.45Zm4-32a4.14,4.14,0,0,0,4.14-4.14,3.73,3.73,0,0,0-.07-.68L71,412.15l.69,3.37a32,32,0,0,0-19.82,22.33l-13.74-8.59.49-4ZM37,296.66l5.49-19a7.22,7.22,0,0,0,1.55.17l.42,0,3.52,27.91-8.67-4a4.31,4.31,0,0,0,.21-1.25A4.17,4.17,0,0,0,37,296.66ZM14.65,252.23l35.36-5-4.51,16a7.41,7.41,0,0,0-1.5-.15,7.32,7.32,0,0,0-6.34,3.66L14.12,255.26a7.37,7.37,0,0,0,.55-2.78A2.11,2.11,0,0,0,14.65,252.23ZM70.5,236a42.68,42.68,0,0,0,13-2l1.91,7.29-34,4.78,3.64-13A42.78,42.78,0,0,0,70.5,236Zm-5.35-85.66-.89-8.47a4.15,4.15,0,0,0,3.21-3.9l26.63-2.33a7.34,7.34,0,0,0,2.5,4.46l-7.8,14a42.75,42.75,0,0,0-23.65-3.76Zm-31.88-20.9,29.26,1.78.12,2.54a4.13,4.13,0,0,0-3.18,2.59l-26.26-6.56Zm48.32-19.63,15.29,18.87a7.36,7.36,0,0,0-2.49,3.48l-30.9-1.88L63,119.62A31.85,31.85,0,0,0,81.59,109.79Zm12.54,23.34a7.53,7.53,0,0,0-.13,1.35c0,.05,0,.09,0,.14L67.39,137a4.14,4.14,0,0,0-3.74-3.25l-.11-2.43Zm3.28,7.54a7.34,7.34,0,0,0,6.86.53l14,26.8-10.6,3.33A43.31,43.31,0,0,0,89.7,154.52ZM118.7,168.9l5.63,10.82a4.15,4.15,0,0,0-1.81,3.43c0,.11,0,.22,0,.33l-9.72,2a42.65,42.65,0,0,0-4.69-13.27Zm60.15,74.25L163,260.31a4.22,4.22,0,0,0-1.53-1l6.86-20.57,9.53,1.59c0,.06,0,.12,0,.18A4.13,4.13,0,0,0,178.85,243.15Zm-18.35,15.9a4,4,0,0,0-.5-.05,4.18,4.18,0,0,0-2.34.72l-11.95-19.59a7.36,7.36,0,0,0,3.42-4.62l18.21,3Zm-.15,98.56-26.48-12.47a7,7,0,0,0-.18-3.41l12.85-5.54,14.54,20.56A4.27,4.27,0,0,0,160.35,357.61ZM126.67,187.29a4.17,4.17,0,0,0,.71-.07l12,39.74a7.44,7.44,0,0,0-2.94,2.06l-18.13-12.77,7.76-29A3.68,3.68,0,0,0,126.67,187.29ZM97.41,249.66H97l12.57-4.4-1.6,6,1,.26,1.78-6.64,10.89-3.81,6.1,6.67-10.56,8.76A31.77,31.77,0,0,0,97.41,249.66Zm25.19-9,12.52-4.38a7.29,7.29,0,0,0,2.36,3.26l-9,7.51Zm12.23-5.34-13,4.54-2.22-2.44,15.18-2.13Zm1-5.54a7.28,7.28,0,0,0-1.19,4c0,.18,0,.35,0,.53l-15.87,2.23-4.58-5,3.82-14.28Zm-18.24,6.92-5,.69,1.26-4.72Zm.81.89,2.41,2.63L111,243.7l1.4-5.22Zm-8.58,6.47L93.14,250a32.83,32.83,0,0,0-4.24.87l-2.29-8.71,24.7-3.48Zm-43.21,29L51.31,271c0-.17,0-.35,0-.52a7.32,7.32,0,0,0-1.42-4.34l28-9.79A32,32,0,0,0,66.64,273.15ZM51.18,272l15.21,2.13a31.83,31.83,0,0,0,12.86,33.67l-1.12,2.52-29-34.56A7.39,7.39,0,0,0,51.18,272Zm17.32,9.58a28.91,28.91,0,1,1,28.91,28.91A28.94,28.94,0,0,1,68.5,281.57Zm61.88,36.27-1.16,10.33-6.82,1.23-7.61-21.09a32.45,32.45,0,0,0,6.11-5.16l7.3,8a4.09,4.09,0,0,0-1,2.68A4.15,4.15,0,0,0,130.38,317.84ZM121,339.16l-13.33-6.1,14.07-2.53,2.32,6.43A7.34,7.34,0,0,0,121,339.16Zm5.67-2.68a7.45,7.45,0,0,0-1.65.19l-2.28-6.32,6.36-1.14-.83,7.45A7.07,7.07,0,0,0,126.67,336.48Zm-12.75-27.61,7.48,20.71-14.18,2.55-3-19.39A31.8,31.8,0,0,0,113.92,308.87ZM120.41,340a7.26,7.26,0,0,0-1.08,3.81,7.47,7.47,0,0,0,.12,1.26l-9.84,2.42-2.08-13.4Zm-.73,6.05a7.32,7.32,0,0,0,6.55,5.07l-2.51,13.44L110.13,348.4Zm13.66-5.26a7.36,7.36,0,0,0-4.1-3.84l.89-7.92,10.07-1.81,5.75,8.14ZM130.25,328l1.12-10a4,4,0,0,0,1.92-.5l6.27,8.87Zm1.08-18.32a4.14,4.14,0,0,0-2.4.77l-7.37-8.05a31.83,31.83,0,0,0,7.13-14.53l5.35,1.88-2.66,19.93Zm-2.46-22.8a31.8,31.8,0,0,0-11-29.74l10.44-8.66,9.78,10.68-4,29.58Zm.24-39,9.23-7.67a7.32,7.32,0,0,0,2.2.84l-2.25,16.86ZM142,226.48a7.43,7.43,0,0,0-1.64.19l-12-39.73a4.18,4.18,0,0,0,2.19-2.28l14.82,3.86-3.21,38ZM126.67,179a3.86,3.86,0,0,0-1.45.28l-5.56-10.68,12.81-4-5,14.5A4,4,0,0,0,126.67,179ZM113.5,193a43.66,43.66,0,0,0-.49-6.51l9.74-2a4.15,4.15,0,0,0,2.37,2.53l-7.66,28.65-7.61-5.36A42.73,42.73,0,0,0,113.5,193Zm-4.07,18.23,7.76,5.46-3.75,14-9.64-10.54A42.65,42.65,0,0,0,109.43,211.21Zm-6.28,9.71,10,10.91-1.54,5.75-25.23,3.55-2-7.47A43.19,43.19,0,0,0,103.15,220.92ZM85.62,242.25l2.32,8.84a31.86,31.86,0,0,0-6.88,3.09L49.21,265.33a7.15,7.15,0,0,0-2.75-1.75l4.63-16.47ZM45.41,277.67a7.33,7.33,0,0,0,2.91-1.27l29.35,34.93-3,6.64L49,306.19Zm33,34.51,10.2,12.14-13-5.93Zm.45-1,1.25-2.81a31.76,31.76,0,0,0,23.14,4.59l3,19.36-.16,0-15.36-7Zm25.52,21.48-6.49,1.17-5.65-6.73Zm1.59.73.49.22,2,12.77-9.81-11.67Zm17.53,32.46-2.59,13.81L114.18,377,110,349.74Zm-2.77,14.81-1.86,9.89a7.92,7.92,0,0,0-.85,0,7.24,7.24,0,0,0-1.69.2l-2-12.58ZM112.85,403l-11.18,16.58a31.81,31.81,0,0,0-29-4.43L72,411.86l39.13-11.51A7.22,7.22,0,0,0,112.85,403Zm2,43,12.26,1.39a7.33,7.33,0,0,0,1.3,7l-.45.58L108.06,465A31.67,31.67,0,0,0,114.8,446.07Zm12.66.43-12.65-1.43A31.65,31.65,0,0,0,112,432.23l14.11-6.48,5.3,17.22A7.39,7.39,0,0,0,127.46,446.5Zm-15.92-15.18a32.15,32.15,0,0,0-9.07-11.1l11.15-16.54a7.24,7.24,0,0,0,4.38,1.47,7.63,7.63,0,0,0,1.67-.2l6.11,19.83Zm8.3-40.6,1.81-9.7,10.68,4.27-9,7.47A7.41,7.41,0,0,0,119.84,390.72Zm4.71-25.17,2.7-14.43a7.45,7.45,0,0,0,3.18-1L144.78,375l-7.26,6Zm6.7-16a7.34,7.34,0,0,0,2.37-3.41l26.32,12.4a4,4,0,0,0-.23,1.29,4.17,4.17,0,0,0,.66,2.24l-14.81,12.27ZM146.89,335,141.28,327l5.75-1,7.63,5.61Zm-6.24-8.83-6.54-9.25a2.39,2.39,0,0,0,.23-.22l11.58,8.52ZM132.92,310a3.22,3.22,0,0,0-.55-.18L135,290.08l7.66,2.7Zm2.22-20.92,3.86-29,13.68,15-9.52,16.82Zm4-30.25,2.36-17.7c.16,0,.31,0,.47,0a7.27,7.27,0,0,0,2.81-.57l12.1,19.83a4.09,4.09,0,0,0,.63,6.06l-4.34,7.68ZM182,236.33a4.16,4.16,0,0,0-4,3l-9.38-1.56,5.79-17.37a31.76,31.76,0,0,0,9.21,2.15Zm-14.34,1.25-18.36-3.06c0-.23,0-.47,0-.71a7.28,7.28,0,0,0-2-5l15.35-16.56A32.18,32.18,0,0,0,173.52,220Zm-21.06-9.47a7.3,7.3,0,0,0-3.47-1.54l3.19-37.79,8,2.08A31.75,31.75,0,0,0,162,211.47Zm7.76-38.28-8-2.06,2-23.69,12.27,7.57A31.72,31.72,0,0,0,154.36,189.83Zm6.95-19L148.51,163l.3-3.5,24.88-7.8,2.35,8.84A31.92,31.92,0,0,0,161.31,170.86Zm-13.75-8.48-2.71-1.67,2.93-.92Zm-.1,1.12-2,24-14.67-3.82a4.93,4.93,0,0,0,.05-.54,4.14,4.14,0,0,0-2.35-3.73l5.19-15.2,9.93-3.11Zm-13.41-.45,2.2-6.46,6.21,3.82Zm-1.18.37-13.68,4.28-14-27a7.26,7.26,0,0,0,2.14-2l28.09,17.31ZM97.72,128.1,82.26,109a31.78,31.78,0,0,0,7.66-17.17l10.24,1.46.55,33.85A7.26,7.26,0,0,0,97.72,128.1ZM90,90.87c.08-.92.13-1.86.13-2.8A31.69,31.69,0,0,0,84.49,70l8.34-9.12,6.87,4.38.44,27.11ZM54.89,56.34l-.34-14.77a7.29,7.29,0,0,0,4.62-2.23L92,60.28,83.9,69.12a31.87,31.87,0,0,0-25.66-13A30.92,30.92,0,0,0,54.89,56.34Zm41.61-1-3.84,4.19-32.85-21a6.63,6.63,0,0,0,.64-1.06L96,52.06a3.94,3.94,0,0,0-.17,1.09A4.13,4.13,0,0,0,96.5,55.34Zm-3,4.74,3.61-3.95a4.16,4.16,0,0,0,2.44,1.12L99.68,64Zm3.38-9.66L74.4,34l13.11-.48,9.56,16.67C97,50.28,97,50.36,96.9,50.42ZM53.54,41.59l.35,14.87a31.89,31.89,0,0,0-15,6.24l-3.12-3.91,15-17.9A7.36,7.36,0,0,0,53.54,41.59Zm4.7,17.57A28.91,28.91,0,1,1,29.33,88.07,28.94,28.94,0,0,1,58.24,59.16Zm0,60.82a31.15,31.15,0,0,0,3.77-.23l.48,10.45-29.16-1.78a7.34,7.34,0,0,0-2.93-5.8l6.85-10.55A31.77,31.77,0,0,0,58.24,120ZM33,130.74l26.27,6.56a4.4,4.4,0,0,0-.05.51A4.14,4.14,0,0,0,63.27,142l.89,8.5a42.69,42.69,0,0,0-19.88,8.49L29.14,135.1A7.32,7.32,0,0,0,33,130.74ZM70.5,153a40,40,0,1,1-40,40A40,40,0,0,1,70.5,153ZM54.1,232.72l-3.79,13.49-35.76,5A7.28,7.28,0,0,0,12,246.79L39.1,222.31A43.12,43.12,0,0,0,54.1,232.72ZM13.67,256.16l23.54,11.55a7.33,7.33,0,0,0,4.28,9.65l-5.5,19a3.51,3.51,0,0,0-.66-.07,4,4,0,0,0-1.7.38L10.74,259A7.34,7.34,0,0,0,13.67,256.16Zm36.56,59.72-1.07-8.52,25.16,11.52h0a42.74,42.74,0,0,0-24.08-3Zm25,3.42,14.87,6.81,6.64,7.9-3.68.66A43.28,43.28,0,0,0,75.23,319.3Zm22.25,15.59,10.85,12.92-9,2.21a42.82,42.82,0,0,0-5.72-14.44Zm2,16.11,9.26-2.27,4.31,27.79-14.74-5.9A42.5,42.5,0,0,0,99.53,351Zm-1.47,20.58,15.22,6.08L115.34,391a7.32,7.32,0,0,0-2.62,1.75L93.07,381.94A42.72,42.72,0,0,0,98.06,371.58ZM92.5,382.77l19.57,10.75a7.24,7.24,0,0,0-1.4,4.29,7.52,7.52,0,0,0,.17,1.59l-39,11.48-2.33-11.37A43.2,43.2,0,0,0,92.5,382.77ZM37.67,425.16l-.43,3.51-20.4-12.76,17.74,4.68a3.31,3.31,0,0,0-.06.56A4.14,4.14,0,0,0,37.67,425.16Zm-23.74-9.89,23.17,14.5-3.37,27.4-.4,0a7.19,7.19,0,0,0-2.79.55L10.8,417.75A7.34,7.34,0,0,0,13.93,415.27ZM38.12,470a7.36,7.36,0,0,0,2.2-3.33l27.24,6.67a31.74,31.74,0,0,0,14.85,3.93v.53L52.7,492.68Zm45.29,7.27h.06l-.06,0Zm23-10.37,20.07-10L107.18,482l-20.32-5A31.88,31.88,0,0,0,106.44,466.93Zm22.12-11.05.79-.4a7.22,7.22,0,0,0,3.27,1.53l-10.91,24.85a4.23,4.23,0,0,0-1.19-.19,4.16,4.16,0,0,0-3.87,2.68l-8.41-2.06Zm8.51.59a7.55,7.55,0,0,0,1.86-1.24L150.33,470l-6.8,3.49Zm.6-13a7.25,7.25,0,0,0-3.67-1,7.07,7.07,0,0,0-1.67.2L127,425.33l12.69-5.82a32.07,32.07,0,0,0,9,11.91Zm-11-19.11-6.06-19.71a7.32,7.32,0,0,0,4.57-5.45l12.38,1.52a31.68,31.68,0,0,0,1.71,17.86Zm11.09-24.62-12.47-1.53c0-.13,0-.26,0-.4a7.33,7.33,0,0,0-1.4-4.31l9.43-7.8,8.88,3.55A31.5,31.5,0,0,0,137.78,399.74Zm.37-18,7.13-5.9,3.54,6.13a32.1,32.1,0,0,0-5.58,5.83Zm11.46-.39-3.55-6.16L161,362.82a4.13,4.13,0,0,0,2.18,1.07L165.26,375A31.76,31.76,0,0,0,149.61,381.35Zm29-33.35a43.06,43.06,0,0,0,8.3,2.51l-.86,3Zm-22-16.17,2-.85a43.34,43.34,0,0,0,3.62,5Zm-.93-.68-7.34-5.4,7-1.25a42.41,42.41,0,0,0,2.78,5.61Zm-8.45-6.22-12.35-9.09a4.22,4.22,0,0,0,.51-1.61l17.1-.32a43,43,0,0,0,2.42,9.64Zm6.77-29.21-9.93-3.49,9.27-16.38,6.83,7.46A42.77,42.77,0,0,0,154.05,295.72Zm64.92-56a7.33,7.33,0,0,0-12.14,3.84l-20.69-3s0-.07,0-.1a4.2,4.2,0,0,0-.31-1.55l27.78-15.34L223.86,233Zm-4.43-16.68,25.06-13.83a4.43,4.43,0,0,0,.91.76l-16.06,22.18Zm-28.3-3.43a28.91,28.91,0,1,1,28.91-28.91A28.94,28.94,0,0,1,186.24,219.65Zm0-60.82A31.8,31.8,0,0,0,177,160.2l-2.34-8.83,34-10.64a7.33,7.33,0,0,0,2.11,2.78L196,160.36A31.93,31.93,0,0,0,186.24,158.83Zm-16-20.05,3.17,11.92-24.54,7.69,1.34-15.8c.75,0,1.5.06,2.26.06A42.58,42.58,0,0,0,170.27,138.78Zm-22.4,19.94-4.15,1.3-7.14-4.4,4.92-14.41a42.85,42.85,0,0,0,7.74,1.3Zm-12.16-3.64-27.89-17.19a7.24,7.24,0,0,0,.15-6.51l11.89-3.79a43.17,43.17,0,0,0,20.67,13.35Zm-28.23-24.59a7.34,7.34,0,0,0-5.77-3.33l-.55-33.69,8.63,1.23a44.91,44.91,0,0,0-.29,5,42.79,42.79,0,0,0,9.66,27.11Zm2.44-36.78-8.78-1.25-.43-26.6L116.61,76A42.83,42.83,0,0,0,109.92,93.71Zm7.25-18.53L100.69,64.66l-.12-7.43a4.1,4.1,0,0,0,3-2l19.67,12.94A43.32,43.32,0,0,0,117.17,75.18ZM124,67.5,104,54.32a4.09,4.09,0,0,0,.19-1.17,4,4,0,0,0-.22-1.26l6-6.74,18.71,18.71A44.79,44.79,0,0,0,124,67.5Zm5.57-4.19-18.91-18.9,9.54-10.63a4.15,4.15,0,0,0,2.49.84,4.07,4.07,0,0,0,2.42-.79l10.33,26.36A43.32,43.32,0,0,0,129.55,63.31ZM119.46,33.08,109.94,43.7,99.34,33.11,119,32.39A4.1,4.1,0,0,0,119.46,33.08ZM109.27,44.44l-5.79,6.46a4.12,4.12,0,0,0-5.61-1.3L88.64,33.5,98,33.16ZM88.08,32.52,77.41,13.91a8.2,8.2,0,0,0,.74-.58L97,32.19ZM73.33,15.15a7.36,7.36,0,0,0,3.21-.75L87,32.56l-13.85.51L62.2,25.12l7.45-11A7.2,7.2,0,0,0,73.33,15.15Zm-1.85,18-10.31.37a7.33,7.33,0,0,0-1.85-4.13L61.64,26ZM58.6,28.66A7.33,7.33,0,0,0,50,28.07L34.74,7.21a4,4,0,0,0,.49-.52l25.6,18.67ZM32,8.29a4.08,4.08,0,0,0,1.94-.5L49.16,28.66a7.29,7.29,0,0,0-2.54,4.62L24.8,27.84,30.27,7.91A4.08,4.08,0,0,0,32,8.29Zm14.56,26a7.32,7.32,0,0,0,3.31,6.13L35.15,58,21.28,40.66,24.54,28.8Zm-26,5.42L10.27,26.9a4.14,4.14,0,0,0,.9-1.42l12.39,3.08Zm-11-12.17,10.7,13.37L8.77,82.45a7.62,7.62,0,0,0-1-.11V28.1A4.26,4.26,0,0,0,9.48,27.52Zm5.19,62.13a8.87,8.87,0,0,0-.06-.9l11.76-2.26c0,.52,0,1.05,0,1.58A31.83,31.83,0,0,0,36.5,111.4l-6.93,10.67a7.32,7.32,0,0,0-3.57-.92,7.19,7.19,0,0,0-2.79.55L10.61,96.2A7.33,7.33,0,0,0,14.67,89.65ZM26,135.81a7.6,7.6,0,0,0,2.2-.33l15.29,24.08a42.92,42.92,0,0,0-5.07,62l-27.3,24.63a7.33,7.33,0,0,0-3.31-1v-2.89l17.5-106.5Q25.66,135.81,26,135.81ZM9.81,259.37l23,37.87a4.08,4.08,0,0,0-1.06,5.24l-6.43,4.67L9.2,259.56A6.17,6.17,0,0,0,9.81,259.37Zm22.5,43.92a4.07,4.07,0,0,0,3,1.33,4.76,4.76,0,0,0,.66-.06l4.11,14.29A43.34,43.34,0,0,0,31,324.19l-5.42-16.05Zm24.86,15a40,40,0,1,1-40,40A40.05,40.05,0,0,1,57.17,318.31Zm-14.45,80.5L39,417l-.33,0a4.13,4.13,0,0,0-3.85,2.62l-20.28-5.35a7.31,7.31,0,0,0-.52-7.48l17.46-14A43.15,43.15,0,0,0,42.72,398.81ZM9.84,418.06l19.81,40.09a7.32,7.32,0,0,0,1.16,13.21l-8.06,26.88L9.67,418.11ZM30,507.73a5.1,5.1,0,0,0,.88.19l3.77,63.43-9-55.05Zm5.68,64.17-3.8-64a4.13,4.13,0,0,0,2.89-1.83l9.42,4.55a42.86,42.86,0,0,0,6.22,53.73L38.62,573A7.35,7.35,0,0,0,35.71,571.9Zm9-62.13-9.53-4.6a4.1,4.1,0,0,0,.25-1.36,3.87,3.87,0,0,0-.23-1.28L52.35,494l3.07,4.77A43.46,43.46,0,0,0,44.76,509.77Zm11.47-11.6-3-4.64L82.41,479v11.74c-.64,0-1.28,0-1.92,0A42.79,42.79,0,0,0,56.23,498.17Zm27.19-7.41V478.45l1.61-.81,21.49,5.26-8.75,11.37A42.71,42.71,0,0,0,83.42,490.76Zm24.15-7.6,8.85,2.17a3.91,3.91,0,0,0,0,.48,4.14,4.14,0,0,0,1.13,2.82l-9.85,11.7a42.79,42.79,0,0,0-9-5.63Zm10.69,6.12a4.07,4.07,0,0,0,2.26.68,4.24,4.24,0,0,0,1.34-.24l7.72,15.94-11.1,7.86A43.27,43.27,0,0,0,108.42,501Zm28.41,43.2a7.35,7.35,0,0,0-2.74.53l-13.08-27,13.47-9.54a7.33,7.33,0,0,0,4.67,2.62l-2.32,33.41Zm23.74-38.22-18.56-24L171,460.47l.81,33.27A4.11,4.11,0,0,0,170.41,494.26Zm-19.18-24.77-11.59-15A7.51,7.51,0,0,0,141,452l29.7-2.33.24,9.74Zm20.49-19.95L191.79,448a3,3,0,0,0,.19.6l-20,10.29Zm20-2.57-20,1.57-.24-10a31.88,31.88,0,0,0,16.42-6.15l5.69,11.31A4.11,4.11,0,0,0,191.73,447Zm-22.82-11.32a28.9,28.9,0,0,1-23.83-45.26l.51.2-.35-.42a28.9,28.9,0,1,1,23.67,45.48Zm11.32-58.74,2.9-9.9,32.06,11.09a4,4,0,0,0-.15,1,4.16,4.16,0,0,0,.66,2.22L196.94,391.5A32.08,32.08,0,0,0,180.23,376.91Zm36.36-1L186.91,354.1l1-3.41a43.37,43.37,0,0,0,7.26.62,42.73,42.73,0,0,0,16.18-3.17l6.86,27A4.06,4.06,0,0,0,216.59,375.94Zm-21.42-27.63a40,40,0,1,1,40-40A40,40,0,0,1,195.17,348.31Zm14.49-80.48L213,252.4a7.17,7.17,0,0,0,1,.08,7.34,7.34,0,0,0,6.9-4.86l19,5.37a7.26,7.26,0,0,0,.07,5.8l-18.25,15.74A42.86,42.86,0,0,0,209.66,267.83ZM247,248.5l-.33,0a7.29,7.29,0,0,0-3.51.89l-18-16.5,16.26-22.45a4.1,4.1,0,0,0,1.22.2h.12Zm-5.73-45.91a4.09,4.09,0,0,0-1.85,1.34l-21.5-9.43a31.24,31.24,0,0,0,.23-3.76,32,32,0,0,0-21.11-30l14.51-16.63a7.24,7.24,0,0,0,7.69-.07Zm-27.76-71.87a7.36,7.36,0,0,0-4.53,3.43L189.46,121.6a42.81,42.81,0,0,0,5.3-29.85Zm-21-31.07a40,40,0,1,1-40-40A40,40,0,0,1,192.5,99.65Zm-40-43a42.81,42.81,0,0,0-16.16,3.16L126.1,33.66l31.17,23.26A41.84,41.84,0,0,0,152.5,56.65ZM118.78,29.09a4,4,0,0,0-.26,1.39,3.93,3.93,0,0,0,.11.92l-20.25.74L78.86,12.63a7.33,7.33,0,0,0,1.5-2.74ZM66.16,6.3A7.51,7.51,0,0,0,66,7.81a7.31,7.31,0,0,0,2.82,5.77l-7.42,11L35.76,5.84a4.16,4.16,0,0,0,.36-1.69,4,4,0,0,0-.2-1.21ZM29.39,7.36,23.83,27.6,11.41,24.51a4.4,4.4,0,0,0,.05-.51,4.15,4.15,0,0,0-.68-2.26L28.71,6.67A4.43,4.43,0,0,0,29.39,7.36ZM7.81,97a7.21,7.21,0,0,0,1.87-.36l12.63,25.56a7.32,7.32,0,0,0,2,13.46L7.81,236.11Zm0,162.84.4,0,16.23,48L10.58,317.82a4.18,4.18,0,0,0-2.77-2.64Zm0,63.32a4.14,4.14,0,0,0,1.81-1.06L21.2,334.79a42.9,42.9,0,0,0,9.47,57.35L13.39,406A7.33,7.33,0,0,0,8,403.64H7.81Zm0,95.19H8c.23,0,.46,0,.68,0l13.41,82.16L8.13,547H8l-.19,0ZM9.9,547.48l15-29.67,8.82,54.07a7.28,7.28,0,0,0-3.87,1.72L10.74,554.24a4.11,4.11,0,0,0-.84-6.76ZM41.9,578a7.32,7.32,0,0,0-2.44-4.41l11.71-8.55A42.94,42.94,0,0,0,70.68,575.5Zm38.6-4.36a40,40,0,1,1,40-40A40,40,0,0,1,80.5,573.65ZM117.24,556a42.76,42.76,0,0,0,6.08-18.42l16,1.85c0,.14,0,.27,0,.41a7.26,7.26,0,0,0,.8,3.32C131.55,548.2,121.86,553.74,117.24,556Zm32.83-22.65a7,7,0,0,0-2.4-.76L150,499.15h0a7.32,7.32,0,0,0,6.91-4.91l11.49,3.83a4.12,4.12,0,0,0,1.55,3Zm23.71-39.44a4.45,4.45,0,0,0-1-.19L172,460l20.45-10.5a4.09,4.09,0,0,0,1.26,1.19Zm22.94-50.79a4.14,4.14,0,0,0-.87-.09,4,4,0,0,0-1.39.26l-5.79-11.5a31.84,31.84,0,0,0,8.73-39.38l18.95-10.23a3.86,3.86,0,0,0,1,.71Zm23.07-68a3.8,3.8,0,0,0-.59-.06l-6.92-27.25A43.32,43.32,0,0,0,232,330.43Zm17.54-75.16a43,43,0,0,0-14.81-24.74l17.93-15.47a7.31,7.31,0,0,0,4.82,3.32Z"/><rect class="cls-3" x="166.45" y="423.87" width="5.24" height="2.62" rx="1.05"/><rect class="cls-3" x="165.45" y="420.09" width="7.24" height="2.62" rx="1.05"/><rect class="cls-3" x="164.06" y="416.16" width="10.02" height="2.62" rx="1.05"/><path class="cls-3" d="M179.05,407.88a13.06,13.06,0,1,0-19.79,0h0l.18.14a13,13,0,0,0,2.52,2.22,6.84,6.84,0,0,1,2.24,4.58h10a6.82,6.82,0,0,1,2.23-4.58,13,13,0,0,0,2.52-2.22l.18-.14Z"/><path class="cls-3" d="M91,449.24l-.09-.32V430.31a.48.48,0,0,0-.62-.45l-14,4.79a.46.46,0,0,0-.32.44v15.62a4.87,4.87,0,0,0-2,0c-2.27.47-3.78,2.39-3.39,4.28s2.54,3,4.81,2.58,3.78-2.38,3.39-4.27c0-.14-.07-.26-.11-.39V438.22a.46.46,0,0,1,.32-.44l8.91-3a.47.47,0,0,1,.62.44v11.48a4.64,4.64,0,0,0-2.26-.07c-2.27.47-3.78,2.38-3.39,4.28s2.54,3.05,4.81,2.58S91.35,451.13,91,449.24Z"/><path class="cls-3" d="M103,522.87H93.22a.45.45,0,0,1-.42-.31L92.06,520a.44.44,0,0,0-.42-.31h-20a.44.44,0,0,0-.42.31l-.74,2.57a.45.45,0,0,1-.42.31H67.22V522H62.79v.89H60.34a.43.43,0,0,0-.43.43v22.56a.43.43,0,0,0,.43.43H103a.44.44,0,0,0,.44-.43V523.3A.44.44,0,0,0,103,522.87ZM81.66,543.72a9.56,9.56,0,1,1,9.55-9.56A9.56,9.56,0,0,1,81.66,543.72Z"/><rect class="cls-3" x="188.8" y="174.71" width="8.15" height="21.74" rx="2.02" transform="translate(187.71 -82.03) rotate(45)"/><path class="cls-3" d="M180.08,188.15h0a1.44,1.44,0,0,1,0-2l13.34-13.34a1.44,1.44,0,0,1,2,0h0a1.44,1.44,0,0,1,0,2L182.1,188.15A1.42,1.42,0,0,1,180.08,188.15Z"/><path class="cls-3" d="M190.3,198.37h0a1.44,1.44,0,0,1,0-2L203.64,183a1.44,1.44,0,0,1,2,0h0a1.44,1.44,0,0,1,0,2l-13.34,13.34A1.44,1.44,0,0,1,190.3,198.37Z"/><path class="cls-3" d="M174,201l-1,3.53a.71.71,0,0,0,.88.87l3.53-.94Z"/><path class="cls-3" d="M190,200l-5.78-5.78-5.78-5.78a.72.72,0,0,0-1.2.32l-2.11,7.89-.91,3.4,4.17,4.17,3.39-.91,7.89-2.11A.72.72,0,0,0,190,200Z"/><path class="cls-3" d="M51.08,375.56h14.6a1.6,1.6,0,0,1,1.6,1.6v4.24a0,0,0,0,1,0,0H49.48a0,0,0,0,1,0,0v-4.24A1.6,1.6,0,0,1,51.08,375.56Z"/><path class="cls-3" d="M61.63,334.24h-.24a.88.88,0,0,0-.88.89v20a6.47,6.47,0,1,1-4.46,0v-20a.88.88,0,0,0-.88-.89h-.24a.89.89,0,0,0-.88.82c-.77,9.22-6.58,18.8-8.34,21.52a2.06,2.06,0,0,0-.26,1.66l3.69,13.29a1.15,1.15,0,0,0,1.1.83H66.32a1.15,1.15,0,0,0,1.1-.83l3.69-13.29a2,2,0,0,0-.26-1.66c-1.76-2.72-7.57-12.3-8.34-21.52A.88.88,0,0,0,61.63,334.24Z"/><path class="cls-3" d="M218.22,310.66c-5.61,4-11.87-4.33-6.43-8.56a12.8,12.8,0,0,1,3.71-1.93c8.78-3.05,7.77-8.51,6.38-9.9,0,0,7.21,8-.28,17.11A17.57,17.57,0,0,1,218.22,310.66Z"/><path class="cls-3" d="M209.33,311.84h0a3.88,3.88,0,0,1,.39,5.44l-19.84,19.07a3.6,3.6,0,0,1-5,0h0a3.59,3.59,0,0,1,0-5.06l19.07-19.84A3.88,3.88,0,0,1,209.33,311.84Z"/><path class="cls-3" d="M179,323.56c8.7,2.74,14.68-5.2,19.2-9.93,1.3-1.35,1.32-3.4-.81-3.93-2.41-.59-6.23-.93-6.23-2.18,0-1.8,2.13-2.09,3.75-3.4a10.13,10.13,0,0,0,1.14-14.41,11.36,11.36,0,0,0-4.54-3.27c-8.94-2.82-18.93,3.77-21.89,14.62C167,310.69,171,321,179,323.56Zm9.44-32.27a2.52,2.52,0,1,1,.53,3.52A2.51,2.51,0,0,1,188.46,291.29Zm-9.37.33a2.52,2.52,0,1,1,.53,3.53A2.53,2.53,0,0,1,179.09,291.62Zm8.25,9.59A3.84,3.84,0,1,1,182,302,3.84,3.84,0,0,1,187.34,301.21ZM173.41,299a2.52,2.52,0,1,1,.53,3.52A2.52,2.52,0,0,1,173.41,299Zm-.86,9.31a2.52,2.52,0,1,1,.53,3.52A2.51,2.51,0,0,1,172.55,308.34Zm5.88,7.46a2.52,2.52,0,1,1,.53,3.52A2.52,2.52,0,0,1,178.43,315.8Z"/><path class="cls-3" d="M49.41,193.76a21.23,21.23,0,0,0,5.15,13,20.46,20.46,0,0,0,6-13Z"/><path class="cls-3" d="M80.22,191.94h12a21.3,21.3,0,0,0-6.08-14.05A20.41,20.41,0,0,0,80.22,191.94Z"/><path class="cls-3" d="M80.27,193.76a20.49,20.49,0,0,0,6.43,13.43,21.32,21.32,0,0,0,5.48-13.43Z"/><path class="cls-3" d="M71.71,191.94H78.4a22.27,22.27,0,0,1,6.37-15.3,21.32,21.32,0,0,0-13.06-5.18Z"/><path class="cls-3" d="M78.45,193.76H71.71v20.48a21.32,21.32,0,0,0,13.71-5.76A22.22,22.22,0,0,1,78.45,193.76Z"/><path class="cls-3" d="M69.88,193.76H62.44a22.25,22.25,0,0,1-6.63,14.38,21.32,21.32,0,0,0,14.07,6.1Z"/><path class="cls-3" d="M69.88,191.94V171.46A21.33,21.33,0,0,0,56.43,177a22.21,22.21,0,0,1,6,15Z"/><path class="cls-3" d="M55.14,178.25a21.31,21.31,0,0,0-5.73,13.69H60.66A20.42,20.42,0,0,0,55.14,178.25Z"/><path class="cls-3" d="M74.33,85.35v.78a.38.38,0,0,1-.28.36l-8.47,3.37c-.16,0-.28.11-.28.21v2.7c0,.1.12.19.28.21l8.47,3.37a.38.38,0,0,1,.28.36v.78a.38.38,0,0,0,.37.38h1.83a.38.38,0,0,0,.38-.38V85.35a.38.38,0,0,0-.38-.38H74.7A.38.38,0,0,0,74.33,85.35Z"/><path class="cls-3" d="M43.29,91.9l-4.82,1.46a.27.27,0,0,1-.34-.25V89.73a.26.26,0,0,1,.34-.25l4.82,1.46Z"/><path class="cls-3" d="M44.14,88.23V97a1.14,1.14,0,0,0,1.14,1.14H63.17A1.14,1.14,0,0,0,64.3,97V88.23a.4.4,0,0,0-.4-.4H44.54A.4.4,0,0,0,44.14,88.23Z"/><path class="cls-3" d="M67.58,79a7.3,7.3,0,0,0-13.36-2.62,7.3,7.3,0,1,0-10.37,9.87,1,1,0,0,0,.59.18H64a1,1,0,0,0,.59-.18A7.33,7.33,0,0,0,67.58,79Zm-19.52,4.3a3,3,0,1,1,3-3A3,3,0,0,1,48.06,83.28Zm12.32,0a3,3,0,1,1,3-3A3,3,0,0,1,60.38,83.28Z"/><path class="cls-3" d="M164.92,93c3.28-3.14,4.43-7.31,1.74-12.33l-.09-.17c-2.69-5-6.8-6.37-11.23-5.39Z"/><path class="cls-3" d="M143.05,121.56a9.38,9.38,0,0,0-8,4.18H173.4a9.4,9.4,0,0,0-8-4.18c-8.77,0-6.17-8.1-4.58-9.16,3.08-2.05,3.9-4.8,4.12-8.83.59-.18,2.07-.89,2.22-3.56a4.65,4.65,0,0,0-2.38-4.42,16.3,16.3,0,0,0-.39-1.77h-20.3a14.23,14.23,0,0,0-.38,1.77,4.66,4.66,0,0,0-2.39,4.42c.16,2.67,1.64,3.38,2.23,3.56.22,4,1,6.78,4.11,8.83C149.21,113.46,151.82,121.56,143.05,121.56Z"/><path class="cls-3" d="M150.41,80.36l1-.3c-.09-.88-.08-.7-.17-1.57l-1-.1-.46-1.4.75-.66L149.71,75l-1,.32-1-1.1.42-.91-1.28-.93-.73.68-1.35-.6v-1l-1.55-.33-.4.91h-1.47l-.4-.91-1.55.33v1l-1.35.6-.73-.68-1.28.93.41.91-1,1.1-1-.32-.79,1.37.75.66-.46,1.4-1,.1c-.09.87-.08.69-.17,1.57l.95.3c.08.7.09.77.16,1.47l-.87.49.49,1.5,1-.11L135.4,85l-.6.8L135.86,87l.86-.51,1.2.87-.22,1,1.44.64.58-.81,1.45.3.2,1h1.57l.2-1,1.45-.3.58.81,1.44-.64-.22-1,1.2-.87.86.51,1.05-1.17-.59-.8.74-1.28,1,.11.49-1.5-.87-.49C150.33,81.13,150.34,81.06,150.41,80.36Zm-8.26,5.9a6,6,0,1,1,6-6A6,6,0,0,1,142.15,86.26Z"/><path class="cls-3" d="M159.87,88.84V87.47l-.64-.19-.37-1.12.41-.53-.81-1.11-.63.22-1-.7v-.66l-1.3-.43-.38.55H154l-.38-.55-1.31.43,0,.66-1,.7-.63-.22L150,85.63l.41.53L150,87.28l-.64.19v1.37L150,89l.37,1.13-.41.53.81,1.11.63-.23,1,.7,0,.67,1.31.42.38-.55h1.18l.38.55,1.3-.42v-.67l1-.7.63.23.81-1.11-.41-.53.37-1.13Zm-5.25,2.5a3.19,3.19,0,1,1,3.18-3.18A3.18,3.18,0,0,1,154.62,91.34Z"/><path class="cls-3" d="M97.55,270.61c-9.15,0-16.58,9.63-16.58,9.63s7.43,9.62,16.58,9.62,16.59-9.62,16.59-9.62S106.71,270.61,97.55,270.61Zm0,16.48a6.85,6.85,0,1,1,6.86-6.85A6.85,6.85,0,0,1,97.55,287.09Z"/><path class="cls-3" d="M100.76,280.14A2.15,2.15,0,0,1,98.61,278a2.12,2.12,0,0,1,1.11-1.86,4.53,4.53,0,0,0-2.17-.54,4.65,4.65,0,1,0,4.66,4.65,4.46,4.46,0,0,0,0-.63A2.11,2.11,0,0,1,100.76,280.14Z"/></g></g></g></g></svg>