<svg xmlns="http://www.w3.org/2000/svg" xmlns:xlink="http://www.w3.org/1999/xlink" viewBox="0 0 350 350"><defs><style>.cls-1{fill:#fff;stroke-miterlimit:10;stroke-width:14px;stroke:url(#linear-gradient);}.cls-2{fill:url(#Áåçûìÿííûé_ãðàäèåíò_84);}.cls-3{fill:url(#Áåçûìÿííûé_ãðàäèåíò_29);}.cls-4{fill:url(#Áåçûìÿííûé_ãðàäèåíò_8);}.cls-5{fill:url(#Áåçûìÿííûé_ãðàäèåíò_62);}.cls-6{fill:url(#Áåçûìÿííûé_ãðàäèåíò_8-2);}.cls-7{fill:url(#Áåçûìÿííûé_ãðàäèåíò_109);}.cls-8{fill:#b491a8;}.cls-9{fill:#fef0f7;}.cls-10{fill:url(#Áåçûìÿííûé_ãðàäèåíò_68);}.cls-11{fill:url(#Áåçûìÿííûé_ãðàäèåíò_38);}.cls-12{fill:url(#Áåçûìÿííûé_ãðàäèåíò_6);}.cls-13{fill:url(#Áåçûìÿííûé_ãðàäèåíò_98);}.cls-14{fill:url(#Áåçûìÿííûé_ãðàäèåíò_2);}.cls-15{fill:url(#Áåçûìÿííûé_ãðàäèåíò_109-2);}.cls-16{fill:url(#Áåçûìÿííûé_ãðàäèåíò_84-2);}.cls-17{fill:url(#Áåçûìÿííûé_ãðàäèåíò_109-3);}.cls-18{fill:url(#Áåçûìÿííûé_ãðàäèåíò_29-2);}.cls-19{fill:url(#Áåçûìÿííûé_ãðàäèåíò_68-2);}.cls-20{fill:url(#Áåçûìÿííûé_ãðàäèåíò_8-3);}.cls-21{fill:url(#Áåçûìÿííûé_ãðàäèåíò_98-2);}.cls-22{fill:url(#Áåçûìÿííûé_ãðàäèåíò_38-2);}.cls-23{fill:url(#Áåçûìÿííûé_ãðàäèåíò_38-3);}.cls-24{fill:#cbb3c3;}.cls-25{fill:url(#Áåçûìÿííûé_ãðàäèåíò_68-3);}.cls-26{fill:url(#Áåçûìÿííûé_ãðàäèåíò_38-4);}.cls-27{fill:url(#Áåçûìÿííûé_ãðàäèåíò_56);}.cls-28{fill:url(#Áåçûìÿííûé_ãðàäèåíò_2-2);}</style><linearGradient id="linear-gradient" x1="175" x2="175" y2="350" gradientUnits="userSpaceOnUse"><stop offset="0.1" stop-color="#8a04ed"/><stop offset="0.13" stop-color="#900ded"/><stop offset="0.17" stop-color="#a127ee"/><stop offset="0.22" stop-color="#bd50f0"/><stop offset="0.28" stop-color="#e489f1"/><stop offset="0.3" stop-color="#ef9af2"/><stop offset="0.32" stop-color="#df8fe8"/><stop offset="0.37" stop-color="#b672cf"/><stop offset="0.43" stop-color="#7343a6"/><stop offset="0.5" stop-color="#240c76"/><stop offset="0.7" stop-color="#570296"/><stop offset="0.9" stop-color="#831187"/></linearGradient><linearGradient id="Áåçûìÿííûé_ãðàäèåíò_84" x1="44.37" y1="177.98" x2="303.09" y2="177.98" gradientUnits="userSpaceOnUse"><stop offset="0" stop-color="#faf2fc"/><stop offset="1" stop-color="#ffeff6"/></linearGradient><linearGradient id="Áåçûìÿííûé_ãðàäèåíò_29" x1="83.49" y1="193.09" x2="267.47" y2="193.09" gradientUnits="userSpaceOnUse"><stop offset="0" stop-color="#431863"/><stop offset="1" stop-color="#824c71"/></linearGradient><linearGradient id="Áåçûìÿííûé_ãðàäèåíò_8" x1="112.24" y1="193.09" x2="238.72" y2="193.09" gradientUnits="userSpaceOnUse"><stop offset="0" stop-color="#5c3273"/><stop offset="1" stop-color="#a36777"/></linearGradient><linearGradient id="Áåçûìÿííûé_ãðàäèåíò_62" x1="116.27" y1="193.09" x2="188.29" y2="193.09" gradientUnits="userSpaceOnUse"><stop offset="0" stop-color="#704078"/><stop offset="1" stop-color="#9e6381"/></linearGradient><linearGradient id="Áåçûìÿííûé_ãðàäèåíò_8-2" x1="148.68" y1="193.09" x2="230.63" y2="193.09" xlink:href="#Áåçûìÿííûé_ãðàäèåíò_8"/><linearGradient id="Áåçûìÿííûé_ãðàäèåíò_109" x1="135.24" y1="126.98" x2="215.73" y2="126.98" gradientUnits="userSpaceOnUse"><stop offset="0" stop-color="#b28ea5"/><stop offset="1" stop-color="#d0bbc9"/></linearGradient><linearGradient id="Áåçûìÿííûé_ãðàäèåíò_68" x1="129.49" y1="250.59" x2="169.73" y2="250.59" gradientUnits="userSpaceOnUse"><stop offset="0" stop-color="#e96987"/><stop offset="1" stop-color="#f091a9"/></linearGradient><linearGradient id="Áåçûìÿííûé_ãðàäèåíò_38" x1="139.55" y1="250.59" x2="159.67" y2="250.59" gradientUnits="userSpaceOnUse"><stop offset="0" stop-color="#fa849e"/><stop offset="1" stop-color="#fc99a3"/></linearGradient><linearGradient id="Áåçûìÿííûé_ãðàäèåíò_6" x1="181.24" y1="250.59" x2="221.48" y2="250.59" gradientUnits="userSpaceOnUse"><stop offset="0" stop-color="#bf7df7"/><stop offset="0.36" stop-color="#c680f8"/><stop offset="0.91" stop-color="#db89fb"/><stop offset="1" stop-color="#df8bfb"/></linearGradient><linearGradient id="Áåçûìÿííûé_ãðàäèåíò_98" x1="129.49" y1="198.84" x2="169.73" y2="198.84" gradientUnits="userSpaceOnUse"><stop offset="0" stop-color="#c571ee"/><stop offset="1" stop-color="#c352d5"/></linearGradient><linearGradient id="Áåçûìÿííûé_ãðàäèåíò_2" x1="132.9" y1="198.84" x2="165.32" y2="198.84" gradientUnits="userSpaceOnUse"><stop offset="0" stop-color="#bf7df7"/><stop offset="0.29" stop-color="#cf84f9"/><stop offset="0.65" stop-color="#db89fa"/><stop offset="1" stop-color="#df8bfb"/></linearGradient><linearGradient id="Áåçûìÿííûé_ãðàäèåíò_109-2" x1="181.24" y1="198.84" x2="221.48" y2="198.84" xlink:href="#Áåçûìÿííûé_ãðàäèåíò_109"/><linearGradient id="Áåçûìÿííûé_ãðàäèåíò_84-2" x1="191.3" y1="198.84" x2="211.42" y2="198.84" xlink:href="#Áåçûìÿííûé_ãðàäèåíò_84"/><linearGradient id="Áåçûìÿííûé_ãðàäèåíò_109-3" x1="94.27" y1="167.22" x2="101.46" y2="167.22" xlink:href="#Áåçûìÿííûé_ãðàäèåíò_109"/><linearGradient id="Áåçûìÿííûé_ãðàäèåíò_29-2" x1="165.25" y1="134.89" x2="185.72" y2="134.89" xlink:href="#Áåçûìÿííûé_ãðàäèåíò_29"/><linearGradient id="Áåçûìÿííûé_ãðàäèåíò_68-2" x1="135.24" y1="151.72" x2="215.73" y2="151.72" xlink:href="#Áåçûìÿííûé_ãðàäèåíò_68"/><linearGradient id="Áåçûìÿííûé_ãðàäèåíò_8-3" x1="159.9" y1="121.01" x2="191.29" y2="121.01" xlink:href="#Áåçûìÿííûé_ãðàäèåíò_8"/><linearGradient id="Áåçûìÿííûé_ãðàäèåíò_98-2" x1="160.7" y1="107.09" x2="191.26" y2="107.09" xlink:href="#Áåçûìÿííûé_ãðàäèåíò_98"/><linearGradient id="Áåçûìÿííûé_ãðàäèåíò_38-2" x1="175.48" y1="142.33" x2="189.07" y2="142.33" xlink:href="#Áåçûìÿííûé_ãðàäèåíò_38"/><linearGradient id="Áåçûìÿííûé_ãðàäèåíò_38-3" x1="161.89" y1="142.33" x2="175.48" y2="142.33" xlink:href="#Áåçûìÿííûé_ãðàäèåíò_38"/><linearGradient id="Áåçûìÿííûé_ãðàäèåíò_68-3" x1="135.24" y1="155.79" x2="215.73" y2="155.79" xlink:href="#Áåçûìÿííûé_ãðàäèåíò_68"/><linearGradient id="Áåçûìÿííûé_ãðàäèåíò_38-4" x1="173.84" y1="155.79" x2="177.12" y2="155.79" xlink:href="#Áåçûìÿííûé_ãðàäèåíò_38"/><linearGradient id="Áåçûìÿííûé_ãðàäèåíò_56" x1="181.24" y1="250.59" x2="221.48" y2="250.59" gradientUnits="userSpaceOnUse"><stop offset="0" stop-color="#bf7df7"/><stop offset="1" stop-color="#df8bfb"/></linearGradient><linearGradient id="Áåçûìÿííûé_ãðàäèåíò_2-2" x1="181.24" y1="250.59" x2="209.98" y2="250.59" xlink:href="#Áåçûìÿííûé_ãðàäèåíò_2"/></defs><g id="Layer_2" data-name="Layer 2"><g id="Layer_1-2" data-name="Layer 1"><g id="WhiteB-SolidF"><circle class="cls-1" cx="175" cy="175" r="168"/></g><path class="cls-2" d="M253.56,67.9c-19-4.22-68.91-7.12-87.4-13.42C120.57,39,75.3,54,65.63,103.18c-3.44,17.54-7.8,56.84-14,73.55-17.15,46.14-4.34,96,43.48,109.32,16.79,4.69,61.8,10.88,78.63,15.41,48.05,12.91,96.74,6,105-34.79,3.53-17.51,9.73-76,15.94-92.68C311.78,127.85,305.1,79.33,253.56,67.9Z"/><rect class="cls-3" x="83.49" y="132.72" width="183.98" height="120.73" rx="3"/><rect class="cls-4" x="112.24" y="138.47" width="126.48" height="109.24" rx="1"/><polygon class="cls-5" points="178.38 138.47 116.27 247.71 126.19 247.71 188.29 138.47 178.38 138.47"/><polygon class="cls-6" points="210.78 138.47 148.68 247.71 168.53 247.71 230.63 138.47 210.78 138.47"/><circle class="cls-7" cx="175.48" cy="126.98" r="40.24"/><path class="cls-8" d="M97.87,209.62a2.16,2.16,0,0,1-2.16-2.16V178.72a2.16,2.16,0,1,1,4.31,0v28.74A2.16,2.16,0,0,1,97.87,209.62Z"/><path class="cls-9" d="M253.08,225.42a3.56,3.56,0,0,1-2.52-1,3.79,3.79,0,0,1-1.07-2.56,3.66,3.66,0,0,1,1.07-2.53,3.73,3.73,0,0,1,5.08,0,3.63,3.63,0,0,1,1,2.53,3.76,3.76,0,0,1-1,2.56A3.66,3.66,0,0,1,253.08,225.42Z"/><path class="cls-9" d="M249.52,193.08a3.55,3.55,0,0,1,3.56-3.57h0a3.58,3.58,0,0,1,3.6,3.57h0a3.6,3.6,0,0,1-3.6,3.59h0A3.57,3.57,0,0,1,249.52,193.08Z"/><path class="cls-9" d="M253.08,167.93a3.57,3.57,0,0,1-2.52-1,3.7,3.7,0,0,1-1.07-2.56,3.62,3.62,0,0,1,1.07-2.53,3.75,3.75,0,0,1,5.08,0,3.6,3.6,0,0,1,1,2.53,3.55,3.55,0,0,1-3.6,3.6Z"/><rect class="cls-10" x="129.49" y="230.46" width="40.24" height="40.24" rx="2"/><rect class="cls-11" x="139.55" y="240.52" width="20.12" height="20.12" rx="1"/><rect class="cls-12" x="181.24" y="230.46" width="40.24" height="40.24" rx="2"/><rect class="cls-13" x="129.49" y="178.71" width="40.24" height="40.24" rx="2"/><path class="cls-14" d="M164,178.71H155.5l-22.6,39.75a5.87,5.87,0,0,0,2.34.5h7.29l22.79-40.07A5.35,5.35,0,0,0,164,178.71Z"/><rect class="cls-15" x="181.24" y="178.71" width="40.24" height="40.24" rx="2"/><rect class="cls-16" x="191.3" y="188.78" width="20.12" height="20.12" rx="1"/><circle class="cls-17" cx="97.87" cy="167.22" r="3.59"/><polygon class="cls-18" points="185.72 136.21 175.48 144.37 165.25 136.21 167.89 125.41 183.28 125.41 185.72 136.21"/><path class="cls-19" d="M175.48,167.22a40.22,40.22,0,0,0,35.28-20.88,14.14,14.14,0,0,0-13.51-10.13H185.72l-10.24,8.16-10.23-8.16H153.71a14.14,14.14,0,0,0-13.51,10.13A40.25,40.25,0,0,0,175.48,167.22Z"/><path class="cls-20" d="M160.7,109.78a18.24,18.24,0,0,0-.8,5.45c0,10.08,7,18.26,15.69,18.26s15.7-8.18,15.7-18.26c0-.23,0-.46,0-.69a21.6,21.6,0,0,1-6.66-2.24C174.46,107.32,166,108.21,160.7,109.78Z"/><path class="cls-21" d="M175.59,99.64c-6.94,0-12.82,3.55-14.89,10.14,5.28-1.57,13.76-2.46,23.9,2.52a21.6,21.6,0,0,0,6.66,2.24C190.94,104.91,184.06,99.64,175.59,99.64Z"/><polygon class="cls-22" points="185.72 136.21 175.48 144.37 182.29 148.45 189.07 138.94 185.72 136.21"/><polygon class="cls-23" points="165.25 136.21 161.89 138.94 168.67 148.45 175.48 144.37 165.25 136.21"/><path class="cls-24" d="M153.71,149a1.44,1.44,0,0,0-1.44,1.43v9.46c.93.66,1.89,1.27,2.87,1.85V150.38A1.43,1.43,0,0,0,153.71,149Z"/><path class="cls-24" d="M197.28,149a1.43,1.43,0,0,0-1.43,1.43v11.29c1-.58,1.94-1.19,2.87-1.85v-9.44A1.43,1.43,0,0,0,197.28,149Z"/><path class="cls-25" d="M175.48,144.37l-1.44.86v21.94c.48,0,1,.05,1.44.05s1,0,1.44-.05V145.23Z"/><path class="cls-26" d="M175.48,144.37l-1.44.86v21.94c.48,0,1,.05,1.44.05s1,0,1.44-.05V145.23Z"/><path class="cls-27" d="M203.47,230.46H187a5.75,5.75,0,0,0-5.75,5.75V265a5.75,5.75,0,0,0,5.75,5.75h16.48a34.36,34.36,0,0,0,0-40.25Z"/><path class="cls-28" d="M203.47,230.46H187a5.75,5.75,0,0,0-5.75,5.75V265a5.75,5.75,0,0,0,5.75,5.75h16.48a34.36,34.36,0,0,0,0-40.25Z"/></g></g></svg>