<svg xmlns="http://www.w3.org/2000/svg" viewBox="0 0 163.64 167.93"><defs><style>.cls-1,.cls-3,.cls-5{fill:#303038;}.cls-2{fill:#fff;stroke:#303038;stroke-width:6px;}.cls-2,.cls-5{stroke-miterlimit:10;}.cls-3{font-size:31.81px;font-family:Montserrat-SemiBold, Montserrat;font-weight:600;}.cls-4{letter-spacing:-0.01em;}.cls-5{stroke:#fff;stroke-width:5px;}</style></defs><g id="Layer_2" data-name="Layer 2"><g id="OBJECTS"><path class="cls-1" d="M134.91,92.21a69.41,69.41,0,0,0,0-45.65,5.83,5.83,0,0,0-.22-.63,69.39,69.39,0,0,0-130.61,0,5.83,5.83,0,0,0-.22.63,69.41,69.41,0,0,0,0,45.65,5.83,5.83,0,0,0,.22.63,69.39,69.39,0,0,0,130.61,0,5.83,5.83,0,0,0,.22-.63ZM69.38,128.83c-2.64,0-6.9-4.79-10.46-15.47a109.63,109.63,0,0,1-4.1-17.53H83.94a108.59,108.59,0,0,1-4.09,17.53C76.29,124,72,128.83,69.38,128.83Zm-15.76-43c-.48-5.3-.73-10.83-.73-16.5s.25-11.19.73-16.49H85.15c.48,5.3.73,10.83.73,16.49s-.25,11.2-.73,16.5ZM10,69.38a59.09,59.09,0,0,1,2.33-16.49H43.64c-.46,5.41-.7,11-.7,16.49s.24,11.09.7,16.5H12.28A59.11,59.11,0,0,1,10,69.38ZM69.38,10c2.65,0,6.91,4.78,10.47,15.46a108.85,108.85,0,0,1,4.09,17.53H54.82a108.56,108.56,0,0,1,4.1-17.53C62.48,14.73,66.74,10,69.38,10ZM95.13,52.89h31.36a59.55,59.55,0,0,1,0,33H95.13c.46-5.41.7-11,.7-16.5s-.24-11.08-.7-16.49Zm27.48-10H94C92.22,30.74,89.18,19.8,84.93,12a59.73,59.73,0,0,1,37.68,30.93ZM53.84,12c-4.25,7.79-7.29,18.73-9.06,30.93H16.16A59.73,59.73,0,0,1,53.84,12ZM16.16,95.83H44.78c1.77,12.2,4.81,23.14,9.06,30.93A59.73,59.73,0,0,1,16.16,95.83Zm68.77,30.93C89.18,119,92.22,108,94,95.83h28.62a59.73,59.73,0,0,1-37.68,30.93Z"/><path class="cls-2" d="M111.79,46.83H27a22.56,22.56,0,1,0,0,45.11h84.81a22.56,22.56,0,1,0,0-45.11Z"/><text class="cls-3" transform="translate(25.85 78.69)"><tspan class="cls-4">ww</tspan><tspan x="57.83" y="0">w</tspan></text><polygon class="cls-5" points="158.09 134.31 110.21 85.76 108.03 153.91 125.08 140.48 134.56 164.69 145.94 160.24 136.45 136.02 158.09 134.31"/></g></g></svg>