<svg xmlns="http://www.w3.org/2000/svg" xmlns:xlink="http://www.w3.org/1999/xlink" width="101" height="101" viewBox="0 0 101 101">
  <defs>
    <linearGradient id="linear-gradient" x1="0.5" x2="0.5" y2="1" gradientUnits="objectBoundingBox">
      <stop offset="0" stop-color="#ffb400"/>
      <stop offset="1" stop-color="#fde24d"/>
    </linearGradient>
  </defs>
  <g id="logo-icon" transform="translate(-274 -5497)">
    <circle id="Ellipse_1" data-name="Ellipse 1" cx="50.5" cy="50.5" r="50.5" transform="translate(274 5497)" fill="#fff6f6"/>
    <g id="Logo" transform="translate(28.24 1147.8)">
      <path id="Path_1" data-name="Path 1" d="M11.441,30.571q-3.311,0-4.561-1.471a5.591,5.591,0,0,1-1.251-3.752,18.1,18.1,0,0,1,.883-5.076q.883-2.943,1.839-5.665Q9.6,11,11.368,6.146T15.157-4.007q2.023-5.3,4.12-10.447T23.36-23.8q-5.076.074-8.5.221t-6.143.4Q6-22.914,2.76-22.326a4.866,4.866,0,0,1,2.575-3.9,17.485,17.485,0,0,1,6.327-1.986,62.267,62.267,0,0,1,9.049-.589q5.076,0,9.086.4t7.541.772q3.531.368,7.063.441a11.4,11.4,0,0,1-5.738,2.869,38.217,38.217,0,0,1-6.842.589q-.809,0-1.692-.037T28.362-23.8H26.6q-2.354,5.886-5.407,14.861T15.046,11.3q-1.03,3.9-1.876,6.989T11.846,23.95a27.38,27.38,0,0,0-.478,5v.809A4.134,4.134,0,0,0,11.441,30.571Z" transform="translate(274.678 4394)" fill="url(#linear-gradient)"/>
      <path id="Path_2" data-name="Path 2" d="M8.681,59.371q-3.311,0-4.561-1.471a5.591,5.591,0,0,1-1.251-3.752,18.1,18.1,0,0,1,.883-5.076q.883-2.943,1.839-5.665,1.251-3.6,3.016-8.461T12.4,24.793q2.023-5.3,4.12-10.447T20.6,5q-5.076.074-8.5.221t-6.143.4Q3.237,5.886,0,6.474a4.866,4.866,0,0,1,2.575-3.9A17.485,17.485,0,0,1,8.9.589,62.267,62.267,0,0,1,17.951,0q5.076,0,9.086.4t7.541.772q3.531.368,7.063.441A11.4,11.4,0,0,1,35.9,4.488a38.217,38.217,0,0,1-6.842.589q-.809,0-1.692-.037T25.6,5H23.837q-2.354,5.886-5.407,14.861T12.286,40.1q-1.03,3.9-1.876,6.989T9.086,52.75a27.38,27.38,0,0,0-.478,5v.809A4.134,4.134,0,0,0,8.681,59.371Z" transform="translate(315.401 4433.767) rotate(180)" fill="url(#linear-gradient)"/>
    </g>
  </g>
</svg>
