{
    "asset" : {
        "generator" : "Khronos glTF Blender I/O v1.7.33",
        "version" : "2.0"
    },
    "scene" : 0,
    "scenes" : [
        {
            "name" : "Scene",
            "nodes" : [
                0,
                1
            ]
        }
    ],
    "nodes" : [
        {
            "mesh" : 0,
            "name" : "Cylinder",
            "rotation" : [
                0,
                -0.6976093053817749,
                0,
                0.7164783477783203
            ],
            "scale" : [
                1.377959966659546,
                1.0820084810256958,
                1.4139299392700195
            ],
            "translation" : [
                1.0233632326126099,
                0.22887122631072998,
                0.7807192206382751
            ]
        },
        {
            "mesh" : 1,
            "name" : "Curve.021",
            "scale" : [
                85.1470718383789,
                1,
                85.1470718383789
            ],
            "translation" : [
                0.149985209107399,
                0.23001204431056976,
                1.7698254585266113
            ]
        }
    ],
    "materials" : [
        {
            "doubleSided" : true,
            "name" : "Brushed Metal Material",
            "pbrMetallicRoughness" : {
                "roughnessFactor" : 0.10363635420799255
            }
        },
        {
            "doubleSided" : true,
            "name" : "SVGMat",
            "pbrMetallicRoughness" : {
                "baseColorFactor" : [
                    0,
                    0.3813260495662689,
                    0.0033761344384402037,
                    1
                ],
                "roughnessFactor" : 0
            }
        }
    ],
    "meshes" : [
        {
            "name" : "Cylinder",
            "primitives" : [
                {
                    "attributes" : {
                        "POSITION" : 0,
                        "NORMAL" : 1,
                        "TEXCOORD_0" : 2
                    },
                    "indices" : 3,
                    "material" : 0
                }
            ]
        },
        {
            "name" : "Curve.021",
            "primitives" : [
                {
                    "attributes" : {
                        "POSITION" : 4,
                        "NORMAL" : 5,
                        "TEXCOORD_0" : 6
                    },
                    "indices" : 7,
                    "material" : 1
                }
            ]
        }
    ],
    "accessors" : [
        {
            "bufferView" : 0,
            "componentType" : 5126,
            "count" : 512,
            "max" : [
                1,
                0.03721396625041962,
                1
            ],
            "min" : [
                -1,
                -0.03721261024475098,
                -1
            ],
            "type" : "VEC3"
        },
        {
            "bufferView" : 1,
            "componentType" : 5126,
            "count" : 512,
            "type" : "VEC3"
        },
        {
            "bufferView" : 2,
            "componentType" : 5126,
            "count" : 512,
            "type" : "VEC2"
        },
        {
            "bufferView" : 3,
            "componentType" : 5123,
            "count" : 948,
            "type" : "SCALAR"
        },
        {
            "bufferView" : 4,
            "componentType" : 5126,
            "count" : 5913,
            "max" : [
                0.020475640892982483,
                0.029999999329447746,
                0
            ],
            "min" : [
                -1.9802836988899315e-19,
                -0.029999999329447746,
                -0.023070087656378746
            ],
            "type" : "VEC3"
        },
        {
            "bufferView" : 5,
            "componentType" : 5126,
            "count" : 5913,
            "type" : "VEC3"
        },
        {
            "bufferView" : 6,
            "componentType" : 5126,
            "count" : 5913,
            "type" : "VEC2"
        },
        {
            "bufferView" : 7,
            "componentType" : 5123,
            "count" : 11064,
            "type" : "SCALAR"
        }
    ],
    "bufferViews" : [
        {
            "buffer" : 0,
            "byteLength" : 6144,
            "byteOffset" : 0
        },
        {
            "buffer" : 0,
            "byteLength" : 6144,
            "byteOffset" : 6144
        },
        {
            "buffer" : 0,
            "byteLength" : 4096,
            "byteOffset" : 12288
        },
        {
            "buffer" : 0,
            "byteLength" : 1896,
            "byteOffset" : 16384
        },
        {
            "buffer" : 0,
            "byteLength" : 70956,
            "byteOffset" : 18280
        },
        {
            "buffer" : 0,
            "byteLength" : 70956,
            "byteOffset" : 89236
        },
        {
            "buffer" : 0,
            "byteLength" : 47304,
            "byteOffset" : 160192
        },
        {
            "buffer" : 0,
            "byteLength" : 22128,
            "byteOffset" : 207496
        }
    ],
    "buffers" : [
        {
            "byteLength" : 229624,
            "uri" : "data:application/octet-stream;base64,"
        }
    ]
}
