{
    "asset" : {
        "generator" : "Khronos glTF Blender I/O v1.7.33",
        "version" : "2.0"
    },
    "scene" : 0,
    "scenes" : [
        {
            "name" : "Scene",
            "nodes" : [
                0,
                1
            ]
        }
    ],
    "nodes" : [
        {
            "mesh" : 0,
            "name" : "Cylinder",
            "scale" : [
                1.377959966659546,
                1.0820084810256958,
                1.4139299392700195
            ],
            "translation" : [
                1.0233632326126099,
                0.22887122631072998,
                0.7807192206382751
            ]
        },
        {
            "mesh" : 1,
            "name" : "Curve.010",
            "rotation" : [
                0.001623407006263733,
                0.7977180480957031,
                -0.0045214151032269,
                0.6030114889144897
            ],
            "scale" : [
                30.04292869567871,
                0.8934262990951538,
                30.04292869567871
            ],
            "translation" : [
                2.2034993171691895,
                0.23059986531734467,
                1.578747034072876
            ]
        }
    ],
    "materials" : [
        {
            "doubleSided" : true,
            "name" : "medal",
            "pbrMetallicRoughness" : {
                "baseColorFactor" : [
                    0.6730795502662659,
                    0.6730795502662659,
                    0.6730795502662659,
                    1
                ],
                "roughnessFactor" : 0.3145454525947571
            }
        },
        {
            "doubleSided" : true,
            "name" : "SVGMat",
            "pbrMetallicRoughness" : {
                "roughnessFactor" : 0.04727272689342499
            }
        }
    ],
    "meshes" : [
        {
            "name" : "Cylinder",
            "primitives" : [
                {
                    "attributes" : {
                        "POSITION" : 0,
                        "NORMAL" : 1,
                        "TEXCOORD_0" : 2
                    },
                    "indices" : 3,
                    "material" : 0
                }
            ]
        },
        {
            "name" : "Curve.010",
            "primitives" : [
                {
                    "attributes" : {
                        "POSITION" : 4,
                        "NORMAL" : 5,
                        "TEXCOORD_0" : 6
                    },
                    "indices" : 7,
                    "material" : 1
                }
            ]
        }
    ],
    "accessors" : [
        {
            "bufferView" : 0,
            "componentType" : 5126,
            "count" : 512,
            "max" : [
                1,
                0.03721396625041962,
                1
            ],
            "min" : [
                -1,
                -0.03721261024475098,
                -1
            ],
            "type" : "VEC3"
        },
        {
            "bufferView" : 1,
            "componentType" : 5126,
            "count" : 512,
            "type" : "VEC3"
        },
        {
            "bufferView" : 2,
            "componentType" : 5126,
            "count" : 512,
            "type" : "VEC2"
        },
        {
            "bufferView" : 3,
            "componentType" : 5123,
            "count" : 948,
            "type" : "SCALAR"
        },
        {
            "bufferView" : 4,
            "componentType" : 5126,
            "count" : 8432,
            "max" : [
                0.07637088745832443,
                0.04999999701976776,
                4.0380147142693446e-11
            ],
            "min" : [
                0,
                -0.04999999701976776,
                -0.05289528891444206
            ],
            "type" : "VEC3"
        },
        {
            "bufferView" : 5,
            "componentType" : 5126,
            "count" : 8432,
            "type" : "VEC3"
        },
        {
            "bufferView" : 6,
            "componentType" : 5126,
            "count" : 8432,
            "type" : "VEC2"
        },
        {
            "bufferView" : 7,
            "componentType" : 5123,
            "count" : 13260,
            "type" : "SCALAR"
        }
    ],
    "bufferViews" : [
        {
            "buffer" : 0,
            "byteLength" : 6144,
            "byteOffset" : 0
        },
        {
            "buffer" : 0,
            "byteLength" : 6144,
            "byteOffset" : 6144
        },
        {
            "buffer" : 0,
            "byteLength" : 4096,
            "byteOffset" : 12288
        },
        {
            "buffer" : 0,
            "byteLength" : 1896,
            "byteOffset" : 16384
        },
        {
            "buffer" : 0,
            "byteLength" : 101184,
            "byteOffset" : 18280
        },
        {
            "buffer" : 0,
            "byteLength" : 101184,
            "byteOffset" : 119464
        },
        {
            "buffer" : 0,
            "byteLength" : 67456,
            "byteOffset" : 220648
        },
        {
            "buffer" : 0,
            "byteLength" : 26520,
            "byteOffset" : 288104
        }
    ],
    "buffers" : [
        {
            "byteLength" : 314624,
            "uri" : "data:application/octet-stream;base64,"
        }
    ]
}
