<svg xmlns="http://www.w3.org/2000/svg" xmlns:xlink="http://www.w3.org/1999/xlink" viewBox="0 0 350 350"><defs><style>.cls-1,.cls-3{fill:#fff;}.cls-1{stroke-miterlimit:10;stroke-width:14px;stroke:url(#linear-gradient);}.cls-2{fill:#231f20;}</style><linearGradient id="linear-gradient" x1="175" x2="175" y2="350" gradientUnits="userSpaceOnUse"><stop offset="0.1" stop-color="#8a04ed"/><stop offset="0.13" stop-color="#900ded"/><stop offset="0.17" stop-color="#a127ee"/><stop offset="0.22" stop-color="#bd50f0"/><stop offset="0.28" stop-color="#e489f1"/><stop offset="0.3" stop-color="#ef9af2"/><stop offset="0.32" stop-color="#df8fe8"/><stop offset="0.37" stop-color="#b672cf"/><stop offset="0.43" stop-color="#7343a6"/><stop offset="0.5" stop-color="#240c76"/><stop offset="0.7" stop-color="#570296"/><stop offset="0.9" stop-color="#831187"/></linearGradient></defs><g id="Layer_2" data-name="Layer 2"><g id="Layer_1-2" data-name="Layer 1"><g id="WhiteB-SolidF"><circle class="cls-1" cx="175" cy="175" r="168"/></g><path class="cls-2" d="M265.48,114.55H76.82v.18A56.49,56.49,0,1,0,129,201.3h88.76a56.49,56.49,0,1,0,47.71-86.75Z"/><path class="cls-3" d="M266.29,222.39c-21.05,0-35.36-13.87-43.73-25.68l-96.75.4a66.68,66.68,0,0,1-17.71,17.63,45.86,45.86,0,0,1-25.41,7.65A53.33,53.33,0,0,1,29.44,169.8a47.29,47.29,0,0,1,14.68-34,56.83,56.83,0,0,1,35-15.68V120H260.24c30.94,0,57.07,22.81,57.07,49.8a54.54,54.54,0,0,1-14.13,36.62A49.56,49.56,0,0,1,266.29,222.39ZM223.47,195l.26.37c8.09,11.55,22,25.31,42.56,25.31,30.84,0,49.27-25.87,49.27-50.89,0-26-25.33-48-55.32-48H80.88v.1l-.81,0c-27.41,2-48.88,23-48.88,48,0,27.56,23.58,50.84,51.5,50.84,16.26,0,30.37-8.38,41.94-24.9l.26-.37Z"/><polygon class="cls-3" points="101.69 158.26 86.8 158.26 86.8 143.37 67.75 143.37 67.75 158.26 52.86 158.26 52.86 177.31 67.75 177.31 67.75 192.2 86.8 192.2 86.8 177.31 101.69 177.31 101.69 158.26"/><path class="cls-3" d="M280.22,148.17a10.71,10.71,0,1,1-10.71-10.71A10.71,10.71,0,0,1,280.22,148.17Z"/><path class="cls-3" d="M280.22,190.51a10.71,10.71,0,1,1-10.71-10.7A10.7,10.7,0,0,1,280.22,190.51Z"/><circle class="cls-3" cx="248.34" cy="169.58" r="10.71" transform="translate(-4.61 6.96) rotate(-1.59)"/><circle class="cls-3" cx="290.69" cy="169.58" r="10.71" transform="translate(-4.59 8.13) rotate(-1.59)"/><path class="cls-3" d="M184.9,166.32,166.24,185a3.81,3.81,0,0,1-5.41,0h0a3.83,3.83,0,0,1,0-5.41l18.66-18.66a3.83,3.83,0,0,1,5.41,0h0A3.81,3.81,0,0,1,184.9,166.32Z"/><path class="cls-3" d="M210.79,168.15,192.14,186.8a3.83,3.83,0,0,1-5.42,0h0a3.83,3.83,0,0,1,0-5.41l18.66-18.66a3.83,3.83,0,0,1,5.41,0h0A3.83,3.83,0,0,1,210.79,168.15Z"/><path class="cls-3" d="M211.34,140.15h-30a5.81,5.81,0,0,1-5.81-5.81h0a5.81,5.81,0,0,1,5.81-5.81h30a5.81,5.81,0,0,1,5.81,5.81h0A5.81,5.81,0,0,1,211.34,140.15Z"/></g></g></svg>