<svg xmlns="http://www.w3.org/2000/svg" viewBox="0 0 261.78 251.04"><defs><style>.cls-1{isolation:isolate;}.cls-2{mix-blend-mode:screen;}.cls-3{opacity:0;}.cls-4{fill:#ff1558;}.cls-5{opacity:0;}.cls-6{opacity:0.01;}.cls-7{opacity:0.01;}.cls-8{opacity:0.01;}.cls-9{opacity:0.01;}.cls-10{opacity:0.02;}.cls-11{opacity:0.02;}.cls-12{opacity:0.02;}.cls-13{opacity:0.02;}.cls-14{opacity:0.03;}.cls-15{opacity:0.03;}.cls-16{opacity:0.03;}.cls-17{opacity:0.03;}.cls-18{opacity:0.04;}.cls-19{opacity:0.04;}.cls-20{opacity:0.04;}.cls-21{opacity:0.04;}.cls-22{opacity:0.05;}.cls-23{opacity:0.05;}.cls-24{opacity:0.05;}.cls-25{opacity:0.05;}.cls-26{opacity:0.06;}.cls-27{fill:#ff749c;}.cls-28{fill:#ffd3df;}.cls-29{fill:#5f00f0;}.cls-30{fill:#a067f6;}.cls-31{fill:#e1cffc;}</style></defs><g class="cls-1"><g id="Layer_2" data-name="Layer 2"><g id="Layer_1-2" data-name="Layer 1"><g class="cls-2"><g class="cls-3"><path class="cls-4" d="M182.72,251a21.68,21.68,0,0,1-14.4-5.47L7.27,102.39a21.67,21.67,0,0,1,8.26-37L234,.89a21.67,21.67,0,0,1,27,26.55L203.6,235.15a21.68,21.68,0,0,1-14.74,15A21.91,21.91,0,0,1,182.72,251ZM65.22,95.93,171.1,190.06,208.84,53.5Z"/></g><g class="cls-5"><path class="cls-4" d="M182.72,250.21A20.83,20.83,0,0,1,168.88,245L7.83,101.77a20.84,20.84,0,0,1,7.93-35.55L234.21,1.69a20.83,20.83,0,0,1,26,25.53L202.8,234.93a20.82,20.82,0,0,1-20.08,15.28ZM63.54,95.55l108,96L210,52.27Z"/></g><g class="cls-6"><path class="cls-4" d="M182.72,249.38a20,20,0,0,1-13.29-5.06L8.38,101.15A20,20,0,0,1,16,67L234.45,2.49A20,20,0,0,1,259.39,27L202,234.7a20,20,0,0,1-19.28,14.68ZM61.87,95.18,172,193.09l39.24-142Z"/></g><g class="cls-7"><path class="cls-4" d="M182.72,248.54A19.19,19.19,0,0,1,170,243.7L8.93,100.52a19.16,19.16,0,0,1,7.31-32.7L234.68,3.29a19.17,19.17,0,0,1,23.91,23.48l-57.4,207.71a19.13,19.13,0,0,1-18.47,14.06ZM60.19,94.8l112.25,99.8,40-144.77Z"/></g><g class="cls-8"><path class="cls-4" d="M182.72,247.71a18.35,18.35,0,0,1-12.18-4.63L9.49,99.9a18.32,18.32,0,0,1,7-31.28L234.92,4.09a18.33,18.33,0,0,1,22.86,22.46L200.39,234.26a18.33,18.33,0,0,1-17.67,13.45ZM58.52,94.43,172.89,196.11,213.65,48.6Z"/></g><g class="cls-9"><path class="cls-4" d="M182.72,246.88a17.54,17.54,0,0,1-11.63-4.42L10,99.28a17.5,17.5,0,0,1,6.67-29.86L235.15,4.88A17.5,17.5,0,0,1,257,26.33L199.59,234a17.52,17.52,0,0,1-16.87,12.84ZM56.84,94.05l116.5,103.57L214.85,47.38Z"/></g><g class="cls-10"><path class="cls-4" d="M182.72,246a16.69,16.69,0,0,1-11.08-4.21L10.59,98.65A16.67,16.67,0,0,1,17,70.21L235.39,5.68a16.68,16.68,0,0,1,20.79,20.43l-57.4,207.71A16.65,16.65,0,0,1,182.72,246ZM55.17,93.68,173.78,199.13l42.28-153Z"/></g><g class="cls-11"><path class="cls-4" d="M182.72,245.21a15.84,15.84,0,0,1-10.52-4L11.15,98a15.84,15.84,0,0,1,6-27L235.63,6.48a15.83,15.83,0,0,1,19.74,19.4L198,233.59a15.83,15.83,0,0,1-10.78,11A15.62,15.62,0,0,1,182.72,245.21ZM53.49,93.31,174.23,200.65l43-155.72Z"/></g><g class="cls-12"><path class="cls-4" d="M182.72,244.38a15,15,0,0,1-10-3.79L11.7,97.41a15,15,0,0,1,5.72-25.6L235.86,7.28a15,15,0,0,1,18.71,18.38L197.18,233.37A15,15,0,0,1,187,243.76,14.77,14.77,0,0,1,182.72,244.38ZM51.82,92.93,174.68,202.16,218.46,43.7Z"/></g><g class="cls-13"><path class="cls-4" d="M182.72,243.54A14.16,14.16,0,0,1,173.3,240L12.25,96.79a14.17,14.17,0,0,1,5.4-24.18L236.1,8.08a14.17,14.17,0,0,1,17.67,17.36l-57.4,207.71a14.16,14.16,0,0,1-13.65,10.39ZM50.14,92.56l125,111.11L219.66,42.48Z"/></g><g class="cls-14"><path class="cls-4" d="M182.72,242.71a13.33,13.33,0,0,1-8.86-3.37L12.81,96.16a13.33,13.33,0,0,1,5.08-22.75L236.34,8.88A13.33,13.33,0,0,1,253,25.22L195.57,232.93a13.35,13.35,0,0,1-12.85,9.78ZM48.47,92.18l127.1,113,45.3-163.92Z"/></g><g class="cls-15"><path class="cls-4" d="M182.72,241.88a12.52,12.52,0,0,1-8.31-3.16L13.36,95.54a12.5,12.5,0,0,1,4.77-21.33L236.57,9.68A12.5,12.5,0,0,1,252.16,25L194.77,232.71a12.52,12.52,0,0,1-8.51,8.66A12.68,12.68,0,0,1,182.72,241.88ZM46.79,91.81,176,206.69,222.07,40Z"/></g><g class="cls-16"><path class="cls-4" d="M182.72,241A11.67,11.67,0,0,1,175,238.1L13.92,94.92A11.67,11.67,0,0,1,18.36,75L236.81,10.48a11.66,11.66,0,0,1,14.55,14.29L194,232.48A11.62,11.62,0,0,1,182.72,241ZM45.12,91.44,176.46,208.21l46.81-169.4Z"/></g><g class="cls-17"><path class="cls-4" d="M182.72,240.21a10.82,10.82,0,0,1-7.2-2.74L14.47,94.29A10.82,10.82,0,0,1,18.6,75.81L237,11.28a10.82,10.82,0,0,1,13.51,13.27L193.16,232.26a10.81,10.81,0,0,1-10.44,8ZM43.44,91.06,176.91,209.72,224.48,37.58Z"/></g><g class="cls-18"><path class="cls-4" d="M182.72,239.38a10,10,0,0,1-6.65-2.53L15,93.67a10,10,0,0,1,3.81-17.06L237.28,12.08a10,10,0,0,1,12.47,12.25L192.36,232a10,10,0,0,1-6.81,6.93A10.14,10.14,0,0,1,182.72,239.38ZM41.77,90.69,177.36,211.23,225.68,36.36Z"/></g><g class="cls-19"><path class="cls-4" d="M182.72,238.54a9.16,9.16,0,0,1-6.09-2.31L15.58,93.05a9.16,9.16,0,0,1,3.49-15.64L237.52,12.88A9.16,9.16,0,0,1,249,24.11l-57.4,207.71a9.14,9.14,0,0,1-8.83,6.72ZM40.09,90.31,177.8,212.74,226.88,35.13Z"/></g><g class="cls-20"><path class="cls-4" d="M182.72,237.71a8.35,8.35,0,0,1-5.54-2.1L16.13,92.43a8.33,8.33,0,0,1,3.18-14.22L237.75,13.68a8.33,8.33,0,0,1,10.39,10.21L190.75,231.6a8.32,8.32,0,0,1-8,6.11ZM38.42,89.94,178.25,214.26,228.08,33.91Z"/></g><g class="cls-21"><path class="cls-4" d="M182.72,236.88a7.53,7.53,0,0,1-5-1.9L16.68,91.8A7.5,7.5,0,0,1,19.54,79L238,14.47a7.5,7.5,0,0,1,9.35,9.19L190,231.38a7.5,7.5,0,0,1-5.11,5.19A7.35,7.35,0,0,1,182.72,236.88ZM36.74,89.57l142,126.2L229.29,32.69Z"/></g><g class="cls-22"><path class="cls-4" d="M182.72,236a6.67,6.67,0,0,1-4.43-1.68L17.24,91.18A6.67,6.67,0,0,1,19.78,79.8L238.22,15.27a6.67,6.67,0,0,1,8.32,8.17l-57.4,207.71a6.66,6.66,0,0,1-4.53,4.62A6.8,6.8,0,0,1,182.72,236ZM35.07,89.19,179.14,217.28,230.49,31.46Z"/></g><g class="cls-23"><path class="cls-4" d="M182.72,235.21a5.85,5.85,0,0,1-3.88-1.47L17.79,90.56A5.84,5.84,0,0,1,20,80.6L238.46,16.07a5.84,5.84,0,0,1,7.28,7.15l-57.4,207.71a5.84,5.84,0,0,1-5.62,4.28ZM33.39,88.82l146.2,130,52.1-188.55Z"/></g><g class="cls-24"><path class="cls-4" d="M182.72,234.38a5,5,0,0,1-3.32-1.27L18.34,89.94a5,5,0,0,1,1.91-8.54L238.7,16.87A5,5,0,0,1,244.93,23L187.54,230.71a5,5,0,0,1-4.82,3.67ZM31.72,88.44,180,220.3,232.9,29Z"/></g><g class="cls-25"><path class="cls-4" d="M182.72,233.54a4.14,4.14,0,0,1-2.77-1L18.9,89.31a4.16,4.16,0,0,1,1.59-7.11L238.93,17.67a4.17,4.17,0,0,1,5.2,5.11l-57.4,207.71a4.14,4.14,0,0,1-2.83,2.88A4,4,0,0,1,182.72,233.54ZM30,88.07,180.48,221.82l53.62-194Z"/></g><g class="cls-26"><path class="cls-4" d="M182.72,232.71a3.34,3.34,0,0,1-2.22-.84L19.45,88.69A3.33,3.33,0,0,1,20.72,83L239.17,18.47a3.34,3.34,0,0,1,4.16,4.08l-57.4,207.72a3.31,3.31,0,0,1-2.27,2.3A3.06,3.06,0,0,1,182.72,232.71ZM28.37,87.69,180.93,223.33,235.3,26.56Z"/></g><path class="cls-4" d="M182.72,231.88a2.49,2.49,0,0,1-1.66-.63L20,88.07A2.5,2.5,0,0,1,21,83.8L239.4,19.27a2.5,2.5,0,0,1,3.12,3.06L185.13,230a2.52,2.52,0,0,1-1.7,1.74A2.9,2.9,0,0,1,182.72,231.88ZM26.69,87.32,181.38,224.84,236.5,25.34Z"/><path class="cls-27" d="M182.72,230.88a1.5,1.5,0,0,1-1-.38L20.67,87.32a1.5,1.5,0,0,1,.57-2.56L239.69,20.23a1.48,1.48,0,0,1,1.47.37,1.51,1.51,0,0,1,.4,1.47l-57.4,207.71a1.48,1.48,0,0,1-1,1A1.52,1.52,0,0,1,182.72,230.88Zm-158-144L181.91,226.66,238,23.87Z"/><path class="cls-28" d="M182.72,229.88a.51.51,0,0,1-.33-.13L21.34,86.57a.49.49,0,0,1,.19-.85L240,21.19a.47.47,0,0,1,.49.12.5.5,0,0,1,.13.49L183.2,229.51a.5.5,0,0,1-.34.35ZM22.67,86.42,182.45,228.47,239.39,22.4Z"/><g class="cls-3"><path class="cls-29" d="M172.26,215.63a21.68,21.68,0,0,1-14.4-5.47L48.42,112.86a21.67,21.67,0,0,1,8.25-37L205.12,32a21.67,21.67,0,0,1,27,26.55l-39,141.15a21.68,21.68,0,0,1-20.88,15.9Zm-65.9-109.24,54.28,48.26,19.34-70Z"/></g><g class="cls-5"><path class="cls-29" d="M172.26,214.8a20.84,20.84,0,0,1-13.85-5.27L49,112.23a20.83,20.83,0,0,1,7.94-35.55L205.36,32.83a20.83,20.83,0,0,1,26,25.53l-39,141.15a20.84,20.84,0,0,1-14.18,14.43A20.6,20.6,0,0,1,172.26,214.8ZM104.69,106l56.4,50.14,20.1-72.74Z"/></g><g class="cls-6"><path class="cls-29" d="M172.26,214A20,20,0,0,1,159,208.91L49.52,111.61a20,20,0,0,1,7.63-34.13L205.59,33.63a20,20,0,0,1,24.95,24.51l-39,141.15A20,20,0,0,1,172.26,214ZM103,105.64l58.53,52,20.85-75.48Z"/></g><g class="cls-7"><path class="cls-29" d="M172.26,213.13a19.17,19.17,0,0,1-12.74-4.84L50.08,111a19.17,19.17,0,0,1,7.3-32.71L205.83,34.43a19.17,19.17,0,0,1,23.9,23.49l-39,141.15a19.19,19.19,0,0,1-18.47,14.06ZM101.34,105.27,162,159.18,183.59,81Z"/></g><g class="cls-8"><path class="cls-29" d="M172.26,212.3a18.35,18.35,0,0,1-12.18-4.63L50.63,110.37a18.34,18.34,0,0,1,7-31.29L206.06,35.23a18.33,18.33,0,0,1,22.87,22.46l-39,141.16a18.33,18.33,0,0,1-17.67,13.45ZM99.66,104.89l62.77,55.81L184.8,79.75Z"/></g><g class="cls-9"><path class="cls-29" d="M172.26,211.46A17.49,17.49,0,0,1,160.63,207L51.18,109.74a17.5,17.5,0,0,1,6.67-29.86L206.3,36a17.5,17.5,0,0,1,21.83,21.44l-39,141.15a17.46,17.46,0,0,1-16.86,12.84ZM98,104.52l64.89,57.69L186,78.52Z"/></g><g class="cls-10"><path class="cls-29" d="M172.26,210.63a16.67,16.67,0,0,1-11.08-4.21L51.74,109.12a16.67,16.67,0,0,1,6.35-28.44L206.54,36.83a16.66,16.66,0,0,1,20.78,20.42l-39,141.15a16.65,16.65,0,0,1-16.06,12.23ZM96.31,104.15l67,59.57L187.2,77.3Z"/></g><g class="cls-11"><path class="cls-29" d="M172.26,209.8a15.82,15.82,0,0,1-10.52-4L52.29,108.5a15.84,15.84,0,0,1,6-27L206.77,37.63A15.83,15.83,0,0,1,226.52,57l-39,141.15a15.85,15.85,0,0,1-15.26,11.62Zm-77.62-106,69.13,61.46L188.4,76.07Z"/></g><g class="cls-12"><path class="cls-29" d="M172.26,209a15,15,0,0,1-10-3.79L52.85,107.87a15,15,0,0,1,5.71-25.59L207,38.43a15,15,0,0,1,18.71,18.38L186.71,198a15,15,0,0,1-14.45,11ZM93,103.4l71.26,63.34,25.39-91.89Z"/></g><g class="cls-13"><path class="cls-29" d="M172.26,208.13a14.16,14.16,0,0,1-9.42-3.58L53.4,107.25a14.17,14.17,0,0,1,5.4-24.17L207.25,39.23a14.16,14.16,0,0,1,17.66,17.35l-39,141.16a14.16,14.16,0,0,1-13.65,10.39ZM91.29,103l73.37,65.24,26.15-94.64Z"/></g><g class="cls-14"><path class="cls-29" d="M172.26,207.3a13.31,13.31,0,0,1-8.86-3.37L54,106.63A13.33,13.33,0,0,1,59,83.88L207.48,40a13.34,13.34,0,0,1,16.63,16.34l-39,141.15a13.34,13.34,0,0,1-9.08,9.24A13.18,13.18,0,0,1,172.26,207.3ZM89.61,102.65l75.5,67.12L192,72.4Z"/></g><g class="cls-15"><path class="cls-29" d="M172.26,206.46a12.51,12.51,0,0,1-8.31-3.15L54.51,106a12.5,12.5,0,0,1,4.76-21.33L207.72,40.82a12.51,12.51,0,0,1,15.59,15.32l-39,141.15a12.49,12.49,0,0,1-8.5,8.66A12.32,12.32,0,0,1,172.26,206.46ZM87.94,102.28l77.61,69,27.67-100.1Z"/></g><g class="cls-16"><path class="cls-29" d="M172.26,205.63a11.67,11.67,0,0,1-7.76-2.95L55.06,105.38a11.66,11.66,0,0,1,4.45-19.9L208,41.62a11.66,11.66,0,0,1,14.55,14.3l-39,141.15a11.68,11.68,0,0,1-11.24,8.56Zm-86-103.73L166,172.79,194.42,70Z"/></g><g class="cls-17"><path class="cls-29" d="M172.26,204.8a10.82,10.82,0,0,1-7.2-2.74L55.61,104.76a10.84,10.84,0,0,1,4.13-18.49L208.19,42.42A10.83,10.83,0,0,1,221.7,55.7l-39,141.15a10.86,10.86,0,0,1-10.44,8ZM84.59,101.53l81.86,72.77L195.62,68.73Z"/></g><g class="cls-18"><path class="cls-29" d="M172.26,204a10,10,0,0,1-6.65-2.52L56.17,104.14A10,10,0,0,1,60,87.07L208.43,43.22A10,10,0,0,1,220.9,55.48l-39,141.15a10,10,0,0,1-6.8,6.92A9.84,9.84,0,0,1,172.26,204ZM82.91,101.15l84,74.67L196.82,67.5Z"/></g><g class="cls-19"><path class="cls-29" d="M172.26,203.13a9.12,9.12,0,0,1-6.09-2.32L56.72,103.51a9.17,9.17,0,0,1,3.5-15.64L208.66,44a9.16,9.16,0,0,1,11.43,11.23l-39,141.15a9.13,9.13,0,0,1-6.24,6.35A8.88,8.88,0,0,1,172.26,203.13Zm-91-102.35,86.1,76.55L198,66.28Z"/></g><g class="cls-20"><path class="cls-29" d="M172.26,202.3a8.29,8.29,0,0,1-5.54-2.11L57.28,102.89a8.33,8.33,0,0,1,3.17-14.22L208.9,44.82A8.33,8.33,0,0,1,219.29,55l-39,141.15a8.35,8.35,0,0,1-5.67,5.78A8.69,8.69,0,0,1,172.26,202.3ZM79.56,100.41l88.23,78.43L199.23,65.05Z"/></g><g class="cls-21"><path class="cls-29" d="M172.26,201.46a7.48,7.48,0,0,1-5-1.89L57.83,102.27a7.5,7.5,0,0,1,2.86-12.8L209.13,45.62a7.5,7.5,0,0,1,9.36,9.19L179.49,196a7.51,7.51,0,0,1-5.11,5.2A7.7,7.7,0,0,1,172.26,201.46ZM77.89,100l90.35,80.32L200.43,63.83Z"/></g><g class="cls-22"><path class="cls-29" d="M172.26,200.63a6.63,6.63,0,0,1-4.43-1.68L58.38,101.65a6.68,6.68,0,0,1,2.54-11.38L209.37,46.42a6.66,6.66,0,0,1,8.31,8.17l-39,141.15a6.65,6.65,0,0,1-6.42,4.89Zm-96-101,92.47,82.21,33-119.26Z"/></g><g class="cls-23"><path class="cls-29" d="M172.26,199.8a5.81,5.81,0,0,1-3.88-1.48L58.94,101a5.83,5.83,0,0,1,2.22-10L209.61,47.22a5.83,5.83,0,0,1,7.27,7.15l-39,141.15a5.84,5.84,0,0,1-5.62,4.28ZM74.54,99.28l94.59,84.1,33.71-122Z"/></g><g class="cls-24"><path class="cls-29" d="M172.26,199a5,5,0,0,1-3.33-1.26L59.49,100.4a5,5,0,0,1,1.91-8.53L209.84,48a5,5,0,0,1,6.24,6.12l-39,141.16a5,5,0,0,1-3.41,3.46A4.85,4.85,0,0,1,172.26,199ZM72.86,98.91l96.72,86L204,60.16Z"/></g><g class="cls-25"><path class="cls-29" d="M172.26,198.13a4.19,4.19,0,0,1-2.77-1L60,99.78a4.17,4.17,0,0,1,1.59-7.11L210.08,48.82a4.17,4.17,0,0,1,5.2,5.1l-39,141.15a4.16,4.16,0,0,1-2.83,2.89A4.37,4.37,0,0,1,172.26,198.13ZM71.19,98.53,170,186.4,205.24,58.93Z"/></g><g class="cls-26"><path class="cls-29" d="M172.26,197.3a3.35,3.35,0,0,1-2.22-.85L60.6,99.16a3.33,3.33,0,0,1,1.27-5.69L210.31,49.61a3.34,3.34,0,0,1,4.16,4.09l-39,141.15a3.36,3.36,0,0,1-2.27,2.31A3.4,3.4,0,0,1,172.26,197.3ZM69.51,98.16l101,89.75,36-130.2Z"/></g><path class="cls-29" d="M172.26,196.46a2.53,2.53,0,0,1-1.67-.63L61.15,98.53a2.49,2.49,0,0,1,1-4.26L210.55,50.41a2.51,2.51,0,0,1,3.12,3.07l-39,141.15a2.5,2.5,0,0,1-1.71,1.73A2.42,2.42,0,0,1,172.26,196.46ZM67.84,97.79l103.08,91.64,36.73-133Z"/><path class="cls-30" d="M172.26,195.46a1.49,1.49,0,0,1-1-.38L61.82,97.79a1.5,1.5,0,0,1,.57-2.56L210.83,51.37a1.51,1.51,0,0,1,1.88,1.84l-39,141.15a1.48,1.48,0,0,1-1,1A1.52,1.52,0,0,1,172.26,195.46ZM65.83,97.34l105.62,93.9L209.09,55Z"/><path class="cls-31" d="M172.26,194.46a.54.54,0,0,1-.34-.12L62.48,97a.52.52,0,0,1-.16-.48.54.54,0,0,1,.35-.38L211.12,52.33a.5.5,0,0,1,.49.13.48.48,0,0,1,.13.48l-39,141.16a.52.52,0,0,1-.34.34A.36.36,0,0,1,172.26,194.46ZM63.82,96.89,172,193.06,210.54,53.55Z"/></g></g></g></g></svg>